<svg width="800" height="600" viewBox="0 0 800 600" xmlns="http://www.w3.org/2000/svg">
  <!-- Background -->
  <rect width="800" height="600" fill="#f8f9fa"/>
  
  <!-- Title -->
  <text x="400" y="30" text-anchor="middle" font-family="Arial, sans-serif" font-size="24" font-weight="bold" fill="#2c3e50">
    Moderne Parkeringsteknologi
  </text>
  
  <!-- Car outline in center -->
  <g transform="translate(350, 200)">
    <!-- Car body -->
    <rect x="0" y="20" width="100" height="60" rx="8" fill="#3498db" stroke="#2980b9" stroke-width="2"/>
    <!-- Car windows -->
    <rect x="5" y="25" width="90" height="20" rx="4" fill="#ecf0f1"/>
    <rect x="5" y="50" width="90" height="20" rx="4" fill="#ecf0f1"/>
    <!-- Wheels -->
    <circle cx="15" cy="90" r="8" fill="#34495e"/>
    <circle cx="85" cy="90" r="8" fill="#34495e"/>
  </g>
  
  <!-- Parking sensors -->
  <g>
    <!-- Front sensors -->
    <circle cx="320" cy="240" r="4" fill="#e74c3c"/>
    <text x="300" y="230" font-family="Arial, sans-serif" font-size="12" fill="#e74c3c">Front</text>
    <text x="295" y="245" font-family="Arial, sans-serif" font-size="12" fill="#e74c3c">Sensorer</text>
    
    <!-- Rear sensors -->
    <circle cx="480" cy="240" r="4" fill="#e74c3c"/>
    <text x="490" y="230" font-family="Arial, sans-serif" font-size="12" fill="#e74c3c">Bak</text>
    <text x="485" y="245" font-family="Arial, sans-serif" font-size="12" fill="#e74c3c">Sensorer</text>
    
    <!-- Side sensors -->
    <circle cx="400" cy="200" r="4" fill="#e74c3c"/>
    <circle cx="400" cy="280" r="4" fill="#e74c3c"/>
    <text x="410" y="190" font-family="Arial, sans-serif" font-size="12" fill="#e74c3c">Side sensorer</text>
  </g>
  
  <!-- Camera illustration -->
  <g transform="translate(50, 100)">
    <rect x="0" y="0" width="120" height="80" rx="8" fill="#95a5a6" stroke="#7f8c8d" stroke-width="2"/>
    <text x="60" y="25" text-anchor="middle" font-family="Arial, sans-serif" font-size="14" font-weight="bold" fill="#2c3e50">
      Ryggekamera
    </text>
    <rect x="10" y="30" width="100" height="40" rx="4" fill="#2c3e50"/>
    <!-- Grid lines to represent camera view -->
    <line x1="35" y1="30" x2="35" y2="70" stroke="#3498db" stroke-width="1"/>
    <line x1="60" y1="30" x2="60" y2="70" stroke="#3498db" stroke-width="1"/>
    <line x1="85" y1="30" x2="85" y2="70" stroke="#3498db" stroke-width="1"/>
    <line x1="10" y1="45" x2="110" y2="45" stroke="#3498db" stroke-width="1"/>
    <line x1="10" y1="55" x2="110" y2="55" stroke="#3498db" stroke-width="1"/>
  </g>
  
  <!-- 360 degree camera -->
  <g transform="translate(600, 100)">
    <circle cx="60" cy="40" r="40" fill="#f39c12" stroke="#e67e22" stroke-width="2"/>
    <text x="60" y="25" text-anchor="middle" font-family="Arial, sans-serif" font-size="12" font-weight="bold" fill="#fff">
      360°
    </text>
    <text x="60" y="40" text-anchor="middle" font-family="Arial, sans-serif" font-size="12" font-weight="bold" fill="#fff">
      Kamera
    </text>
    <text x="60" y="55" text-anchor="middle" font-family="Arial, sans-serif" font-size="12" font-weight="bold" fill="#fff">
      System
    </text>
  </g>
  
  <!-- Automatic parking illustration -->
  <g transform="translate(50, 350)">
    <rect x="0" y="0" width="200" height="120" rx="8" fill="#9b59b6" stroke="#8e44ad" stroke-width="2"/>
    <text x="100" y="25" text-anchor="middle" font-family="Arial, sans-serif" font-size="16" font-weight="bold" fill="#fff">
      Automatisk Parkering
    </text>
    
    <!-- Steering wheel -->
    <circle cx="50" cy="60" r="20" fill="none" stroke="#fff" stroke-width="3"/>
    <circle cx="50" cy="60" r="3" fill="#fff"/>
    
    <!-- Arrow -->
    <path d="M 80 60 L 120 60 M 110 50 L 120 60 L 110 70" stroke="#fff" stroke-width="3" fill="none"/>
    
    <!-- Parking space -->
    <rect x="130" y="40" width="60" height="40" rx="4" fill="none" stroke="#fff" stroke-width="2" stroke-dasharray="5,5"/>
    <text x="160" y="85" text-anchor="middle" font-family="Arial, sans-serif" font-size="10" fill="#fff">
      Automatisk
    </text>
    <text x="160" y="100" text-anchor="middle" font-family="Arial, sans-serif" font-size="10" fill="#fff">
      Plassering
    </text>
  </g>
  
  <!-- Smart parking app -->
  <g transform="translate(550, 350)">
    <rect x="0" y="0" width="180" height="120" rx="8" fill="#27ae60" stroke="#229954" stroke-width="2"/>
    <text x="90" y="25" text-anchor="middle" font-family="Arial, sans-serif" font-size="16" font-weight="bold" fill="#fff">
      Smart Parkering
    </text>
    
    <!-- Phone outline -->
    <rect x="30" y="40" width="50" height="70" rx="8" fill="#fff"/>
    <rect x="35" y="50" width="40" height="50" rx="4" fill="#2c3e50"/>
    
    <!-- App icons -->
    <rect x="40" y="55" width="10" height="10" rx="2" fill="#3498db"/>
    <rect x="55" y="55" width="10" height="10" rx="2" fill="#e74c3c"/>
    <rect x="40" y="70" width="10" height="10" rx="2" fill="#f39c12"/>
    <rect x="55" y="70" width="10" height="10" rx="2" fill="#9b59b6"/>
    
    <!-- Features -->
    <text x="100" y="50" font-family="Arial, sans-serif" font-size="10" fill="#fff">• Finn ledig plass</text>
    <text x="100" y="65" font-family="Arial, sans-serif" font-size="10" fill="#fff">• Betal via app</text>
    <text x="100" y="80" font-family="Arial, sans-serif" font-size="10" fill="#fff">• Forhåndsbook</text>
    <text x="100" y="95" font-family="Arial, sans-serif" font-size="10" fill="#fff">• Sanntidsinfo</text>
  </g>
  
  <!-- Benefits section -->
  <g transform="translate(50, 500)">
    <text x="0" y="20" font-family="Arial, sans-serif" font-size="16" font-weight="bold" fill="#2c3e50">
      Fordeler med moderne parkeringsteknologi:
    </text>
    <text x="20" y="40" font-family="Arial, sans-serif" font-size="12" fill="#34495e">• Økt sikkerhet og presisjon</text>
    <text x="20" y="55" font-family="Arial, sans-serif" font-size="12" fill="#34495e">• Redusert stress og tidssparing</text>
    <text x="20" y="70" font-family="Arial, sans-serif" font-size="12" fill="#34495e">• Mindre risiko for skader på kjøretøy</text>
    <text x="400" y="40" font-family="Arial, sans-serif" font-size="12" fill="#34495e">• Bedre utnyttelse av parkeringsplasser</text>
    <text x="400" y="55" font-family="Arial, sans-serif" font-size="12" fill="#34495e">• Miljøvennlige løsninger</text>
    <text x="400" y="70" font-family="Arial, sans-serif" font-size="12" fill="#34495e">• Fremtidsrettet teknologi</text>
  </g>
</svg>