<svg width="800" height="600" viewBox="0 0 800 600" xmlns="http://www.w3.org/2000/svg">
  <!-- Background -->
  <rect width="800" height="600" fill="#f8f9fa"/>
  
  <!-- Title -->
  <text x="400" y="40" text-anchor="middle" font-family="Arial, sans-serif" font-size="24" font-weight="bold" fill="#2c3e50">
    Prosjektileffekt ved kollisjon - Den skjulte faren
  </text>
  
  <!-- Collision scenario -->
  <g transform="translate(100, 80)">
    <!-- Car before collision -->
    <g transform="translate(0, 0)">
      <text x="100" y="20" text-anchor="middle" font-family="Arial, sans-serif" font-size="14" font-weight="bold" fill="#2c3e50">FØR kollisjon - 50 km/t</text>
      
      <!-- Car outline -->
      <rect x="50" y="40" width="100" height="60" fill="#3498db" stroke="#2980b9" stroke-width="2" rx="5"/>
      <circle cx="65" cy="115" r="10" fill="#34495e"/>
      <circle cx="135" cy="115" r="10" fill="#34495e"/>
      
      <!-- Objects inside car -->
      <rect x="80" y="50" width="8" height="15" fill="#e74c3c"/>
      <text x="84" y="75" text-anchor="middle" font-family="Arial, sans-serif" font-size="8" fill="#2c3e50">Mobil</text>
      <text x="84" y="85" text-anchor="middle" font-family="Arial, sans-serif" font-size="8" fill="#2c3e50">200g</text>
      
      <circle cx="110" cy="55" r="6" fill="#f39c12"/>
      <text x="110" y="75" text-anchor="middle" font-family="Arial, sans-serif" font-size="8" fill="#2c3e50">Flaske</text>
      <text x="110" y="85" text-anchor="middle" font-family="Arial, sans-serif" font-size="8" fill="#2c3e50">500g</text>
      
      <rect x="125" y="45" width="15" height="20" fill="#8e44ad"/>
      <text x="132" y="75" text-anchor="middle" font-family="Arial, sans-serif" font-size="8" fill="#2c3e50">Veske</text>
      <text x="132" y="85" text-anchor="middle" font-family="Arial, sans-serif" font-size="8" fill="#2c3e50">2kg</text>
      
      <!-- Speed arrow -->
      <path d="M170 70 L200 70" stroke="#27ae60" stroke-width="3" marker-end="url(#arrowhead)"/>
      <text x="185" y="65" text-anchor="middle" font-family="Arial, sans-serif" font-size="10" fill="#27ae60">50 km/t</text>
    </g>
    
    <!-- Collision moment -->
    <g transform="translate(300, 0)">
      <text x="100" y="20" text-anchor="middle" font-family="Arial, sans-serif" font-size="14" font-weight="bold" fill="#e74c3c">UNDER kollisjon</text>
      
      <!-- Crashed car -->
      <rect x="50" y="40" width="80" height="60" fill="#e74c3c" stroke="#c0392b" stroke-width="2" rx="5"/>
      <circle cx="65" cy="115" r="10" fill="#34495e"/>
      <circle cx="115" cy="115" r="10" fill="#34495e"/>
      
      <!-- Impact lines -->
      <path d="M45 70 L35 60" stroke="#f1c40f" stroke-width="2"/>
      <path d="M45 70 L35 80" stroke="#f1c40f" stroke-width="2"/>
      <path d="M45 80 L35 90" stroke="#f1c40f" stroke-width="2"/>
      
      <!-- Objects flying forward -->
      <rect x="160" y="35" width="8" height="15" fill="#e74c3c"/>
      <path d="M150 45 L180 35" stroke="#e74c3c" stroke-width="2" marker-end="url(#arrowhead)"/>
      <text x="175" y="30" font-family="Arial, sans-serif" font-size="8" fill="#e74c3c">10kg kraft!</text>
      
      <circle cx="170" cy="60" r="6" fill="#f39c12"/>
      <path d="M150 55 L185 60" stroke="#f39c12" stroke-width="2" marker-end="url(#arrowhead)"/>
      <text x="185" y="55" font-family="Arial, sans-serif" font-size="8" fill="#f39c12">25kg kraft!</text>
      
      <rect x="175" y="80" width="15" height="20" fill="#8e44ad"/>
      <path d="M150 90 L190 85" stroke="#8e44ad" stroke-width="2" marker-end="url(#arrowhead)"/>
      <text x="190" y="75" font-family="Arial, sans-serif" font-size="8" fill="#8e44ad">100kg kraft!</text>
    </g>
  </g>
  
  <!-- Physics explanation -->
  <g transform="translate(50, 240)">
    <rect x="0" y="0" width="700" height="100" fill="#e8f4f8" stroke="#17a2b8" stroke-width="2" rx="5"/>
    <text x="350" y="25" text-anchor="middle" font-family="Arial, sans-serif" font-size="16" font-weight="bold" fill="#0c5460">
      Fysikk: F = m × a (Kraft = masse × akselerasjon)
    </text>
    <text x="350" y="45" text-anchor="middle" font-family="Arial, sans-serif" font-size="12" fill="#0c5460">
      Ved kollisjon i 50 km/t opplever objekter 30-50G akselerasjon (30-50 ganger tyngdekraften)
    </text>
    <text x="350" y="65" text-anchor="middle" font-family="Arial, sans-serif" font-size="12" fill="#0c5460">
      En mobiltelefon på 200g blir til et 6-10 kg tungt prosjektil som treffer med stor kraft
    </text>
    <text x="350" y="85" text-anchor="middle" font-family="Arial, sans-serif" font-size="12" font-weight="bold" fill="#dc3545">
      Selv små gjenstander kan forårsake alvorlige eller dødelige skader
    </text>
  </g>
  
  <!-- Danger comparison table -->
  <g transform="translate(50, 370)">
    <text x="350" y="0" text-anchor="middle" font-family="Arial, sans-serif" font-size="18" font-weight="bold" fill="#2c3e50">
      Sammenligning av gjenstandsvekt ved kollisjon
    </text>
    
    <!-- Table -->
    <g transform="translate(0, 20)">
      <!-- Headers -->
      <rect x="0" y="0" width="175" height="30" fill="#34495e"/>
      <text x="87" y="20" text-anchor="middle" font-family="Arial, sans-serif" font-size="12" font-weight="bold" fill="white">Gjenstand</text>
      
      <rect x="175" y="0" width="125" height="30" fill="#34495e"/>
      <text x="237" y="20" text-anchor="middle" font-family="Arial, sans-serif" font-size="12" font-weight="bold" fill="white">Normal vekt</text>
      
      <rect x="300" y="0" width="150" height="30" fill="#34495e"/>
      <text x="375" y="20" text-anchor="middle" font-family="Arial, sans-serif" font-size="12" font-weight="bold" fill="white">Vekt ved kollisjon</text>
      
      <rect x="450" y="0" width="150" height="30" fill="#34495e"/>
      <text x="525" y="20" text-anchor="middle" font-family="Arial, sans-serif" font-size="12" font-weight="bold" fill="white">Mulig skade</text>
      
      <rect x="600" y="0" width="100" height="30" fill="#34495e"/>
      <text x="650" y="20" text-anchor="middle" font-family="Arial, sans-serif" font-size="12" font-weight="bold" fill="white">Risiko</text>
      
      <!-- Table rows -->
      <g transform="translate(0, 30)">
        <!-- Row 1: Mobile phone -->
        <rect x="0" y="0" width="175" height="25" fill="#f8f9fa" stroke="#dee2e6" stroke-width="1"/>
        <rect x="10" y="5" width="8" height="15" fill="#e74c3c"/>
        <text x="30" y="17" font-family="Arial, sans-serif" font-size="11" fill="#2c3e50">Mobiltelefon</text>
        
        <rect x="175" y="0" width="125" height="25" fill="#f8f9fa" stroke="#dee2e6" stroke-width="1"/>
        <text x="237" y="17" text-anchor="middle" font-family="Arial, sans-serif" font-size="11" fill="#2c3e50">200g</text>
        
        <rect x="300" y="0" width="150" height="25" fill="#f8f9fa" stroke="#dee2e6" stroke-width="1"/>
        <text x="375" y="17" text-anchor="middle" font-family="Arial, sans-serif" font-size="11" fill="#e74c3c" font-weight="bold">6-10 kg</text>
        
        <rect x="450" y="0" width="150" height="25" fill="#f8f9fa" stroke="#dee2e6" stroke-width="1"/>
        <text x="525" y="17" text-anchor="middle" font-family="Arial, sans-serif" font-size="11" fill="#2c3e50">Hjernerystelse</text>
        
        <rect x="600" y="0" width="100" height="25" fill="#f8f9fa" stroke="#dee2e6" stroke-width="1"/>
        <circle cx="650" cy="12" r="8" fill="#ffc107"/>
        <text x="650" y="16" text-anchor="middle" font-family="Arial, sans-serif" font-size="8" fill="#856404">HØY</text>
        
        <!-- Row 2: Water bottle -->
        <rect x="0" y="25" width="175" height="25" fill="#ffffff" stroke="#dee2e6" stroke-width="1"/>
        <circle cx="20" cy="37" r="6" fill="#f39c12"/>
        <text x="35" y="42" font-family="Arial, sans-serif" font-size="11" fill="#2c3e50">Vannflaske</text>
        
        <rect x="175" y="25" width="125" height="25" fill="#ffffff" stroke="#dee2e6" stroke-width="1"/>
        <text x="237" y="42" text-anchor="middle" font-family="Arial, sans-serif" font-size="11" fill="#2c3e50">500g</text>
        
        <rect x="300" y="25" width="150" height="25" fill="#ffffff" stroke="#dee2e6" stroke-width="1"/>
        <text x="375" y="42" text-anchor="middle" font-family="Arial, sans-serif" font-size="11" fill="#e74c3c" font-weight="bold">15-25 kg</text>
        
        <rect x="450" y="25" width="150" height="25" fill="#ffffff" stroke="#dee2e6" stroke-width="1"/>
        <text x="525" y="42" text-anchor="middle" font-family="Arial, sans-serif" font-size="11" fill="#2c3e50">Bruddskader</text>
        
        <rect x="600" y="25" width="100" height="25" fill="#ffffff" stroke="#dee2e6" stroke-width="1"/>
        <circle cx="650" cy="37" r="8" fill="#dc3545"/>
        <text x="650" y="41" text-anchor="middle" font-family="Arial, sans-serif" font-size="8" fill="white">KRIT</text>
        
        <!-- Row 3: Laptop bag -->
        <rect x="0" y="50" width="175" height="25" fill="#f8f9fa" stroke="#dee2e6" stroke-width="1"/>
        <rect x="10" y="55" width="15" height="15" fill="#8e44ad"/>
        <text x="35" y="67" font-family="Arial, sans-serif" font-size="11" fill="#2c3e50">Laptopveske</text>
        
        <rect x="175" y="50" width="125" height="25" fill="#f8f9fa" stroke="#dee2e6" stroke-width="1"/>
        <text x="237" y="67" text-anchor="middle" font-family="Arial, sans-serif" font-size="11" fill="#2c3e50">2 kg</text>
        
        <rect x="300" y="50" width="150" height="25" fill="#f8f9fa" stroke="#dee2e6" stroke-width="1"/>
        <text x="375" y="67" text-anchor="middle" font-family="Arial, sans-serif" font-size="11" fill="#e74c3c" font-weight="bold">60-100 kg</text>
        
        <rect x="450" y="50" width="150" height="25" fill="#f8f9fa" stroke="#dee2e6" stroke-width="1"/>
        <text x="525" y="67" text-anchor="middle" font-family="Arial, sans-serif" font-size="11" fill="#2c3e50">Livstruende</text>
        
        <rect x="600" y="50" width="100" height="25" fill="#f8f9fa" stroke="#dee2e6" stroke-width="1"/>
        <circle cx="650" cy="62" r="8" fill="#dc3545"/>
        <text x="650" y="66" text-anchor="middle" font-family="Arial, sans-serif" font-size="8" fill="white">KRIT</text>
        
        <!-- Row 4: Vacuum cleaner -->
        <rect x="0" y="75" width="175" height="25" fill="#ffffff" stroke="#dee2e6" stroke-width="1"/>
        <rect x="10" y="80" width="20" height="15" fill="#2c3e50"/>
        <text x="40" y="92" font-family="Arial, sans-serif" font-size="11" fill="#2c3e50">Støvsuger</text>
        
        <rect x="175" y="75" width="125" height="25" fill="#ffffff" stroke="#dee2e6" stroke-width="1"/>
        <text x="237" y="92" text-anchor="middle" font-family="Arial, sans-serif" font-size="11" fill="#2c3e50">5 kg</text>
        
        <rect x="300" y="75" width="150" height="25" fill="#ffffff" stroke="#dee2e6" stroke-width="1"/>
        <text x="375" y="92" text-anchor="middle" font-family="Arial, sans-serif" font-size="11" fill="#e74c3c" font-weight="bold">150-250 kg</text>
        
        <rect x="450" y="75" width="150" height="25" fill="#ffffff" stroke="#dee2e6" stroke-width="1"/>
        <text x="525" y="92" text-anchor="middle" font-family="Arial, sans-serif" font-size="11" fill="#2c3e50">Dødelig</text>
        
        <rect x="600" y="75" width="100" height="25" fill="#ffffff" stroke="#dee2e6" stroke-width="1"/>
        <circle cx="650" cy="87" r="8" fill="#000000"/>
        <text x="650" y="91" text-anchor="middle" font-family="Arial, sans-serif" font-size="8" fill="white">DØD</text>
      </g>
    </g>
  </g>
  
  <!-- Bottom warning -->
  <g transform="translate(50, 540)">
    <rect x="0" y="0" width="700" height="40" fill="#f8d7da" stroke="#dc3545" stroke-width="2" rx="5"/>
    <text x="350" y="17" text-anchor="middle" font-family="Arial, sans-serif" font-size="14" font-weight="bold" fill="#721c24">
      ⚠️ ALLE løse gjenstander må sikres - selv små ting kan drepe
    </text>
    <text x="350" y="32" text-anchor="middle" font-family="Arial, sans-serif" font-size="11" fill="#721c24">
      Bruk bagasjerom, nett, kasser eller andre sikringsmetoder for ALLE gjenstander
    </text>
  </g>
  
  <!-- Arrow markers -->
  <defs>
    <marker id="arrowhead" markerWidth="8" markerHeight="6" 
     refX="7" refY="3" orient="auto">
      <polygon points="0 0, 8 3, 0 6" fill="currentColor"/>
    </marker>
  </defs>
</svg>