<svg width="600" height="400" viewBox="0 0 600 400" xmlns="http://www.w3.org/2000/svg">
  <style>
    .container {
      font-family: -apple-system, BlinkMacSystemFont, "Segoe UI", Roboto, Helvetica, Arial, sans-serif, "Apple Color Emoji", "Segoe UI Emoji", "Segoe UI Symbol";
      font-size: 16px;
    }
    .title {
      font-size: 24px;
      font-weight: bold;
      text-anchor: middle;
    }
    .step-box {
      stroke: #333;
      stroke-width: 2;
      fill: #f9f9f9;
    }
    .step-title {
      font-size: 18px;
      font-weight: bold;
      text-anchor: middle;
    }
    .step-text {
      font-size: 14px;
      text-anchor: middle;
    }
    .arrow {
      stroke: #007bff;
      stroke-width: 3;
      marker-end: url(#arrowhead);
    }
  </style>
  <defs>
    <marker id="arrowhead" markerWidth="10" markerHeight="7" refX="0" refY="3.5" orient="auto">
      <polygon points="0 0, 10 3.5, 0 7" fill="#007bff" />
    </marker>
  </defs>
  <g class="container">
    <text x="300" y="40" class="title">Eierskifteprosess for Vognkort</text>

    <!-- Step 1: Agreement -->
    <rect x="50" y="80" width="150" height="120" rx="10" class="step-box" />
    <text x="125" y="110" class="step-title">1. Signering</text>
    <text x="125" y="140" class="step-text">Kjøper og selger</text>
    <text x="125" y="160" class="step-text">signerer</text>
    <text x="125" y="180" class="step-text">eierskifteerklæring.</text>

    <!-- Arrow 1 -->
    <line x1="210" y1="140" x2="260" y2="140" class="arrow" />

    <!-- Step 2: Submission -->
    <rect x="270" y="80" width="150" height="120" rx="10" class="step-box" />
    <text x="345" y="110" class="step-title">2. Innsending</text>
    <text x="345" y="140" class="step-text">Sendes til</text>
    <text x="345" y="160" class="step-text">Statens vegvesen.</text>

    <!-- Arrow 2 -->
    <line x1="430" y1="140" x2="480" y2="140" class="arrow" />

    <!-- Step 3: Deadline -->
    <rect x="490" y="80" width="100" height="120" rx="10" class="step-box" />
    <text x="540" y="110" class="step-title">3. Frist</text>
    <text x="540" y="150" style="font-size: 24px; font-weight: bold; fill: #dc3545; text-anchor: middle;">3</text>
    <text x="540" y="175" class="step-text">dager</text>

    <text x="300" y="250" class="step-text" style="font-style: italic;">Del 2 av vognkortet må alltid være oppdatert og medbringes.</text>

    <!-- Icons -->
    <g transform="translate(100 190) scale(0.8)">
        <path d="M12 12c2.21 0 4-1.79 4-4s-1.79-4-4-4-4 1.79-4 4 1.79 4 4 4zm0 2c-2.67 0-8 1.34-8 4v2h16v-2c0-2.66-5.33-4-8-4z" fill="#333"/>
    </g>
    <g transform="translate(150 190) scale(0.8)">
        <path d="M12 12c2.21 0 4-1.79 4-4s-1.79-4-4-4-4 1.79-4 4 1.79 4 4 4zm0 2c-2.67 0-8 1.34-8 4v2h16v-2c0-2.66-5.33-4-8-4z" fill="#333"/>
    </g>
    <g transform="translate(320 190) scale(1.2)">
        <path d="M19 3H5c-1.11 0-2 .9-2 2v14c0 1.1.89 2 2 2h14c1.1 0 2-.9 2-2V5c0-1.1-.9-2-2-2zm-2 10H7v-2h10v2zm-4 4H7v-2h6v2zm4-8H7V7h10v2z" fill="#333"/>
    </g>
    <g transform="translate(515 190) scale(1.2)">
        <path d="M11.99 2C6.47 2 2 6.48 2 12s4.47 10 9.99 10C17.52 22 22 17.52 22 12S17.52 2 11.99 2zM12 20c-4.42 0-8-3.58-8-8s3.58-8 8-8 8 3.58 8 8-3.58 8-8 8zm.5-13H11v6l5.25 3.15.75-1.23-4.5-2.67z" fill="#333"/>
    </g>

  </g>
</svg>
