<svg width="800" height="600" viewBox="0 0 800 600" xmlns="http://www.w3.org/2000/svg">
  <rect width="800" height="600" fill="#f8f9fa"/>
  
  <!-- Title -->
  <text x="400" y="40" text-anchor="middle" font-family="Arial, sans-serif" font-size="24" font-weight="bold" fill="#2c3e50">Vanlige parkeringsfeil og konsekvenser</text>
  
  <!-- Too fast reversing -->
  <g transform="translate(50, 80)">
    <text x="0" y="0" font-family="Arial, sans-serif" font-size="14" font-weight="bold" fill="#e74c3c">For rask rygging</text>
    <!-- Car moving too fast -->
    <rect x="100" y="30" width="30" height="18" fill="#e74c3c" stroke="#c0392b" stroke-width="1"/>
    <text x="115" y="42" text-anchor="middle" font-family="Arial, sans-serif" font-size="7" fill="white" font-weight="bold">BIL</text>
    <!-- Speed lines -->
    <path d="M 135 35 L 150 32" stroke="#e74c3c" stroke-width="2"/>
    <path d="M 135 39 L 155 36" stroke="#e74c3c" stroke-width="2"/>
    <path d="M 135 43 L 150 46" stroke="#e74c3c" stroke-width="2"/>
    <!-- Obstacle -->
    <rect x="160" y="25" width="15" height="25" fill="#f39c12"/>
    <text x="167" y="38" text-anchor="middle" font-family="Arial, sans-serif" font-size="6" fill="white">HINDR.</text>
    <!-- Impact -->
    <g fill="#e74c3c" opacity="0.7">
      <polygon points="150,32 155,29 155,35"/>
      <polygon points="150,39 158,36 158,42"/>
    </g>
    <text x="0" y="70" font-family="Arial, sans-serif" font-size="11" fill="#2c3e50" font-weight="bold">Konsekvens:</text>
    <text x="0" y="85" font-family="Arial, sans-serif" font-size="10" fill="#7f8c8d">• Redusert reaksjonstid</text>
    <text x="0" y="100" font-family="Arial, sans-serif" font-size="10" fill="#7f8c8d">• Tap av kontroll</text>
    <text x="0" y="115" font-family="Arial, sans-serif" font-size="10" fill="#7f8c8d">• Kostnad: 5000-50000 kr</text>
  </g>
  
  <!-- Poor mirror usage -->
  <g transform="translate(400, 80)">
    <text x="0" y="0" font-family="Arial, sans-serif" font-size="14" font-weight="bold" fill="#e74c3c">Dårlig speilbruk</text>
    <!-- Car -->
    <rect x="80" y="30" width="30" height="18" fill="#e74c3c" stroke="#c0392b" stroke-width="1"/>
    <text x="95" y="42" text-anchor="middle" font-family="Arial, sans-serif" font-size="7" fill="white" font-weight="bold">BIL</text>
    <!-- Mirrors -->
    <rect x="75" y="32" width="4" height="3" fill="#34495e"/>
    <rect x="111" y="32" width="4" height="3" fill="#34495e"/>
    <!-- Blind spot -->
    <ellipse cx="130" cy="39" rx="20" ry="15" fill="#e74c3c" opacity="0.3"/>
    <text x="130" y="42" text-anchor="middle" font-family="Arial, sans-serif" font-size="8" fill="#e74c3c" font-weight="bold">BLINDSONE</text>
    <!-- Pedestrian in blind spot -->
    <circle cx="140" cy="35" r="3" fill="#2c3e50"/>
    <rect x="138" y="38" width="4" height="8" fill="#2c3e50"/>
    <text x="0" y="70" font-family="Arial, sans-serif" font-size="11" fill="#2c3e50" font-weight="bold">Konsekvens:</text>
    <text x="0" y="85" font-family="Arial, sans-serif" font-size="10" fill="#7f8c8d">• Økt blindsonerisiko</text>
    <text x="0" y="100" font-family="Arial, sans-serif" font-size="10" fill="#7f8c8d">• Kollisjoner med fotgjengere</text>
    <text x="0" y="115" font-family="Arial, sans-serif" font-size="10" fill="#7f8c8d">• Personskade ansvar</text>
  </g>
  
  <!-- Wrong distance to curb -->
  <g transform="translate(50, 220)">
    <text x="0" y="0" font-family="Arial, sans-serif" font-size="14" font-weight="bold" fill="#e74c3c">Feil avstand til kantstein</text>
    <!-- Road -->
    <rect x="0" y="40" width="200" height="40" fill="#95a5a6"/>
    <!-- Curb -->
    <rect x="0" y="80" width="200" height="8" fill="#7f8c8d"/>
    <!-- Car too close -->
    <rect x="50" y="45" width="30" height="18" fill="#e74c3c" stroke="#c0392b" stroke-width="1"/>
    <text x="65" y="56" text-anchor="middle" font-family="Arial, sans-serif" font-size="7" fill="white" font-weight="bold">BIL</text>
    <!-- Wheel touching curb -->
    <circle cx="47" cy="70" r="4" fill="#2c3e50"/>
    <circle cx="83" cy="70" r="4" fill="#2c3e50"/>
    <!-- Damage indication -->
    <path d="M 43 74 L 51 74" stroke="#e74c3c" stroke-width="3"/>
    <text x="45" y="90" font-family="Arial, sans-serif" font-size="8" fill="#e74c3c">SKADE</text>
    <text x="0" y="110" font-family="Arial, sans-serif" font-size="11" fill="#2c3e50" font-weight="bold">Konsekvens:</text>
    <text x="0" y="125" font-family="Arial, sans-serif" font-size="10" fill="#7f8c8d">• Skade på felg/dekk</text>
    <text x="0" y="140" font-family="Arial, sans-serif" font-size="10" fill="#7f8c8d">• Kostnad: 2000-5000 kr</text>
  </g>
  
  <!-- Handicap parking violation -->
  <g transform="translate(400, 220)">
    <text x="0" y="0" font-family="Arial, sans-serif" font-size="14" font-weight="bold" fill="#e74c3c">Parkering i handikapplass</text>
    <!-- Parking space -->
    <rect x="50" y="40" width="80" height="40" fill="#3498db" opacity="0.3"/>
    <!-- Handicap symbol on ground -->
    <g transform="translate(90, 60)" fill="white" stroke="white" stroke-width="1">
      <circle cx="0" cy="-5" r="3"/>
      <rect x="-2" y="-2" width="4" height="8"/>
      <rect x="-5" y="3" width="10" height="3"/>
      <circle cx="10" cy="5" r="2"/>
    </g>
    <!-- Regular car -->
    <rect x="60" y="45" width="30" height="18" fill="#2c3e50"/>
    <text x="75" y="56" text-anchor="middle" font-family="Arial, sans-serif" font-size="7" fill="white" font-weight="bold">BIL</text>
    <!-- Fine notice -->
    <rect x="140" y="40" width="25" height="15" fill="#f39c12"/>
    <text x="152" y="50" text-anchor="middle" font-family="Arial, sans-serif" font-size="6" fill="#2c3e50">BOT</text>
    <text x="0" y="100" font-family="Arial, sans-serif" font-size="11" fill="#2c3e50" font-weight="bold">Konsekvens:</text>
    <text x="0" y="115" font-family="Arial, sans-serif" font-size="10" fill="#7f8c8d">• Bot: 970 kr</text>
    <text x="0" y="130" font-family="Arial, sans-serif" font-size="10" fill="#7f8c8d">• Mulig berging</text>
    <text x="0" y="145" font-family="Arial, sans-serif" font-size="10" fill="#7f8c8d">• Redusert tilgjengelighet</text>
  </g>
  
  <!-- Forgetting handbrake on hill -->
  <g transform="translate(50, 360)">
    <text x="0" y="0" font-family="Arial, sans-serif" font-size="14" font-weight="bold" fill="#e74c3c">Glemmer håndbrekk i bakke</text>
    <!-- Sloped road -->
    <path d="M 20 80 L 150 40" stroke="#7f8c8d" stroke-width="8"/>
    <!-- Car rolling down -->
    <g transform="rotate(-15 100 55)">
      <rect x="85" y="50" width="30" height="18" fill="#e74c3c" stroke="#c0392b" stroke-width="1"/>
      <text x="100" y="61" text-anchor="middle" font-family="Arial, sans-serif" font-size="7" fill="white" font-weight="bold">BIL</text>
    </g>
    <!-- Motion lines -->
    <path d="M 70 75 L 65 80" stroke="#e74c3c" stroke-width="2" stroke-dasharray="3,3"/>
    <path d="M 75 78 L 70 83" stroke="#e74c3c" stroke-width="2" stroke-dasharray="3,3"/>
    <!-- Other cars/property -->
    <rect x="30" y="90" width="25" height="15" fill="#34495e"/>
    <text x="42" y="100" text-anchor="middle" font-family="Arial, sans-serif" font-size="6" fill="white">ANNEN BIL</text>
    <text x="0" y="120" font-family="Arial, sans-serif" font-size="11" fill="#2c3e50" font-weight="bold">Konsekvens:</text>
    <text x="0" y="135" font-family="Arial, sans-serif" font-size="10" fill="#7f8c8d">• Potensiell totalskade</text>
    <text x="0" y="150" font-family="Arial, sans-serif" font-size="10" fill="#7f8c8d">• Personskade</text>
    <text x="0" y="165" font-family="Arial, sans-serif" font-size="10" fill="#7f8c8d">• Forsikringskonsekvenser</text>
  </g>
  
  <!-- Blocking others -->
  <g transform="translate(400, 360)">
    <text x="0" y="0" font-family="Arial, sans-serif" font-size="14" font-weight="bold" fill="#e74c3c">Blokkerer andre</text>
    <!-- Road -->
    <rect x="0" y="40" width="200" height="60" fill="#95a5a6"/>
    <!-- Properly parked cars -->
    <rect x="20" y="50" width="25" height="15" fill="#34495e"/>
    <rect x="140" y="50" width="25" height="15" fill="#34495e"/>
    <!-- Badly parked car (blocking) -->
    <rect x="60" y="45" width="30" height="25" fill="#e74c3c" stroke="#c0392b" stroke-width="1"/>
    <text x="75" y="59" text-anchor="middle" font-family="Arial, sans-serif" font-size="7" fill="white" font-weight="bold">BIL</text>
    <!-- Car trying to get out -->
    <rect x="120" y="75" width="25" height="15" fill="#f39c12"/>
    <path d="M 145 82 L 155 82" stroke="#2c3e50" stroke-width="2" fill="none"/>
    <text x="132" y="85" text-anchor="middle" font-family="Arial, sans-serif" font-size="6" fill="#2c3e50">SPERRET</text>
    <!-- Tow truck -->
    <rect x="180" y="20" width="20" height="12" fill="#e67e22"/>
    <text x="190" y="28" text-anchor="middle" font-family="Arial, sans-serif" font-size="5" fill="white">BERGING</text>
    <text x="0" y="120" font-family="Arial, sans-serif" font-size="11" fill="#2c3e50" font-weight="bold">Konsekvens:</text>
    <text x="0" y="135" font-family="Arial, sans-serif" font-size="10" fill="#7f8c8d">• Bot + berging</text>
    <text x="0" y="150" font-family="Arial, sans-serif" font-size="10" fill="#7f8c8d">• Kostnad: 1500-3000 kr</text>
    <text x="0" y="165" font-family="Arial, sans-serif" font-size="10" fill="#7f8c8d">• Frustrasjon hos andre</text>
  </g>
  
  <!-- Prevention tips -->
  <g transform="translate(50, 520)">
    <text x="0" y="0" font-family="Arial, sans-serif" font-size="16" font-weight="bold" fill="#27ae60">Forebyggende tiltak</text>
    <rect x="0" y="10" width="700" height="60" fill="#e8f5e8" stroke="#27ae60" stroke-width="2"/>
    
    <text x="10" y="25" font-family="Arial, sans-serif" font-size="11" fill="#2c3e50" font-weight="bold">✓ Øv regelmessig i trygt miljø</text>
    <text x="10" y="40" font-family="Arial, sans-serif" font-size="10" fill="#2c3e50">Bygg ferdigheter gradvis på tom parkeringsplass</text>
    
    <text x="250" y="25" font-family="Arial, sans-serif" font-size="11" fill="#2c3e50" font-weight="bold">✓ Bruk sjekkliste</text>
    <text x="250" y="40" font-family="Arial, sans-serif" font-size="10" fill="#2c3e50">Speil, hastighet, håndbrekk, hjulstilling</text>
    
    <text x="450" y="25" font-family="Arial, sans-serif" font-size="11" fill="#2c3e50" font-weight="bold">✓ Ta deg god tid</text>
    <text x="450" y="40" font-family="Arial, sans-serif" font-size="10" fill="#2c3e50">Stress fører til feil og ulykker</text>
    
    <text x="10" y="60" font-family="Arial, sans-serif" font-size="11" fill="#2c3e50" font-weight="bold">✓ Les skilting nøye</text>
    <text x="250" y="60" font-family="Arial, sans-serif" font-size="11" fill="#2c3e50" font-weight="bold">✓ Respekter andre trafikanter</text>
    <text x="450" y="60" font-family="Arial, sans-serif" font-size="11" fill="#2c3e50" font-weight="bold">✓ Bruk teknologi som supplement</text>
  </g>
</svg>