<svg width="500" height="350" xmlns="http://www.w3.org/2000/svg">
  <!-- Background -->
  <rect width="500" height="350" fill="#f9f9f9"/>
  
  <!-- Title -->
  <text x="250" y="25" text-anchor="middle" font-family="Arial, sans-serif" font-size="18" font-weight="bold" fill="#2c5530">
    Hastighet og drivstofforbruk
  </text>
  
  <!-- Chart background -->
  <rect x="80" y="50" width="350" height="200" fill="white" stroke="#ccc" stroke-width="1"/>
  
  <!-- Grid lines -->
  <g stroke="#e0e0e0" stroke-width="0.5">
    <line x1="80" y1="80" x2="430" y2="80"/>
    <line x1="80" y1="110" x2="430" y2="110"/>
    <line x1="80" y1="140" x2="430" y2="140"/>
    <line x1="80" y1="170" x2="430" y2="170"/>
    <line x1="80" y1="200" x2="430" y2="200"/>
    <line x1="80" y1="230" x2="430" y2="230"/>
    
    <line x1="120" y1="50" x2="120" y2="250"/>
    <line x1="160" y1="50" x2="160" y2="250"/>
    <line x1="200" y1="50" x2="200" y2="250"/>
    <line x1="240" y1="50" x2="240" y2="250"/>
    <line x1="280" y1="50" x2="280" y2="250"/>
    <line x1="320" y1="50" x2="320" y2="250"/>
    <line x1="360" y1="50" x2="360" y2="250"/>
    <line x1="400" y1="50" x2="400" y2="250"/>
  </g>
  
  <!-- Y-axis labels (fuel consumption increase) -->
  <text x="75" y="55" text-anchor="end" font-family="Arial, sans-serif" font-size="10" fill="#666">+40%</text>
  <text x="75" y="85" text-anchor="end" font-family="Arial, sans-serif" font-size="10" fill="#666">+30%</text>
  <text x="75" y="115" text-anchor="end" font-family="Arial, sans-serif" font-size="10" fill="#666">+20%</text>
  <text x="75" y="145" text-anchor="end" font-family="Arial, sans-serif" font-size="10" fill="#666">+10%</text>
  <text x="75" y="175" text-anchor="end" font-family="Arial, sans-serif" font-size="10" fill="#666">0%</text>
  <text x="75" y="205" text-anchor="end" font-family="Arial, sans-serif" font-size="10" fill="#666">-10%</text>
  <text x="75" y="235" text-anchor="end" font-family="Arial, sans-serif" font-size="10" fill="#666">-20%</text>
  
  <!-- X-axis labels (speed) -->
  <text x="120" y="270" text-anchor="middle" font-family="Arial, sans-serif" font-size="10" fill="#666">40</text>
  <text x="160" y="270" text-anchor="middle" font-family="Arial, sans-serif" font-size="10" fill="#666">50</text>
  <text x="200" y="270" text-anchor="middle" font-family="Arial, sans-serif" font-size="10" fill="#666">60</text>
  <text x="240" y="270" text-anchor="middle" font-family="Arial, sans-serif" font-size="10" fill="#666">70</text>
  <text x="280" y="270" text-anchor="middle" font-family="Arial, sans-serif" font-size="10" fill="#666">80</text>
  <text x="320" y="270" text-anchor="middle" font-family="Arial, sans-serif" font-size="10" fill="#666">90</text>
  <text x="360" y="270" text-anchor="middle" font-family="Arial, sans-serif" font-size="10" fill="#666">100</text>
  <text x="400" y="270" text-anchor="middle" font-family="Arial, sans-serif" font-size="10" fill="#666">110</text>
  
  <!-- Axis labels -->
  <text x="255" y="295" text-anchor="middle" font-family="Arial, sans-serif" font-size="12" fill="#666">Hastighet (km/t)</text>
  <text x="25" y="150" text-anchor="middle" font-family="Arial, sans-serif" font-size="12" fill="#666" transform="rotate(-90 25 150)">Økt drivstofforbruk (%)</text>
  
  <!-- Curve showing fuel consumption -->
  <path d="M 120 220 Q 160 210 200 200 Q 240 190 280 175 L 320 140 L 360 110 L 400 75" 
        stroke="#f44336" stroke-width="3" fill="none"/>
  
  <!-- Optimal zone highlighting -->
  <rect x="160" y="50" width="120" height="200" fill="#4CAF50" opacity="0.1"/>
  <text x="220" y="45" text-anchor="middle" font-family="Arial, sans-serif" font-size="10" font-weight="bold" fill="#2E7D32">
    Optimal sone
  </text>
  
  <!-- Data points -->
  <circle cx="120" cy="220" r="3" fill="#f44336"/>
  <circle cx="160" cy="205" r="3" fill="#f44336"/>
  <circle cx="200" cy="195" r="3" fill="#f44336"/>
  <circle cx="240" cy="185" r="3" fill="#f44336"/>
  <circle cx="280" cy="175" r="3" fill="#f44336"/>
  <circle cx="320" cy="140" r="3" fill="#f44336"/>
  <circle cx="360" cy="110" r="3" fill="#f44336"/>
  <circle cx="400" cy="75" r="3" fill="#f44336"/>
  
  <!-- Legend -->
  <g transform="translate(50, 300)">
    <rect x="0" y="0" width="15" height="3" fill="#f44336"/>
    <text x="20" y="8" font-family="Arial, sans-serif" font-size="11" fill="#666">Drivstofforbruk</text>
    
    <rect x="120" y="0" width="15" height="8" fill="#4CAF50" opacity="0.1"/>
    <text x="140" y="8" font-family="Arial, sans-serif" font-size="11" fill="#666">Optimal hastighetsområde</text>
  </g>
  
  <!-- Key insight -->
  <text x="250" y="330" text-anchor="middle" font-family="Arial, sans-serif" font-size="12" font-weight="bold" fill="#2c5530">
    Mest effektiv hastighet: 50-80 km/t
  </text>
</svg>