<svg width="800" height="500" xmlns="http://www.w3.org/2000/svg">
  <!-- Background -->
  <rect width="800" height="500" fill="#f8f9fa"/>
  
  <!-- Title -->
  <text x="400" y="30" text-anchor="middle" font-family="Arial" font-size="24" font-weight="bold" fill="#2c3e50">
    Kollisjonssoner og energiabsorbering
  </text>
  
  <!-- Car side view -->
  <g transform="translate(50, 100)">
    <!-- Front crumple zone -->
    <rect x="50" y="150" width="120" height="100" fill="#e74c3c" opacity="0.6" stroke="#c0392b" stroke-width="2" rx="10"/>
    <text x="110" y="190" text-anchor="middle" font-family="Arial" font-size="12" font-weight="bold" fill="#c0392b">FRONT</text>
    <text x="110" y="205" text-anchor="middle" font-family="Arial" font-size="12" font-weight="bold" fill="#c0392b">DEFORMASJON</text>
    <text x="110" y="220" text-anchor="middle" font-family="Arial" font-size="10" fill="#c0392b">Absorberer energi</text>
    
    <!-- Safety cell -->
    <rect x="170" y="120" width="280" height="160" fill="#27ae60" opacity="0.6" stroke="#229954" stroke-width="3" rx="15"/>
    <text x="310" y="190" text-anchor="middle" font-family="Arial" font-size="16" font-weight="bold" fill="#229954">SIKKER KUPÉ</text>
    <text x="310" y="210" text-anchor="middle" font-family="Arial" font-size="12" fill="#229954">Stiv konstruksjon</text>
    <text x="310" y="225" text-anchor="middle" font-family="Arial" font-size="12" fill="#229954">beskytter passasjerer</text>
    
    <!-- Rear crumple zone -->
    <rect x="450" y="150" width="120" height="100" fill="#f39c12" opacity="0.6" stroke="#d68910" stroke-width="2" rx="10"/>
    <text x="510" y="190" text-anchor="middle" font-family="Arial" font-size="12" font-weight="bold" fill="#d68910">BAK</text>
    <text x="510" y="205" text-anchor="middle" font-family="Arial" font-size="12" font-weight="bold" fill="#d68910">DEFORMASJON</text>
    <text x="510" y="220" text-anchor="middle" font-family="Arial" font-size="10" fill="#d68910">Absorberer energi</text>
    
    <!-- Car outline -->
    <path d="M60 250 L180 250 L180 200 L200 180 L400 180 L420 200 L420 250 L560 250 L560 220 L580 220 L580 250 L560 250 L560 280 L580 280 L580 310 L560 310 L560 280 L420 280 L420 310 L180 310 L180 280 L60 280 Z" 
          fill="none" stroke="#2c3e50" stroke-width="3"/>
    
    <!-- Wheels -->
    <circle cx="150" cy="310" r="25" fill="#2c3e50"/>
    <circle cx="490" cy="310" r="25" fill="#2c3e50"/>
    <circle cx="150" cy="310" r="15" fill="#95a5a6"/>
    <circle cx="490" cy="310" r="15" fill="#95a5a6"/>
    
    <!-- Windshield and windows -->
    <polygon points="200,180 220,160 380,160 400,180" fill="#d5dbdb" stroke="#2c3e50" stroke-width="2"/>
    <rect x="240" y="180" width="40" height="70" fill="#d5dbdb" stroke="#2c3e50" stroke-width="2"/>
    <rect x="300" y="180" width="40" height="70" fill="#d5dbdb" stroke="#2c3e50" stroke-width="2"/>
    <rect x="360" y="180" width="40" height="70" fill="#d5dbdb" stroke="#2c3e50" stroke-width="2"/>
  </g>
  
  <!-- Energy arrows -->
  <g>
    <!-- Front impact -->
    <path d="M30 200 L80 200" stroke="#e74c3c" stroke-width="4" fill="none" marker-end="url(#arrowRed)"/>
    <text x="55" y="190" text-anchor="middle" font-family="Arial" font-size="12" font-weight="bold" fill="#e74c3c">STØT</text>
    
    <!-- Rear impact -->
    <path d="M670 200 L620 200" stroke="#f39c12" stroke-width="4" fill="none" marker-end="url(#arrowOrange)"/>
    <text x="645" y="190" text-anchor="middle" font-family="Arial" font-size="12" font-weight="bold" fill="#f39c12">STØT</text>
  </g>
  
  <!-- Arrows definition -->
  <defs>
    <marker id="arrowRed" markerWidth="10" markerHeight="7" refX="9" refY="3.5" orient="auto">
      <polygon points="0 0, 10 3.5, 0 7" fill="#e74c3c"/>
    </marker>
    <marker id="arrowOrange" markerWidth="10" markerHeight="7" refX="9" refY="3.5" orient="auto">
      <polygon points="0 0, 10 3.5, 0 7" fill="#f39c12"/>
    </marker>
  </defs>
  
  <!-- Structural elements -->
  <g transform="translate(50, 280)">
    <!-- A-pillar -->
    <rect x="195" y="100" width="8" height="80" fill="#2c3e50"/>
    <text x="199" y="95" text-anchor="middle" font-family="Arial" font-size="10" font-weight="bold" fill="#2c3e50">A</text>
    
    <!-- B-pillar -->
    <rect x="295" y="100" width="10" height="80" fill="#2c3e50"/>
    <text x="300" y="95" text-anchor="middle" font-family="Arial" font-size="10" font-weight="bold" fill="#2c3e50">B</text>
    
    <!-- C-pillar -->
    <rect x="395" y="100" width="8" height="80" fill="#2c3e50"/>
    <text x="399" y="95" text-anchor="middle" font-family="Arial" font-size="10" font-weight="bold" fill="#2c3e50">C</text>
    
    <!-- Side impact protection -->
    <rect x="170" y="130" width="280" height="6" fill="#9b59b6"/>
    <rect x="170" y="150" width="280" height="6" fill="#9b59b6"/>
    <text x="310" y="125" text-anchor="middle" font-family="Arial" font-size="10" fill="#9b59b6">Sidekollisjonsbeskyttelse</text>
  </g>
  
  <!-- Energy absorption graph -->
  <g transform="translate(50, 380)">
    <rect x="0" y="0" width="700" height="100" fill="#fff" stroke="#bdc3c7" stroke-width="1" rx="10"/>
    <text x="350" y="20" text-anchor="middle" font-family="Arial" font-size="16" font-weight="bold" fill="#2c3e50">
      Energiabsorbering ved kollisjon
    </text>
    
    <!-- Graph axes -->
    <line x1="50" y1="80" x2="650" y2="80" stroke="#34495e" stroke-width="2"/>
    <line x1="50" y1="30" x2="50" y2="80" stroke="#34495e" stroke-width="2"/>
    
    <!-- Energy curve -->
    <path d="M50 80 Q150 40 250 45 Q350 50 450 52 Q550 58 650 75" 
          stroke="#e74c3c" stroke-width="3" fill="none"/>
    
    <!-- Zone markers -->
    <text x="125" y="95" text-anchor="middle" font-family="Arial" font-size="10" fill="#e74c3c">Front deformasjon</text>
    <text x="350" y="95" text-anchor="middle" font-family="Arial" font-size="10" fill="#27ae60">Sikker kupé</text>
    <text x="575" y="95" text-anchor="middle" font-family="Arial" font-size="10" fill="#f39c12">Bak deformasjon</text>
    
    <!-- Y-axis label -->
    <text x="20" y="55" text-anchor="middle" font-family="Arial" font-size="10" fill="#34495e" transform="rotate(-90 20 55)">Energi</text>
    
    <!-- Key points -->
    <circle cx="150" cy="40" r="3" fill="#e74c3c"/>
    <circle cx="350" cy="50" r="3" fill="#27ae60"/>
    <circle cx="550" cy="58" r="3" fill="#f39c12"/>
  </g>
</svg>