<svg width="800" height="600" viewBox="0 0 800 600" xmlns="http://www.w3.org/2000/svg">
  <!-- Background -->
  <rect width="800" height="600" fill="#f8f9fa"/>
  
  <!-- Title -->
  <text x="400" y="30" text-anchor="middle" font-family="Arial, sans-serif" font-size="24" font-weight="bold" fill="#2c3e50">
    Stressmestring ved Parkering
  </text>
  
  <!-- Stress factors section -->
  <g transform="translate(50, 80)">
    <text x="150" y="20" text-anchor="middle" font-family="Arial, sans-serif" font-size="18" font-weight="bold" fill="#e74c3c">
      Vanlige Stressfaktorer
    </text>
    
    <!-- Time pressure -->
    <g transform="translate(0, 40)">
      <circle cx="30" cy="30" r="25" fill="#e74c3c" opacity="0.8"/>
      <circle cx="30" cy="30" r="15" fill="#fff"/>
      <circle cx="30" cy="30" r="2" fill="#e74c3c"/>
      <line x1="30" y1="30" x2="30" y2="20" stroke="#e74c3c" stroke-width="2"/>
      <line x1="30" y1="30" x2="35" y2="30" stroke="#e74c3c" stroke-width="2"/>
      <text x="80" y="25" font-family="Arial, sans-serif" font-size="14" font-weight="bold" fill="#2c3e50">Tidspress</text>
      <text x="80" y="40" font-family="Arial, sans-serif" font-size="11" fill="#7f8c8d">Følelsen av å være sent ute</text>
    </g>
    
    <!-- Audience pressure -->
    <g transform="translate(0, 100)">
      <circle cx="30" cy="30" r="25" fill="#f39c12" opacity="0.8"/>
      <circle cx="20" cy="25" r="4" fill="#fff"/>
      <circle cx="40" cy="25" r="4" fill="#fff"/>
      <circle cx="30" cy="35" r="8" fill="#fff"/>
      <text x="80" y="25" font-family="Arial, sans-serif" font-size="14" font-weight="bold" fill="#2c3e50">Publikum</text>
      <text x="80" y="40" font-family="Arial, sans-serif" font-size="11" fill="#7f8c8d">Andre som venter og observerer</text>
    </g>
    
    <!-- Complex situations -->
    <g transform="translate(0, 160)">
      <circle cx="30" cy="30" r="25" fill="#9b59b6" opacity="0.8"/>
      <rect x="18" y="18" width="24" height="24" rx="4" fill="#fff"/>
      <rect x="22" y="22" width="16" height="16" rx="2" fill="#9b59b6"/>
      <text x="80" y="25" font-family="Arial, sans-serif" font-size="14" font-weight="bold" fill="#2c3e50">Kompleksitet</text>
      <text x="80" y="40" font-family="Arial, sans-serif" font-size="11" fill="#7f8c8d">Trange plasser, dårlige forhold</text>
    </g>
    
    <!-- Fear of consequences -->
    <g transform="translate(0, 220)">
      <circle cx="30" cy="30" r="25" fill="#e67e22" opacity="0.8"/>
      <path d="M 20 35 L 30 20 L 40 35 Z" fill="#fff"/>
      <circle cx="30" cy="32" r="2" fill="#e67e22"/>
      <text x="80" y="25" font-family="Arial, sans-serif" font-size="14" font-weight="bold" fill="#2c3e50">Konsekvensangst</text>
      <text x="80" y="40" font-family="Arial, sans-serif" font-size="11" fill="#7f8c8d">Redsel for å skade bil eller eiendom</text>
    </g>
  </g>
  
  <!-- Coping strategies section -->
  <g transform="translate(400, 80)">
    <text x="150" y="20" text-anchor="middle" font-family="Arial, sans-serif" font-size="18" font-weight="bold" fill="#27ae60">
      Mestringsstrategier
    </text>
    
    <!-- Mental preparation -->
    <g transform="translate(0, 40)">
      <rect x="0" y="0" width="300" height="50" rx="8" fill="#3498db" opacity="0.1"/>
      <circle cx="25" cy="25" r="15" fill="#3498db"/>
      <path d="M 20 20 L 25 15 L 30 20 L 25 30 Z" fill="#fff"/>
      <text x="50" y="20" font-family="Arial, sans-serif" font-size="14" font-weight="bold" fill="#2c3e50">Mental Forberedelse</text>
      <text x="50" y="35" font-family="Arial, sans-serif" font-size="11" fill="#7f8c8d">Planlegg rute og parkeringsmuligheter</text>
    </g>
    
    <!-- Time management -->
    <g transform="translate(0, 100)">
      <rect x="0" y="0" width="300" height="50" rx="8" fill="#27ae60" opacity="0.1"/>
      <circle cx="25" cy="25" r="15" fill="#27ae60"/>
      <circle cx="25" cy="25" r="8" fill="#fff"/>
      <circle cx="25" cy="25" r="1" fill="#27ae60"/>
      <line x1="25" y1="25" x2="25" y2="19" stroke="#27ae60" stroke-width="1"/>
      <line x1="25" y1="25" x2="29" y2="25" stroke="#27ae60" stroke-width="1"/>
      <text x="50" y="20" font-family="Arial, sans-serif" font-size="14" font-weight="bold" fill="#2c3e50">Tidsstyring</text>
      <text x="50" y="35" font-family="Arial, sans-serif" font-size="11" fill="#7f8c8d">Avsett nok tid til parkeringsmanøveren</text>
    </g>
    
    <!-- Practice -->
    <g transform="translate(0, 160)">
      <rect x="0" y="0" width="300" height="50" rx="8" fill="#f39c12" opacity="0.1"/>
      <circle cx="25" cy="25" r="15" fill="#f39c12"/>
      <rect x="18" y="18" width="14" height="14" rx="2" fill="#fff"/>
      <circle cx="22" cy="22" r="1" fill="#f39c12"/>
      <circle cx="28" cy="22" r="1" fill="#f39c12"/>
      <circle cx="22" cy="28" r="1" fill="#f39c12"/>
      <circle cx="28" cy="28" r="1" fill="#f39c12"/>
      <text x="50" y="20" font-family="Arial, sans-serif" font-size="14" font-weight="bold" fill="#2c3e50">Regelmessig Øving</text>
      <text x="50" y="35" font-family="Arial, sans-serif" font-size="11" fill="#7f8c8d">Øv i trygge omgivelser uten press</text>
    </g>
    
    <!-- Breathing techniques -->
    <g transform="translate(0, 220)">
      <rect x="0" y="0" width="300" height="50" rx="8" fill="#9b59b6" opacity="0.1"/>
      <circle cx="25" cy="25" r="15" fill="#9b59b6"/>
      <ellipse cx="25" cy="25" rx="8" ry="6" fill="#fff"/>
      <ellipse cx="25" cy="25" rx="4" ry="3" fill="#9b59b6"/>
      <text x="50" y="20" font-family="Arial, sans-serif" font-size="14" font-weight="bold" fill="#2c3e50">Pusteøvelser</text>
      <text x="50" y="35" font-family="Arial, sans-serif" font-size="11" fill="#7f8c8d">Dype, rolige åndedrag under stress</text>
    </g>
  </g>
  
  <!-- Progressive learning levels -->
  <g transform="translate(50, 380)">
    <text x="350" y="20" text-anchor="middle" font-family="Arial, sans-serif" font-size="18" font-weight="bold" fill="#2c3e50">
      Progresjon i Parkeringsopplæring
    </text>
    
    <!-- Level 1 -->
    <g transform="translate(0, 50)">
      <circle cx="30" cy="30" r="20" fill="#95a5a6"/>
      <text x="30" y="36" text-anchor="middle" font-family="Arial, sans-serif" font-size="16" font-weight="bold" fill="#fff">1</text>
      <text x="70" y="25" font-family="Arial, sans-serif" font-size="14" font-weight="bold" fill="#2c3e50">Grunnleggende</text>
      <text x="70" y="40" font-family="Arial, sans-serif" font-size="11" fill="#7f8c8d">Store åpne plasser, kjegler</text>
    </g>
    
    <!-- Arrow -->
    <path d="M 180 80 L 210 80 M 200 70 L 210 80 L 200 90" stroke="#bdc3c7" stroke-width="2" fill="none"/>
    
    <!-- Level 2 -->
    <g transform="translate(230, 50)">
      <circle cx="30" cy="30" r="20" fill="#3498db"/>
      <text x="30" y="36" text-anchor="middle" font-family="Arial, sans-serif" font-size="16" font-weight="bold" fill="#fff">2</text>
      <text x="70" y="25" font-family="Arial, sans-serif" font-size="14" font-weight="bold" fill="#2c3e50">Realistiske forhold</text>
      <text x="70" y="40" font-family="Arial, sans-serif" font-size="11" fill="#7f8c8d">Andre biler, normale plasser</text>
    </g>
    
    <!-- Arrow -->
    <path d="M 410 80 L 440 80 M 430 70 L 440 80 L 430 90" stroke="#bdc3c7" stroke-width="2" fill="none"/>
    
    <!-- Level 3 -->
    <g transform="translate(460, 50)">
      <circle cx="30" cy="30" r="20" fill="#f39c12"/>
      <text x="30" y="36" text-anchor="middle" font-family="Arial, sans-serif" font-size="16" font-weight="bold" fill="#fff">3</text>
      <text x="70" y="25" font-family="Arial, sans-serif" font-size="14" font-weight="bold" fill="#2c3e50">Utfordrende</text>
      <text x="70" y="40" font-family="Arial, sans-serif" font-size="11" fill="#7f8c8d">Trange plasser, trafikk</text>
    </g>
    
    <!-- Level 4 arrow (down) -->
    <g transform="translate(650, 80)">
      <path d="M 0 0 L 0 30 M -10 20 L 0 30 L 10 20" stroke="#bdc3c7" stroke-width="2" fill="none"/>
    </g>
    
    <!-- Level 4 -->
    <g transform="translate(590, 120)">
      <circle cx="30" cy="30" r="20" fill="#27ae60"/>
      <text x="30" y="36" text-anchor="middle" font-family="Arial, sans-serif" font-size="16" font-weight="bold" fill="#fff">4</text>
      <text x="70" y="25" font-family="Arial, sans-serif" font-size="14" font-weight="bold" fill="#2c3e50">Ekspert-nivå</text>
      <text x="70" y="40" font-family="Arial, sans-serif" font-size="11" fill="#7f8c8d">Ekstreme forhold, natt</text>
    </g>
  </g>
  
  <!-- Tips box -->
  <g transform="translate(50, 520)">
    <rect x="0" y="0" width="700" height="60" rx="8" fill="#d5f4e6" stroke="#27ae60" stroke-width="2"/>
    <text x="20" y="25" font-family="Arial, sans-serif" font-size="14" font-weight="bold" fill="#27ae60">
      Viktige tips for stressmestring:
    </text>
    <text x="20" y="45" font-family="Arial, sans-serif" font-size="12" fill="#2c3e50">
      • Stopp og restart hvis manøveren ikke går som planlagt • Ignorer utålmodige andre sjåfører • Lær av hver feil
    </text>
  </g>
</svg>