<svg width="500" height="150" xmlns="http://www.w3.org/2000/svg">
  <!-- Background -->
  <rect width="500" height="150" fill="#f8f9fa"/>
  
  <!-- Title -->
  <text x="250" y="25" text-anchor="middle" font-family="Arial, sans-serif" font-size="18" font-weight="bold" fill="#2c3e50">
    Advarselsskilt - Eksempler
  </text>
  
  <!-- Dangerous curve -->
  <polygon points="70,55 90,105 50,105" fill="#f1c40f" stroke="#e74c3c" stroke-width="3"/>
  <path d="M 60 75 Q 70 65 80 75 Q 70 85 60 75" fill="none" stroke="#2c3e50" stroke-width="2"/>
  <polygon points="75,72 80,75 75,78" fill="#2c3e50"/>
  <text x="70" y="120" text-anchor="middle" font-family="Arial, sans-serif" font-size="10" fill="#2c3e50">Farlig</text>
  <text x="70" y="132" text-anchor="middle" font-family="Arial, sans-serif" font-size="10" fill="#2c3e50">sving</text>
  
  <!-- Children -->
  <polygon points="160,55 180,105 140,105" fill="#f1c40f" stroke="#e74c3c" stroke-width="3"/>
  <!-- Child figure -->
  <circle cx="155" cy="75" r="3" fill="#2c3e50"/>
  <rect x="153" y="78" width="4" height="8" fill="#2c3e50"/>
  <rect x="152" y="82" width="2" height="6" fill="#2c3e50"/>
  <rect x="156" y="82" width="2" height="6" fill="#2c3e50"/>
  <!-- Running child -->
  <circle cx="167" cy="75" r="3" fill="#2c3e50"/>
  <ellipse cx="165" cy="80" rx="2" ry="4" fill="#2c3e50"/>
  <line x1="163" y1="82" x2="161" y2="88" stroke="#2c3e50" stroke-width="1"/>
  <line x1="167" y1="82" x2="170" y2="88" stroke="#2c3e50" stroke-width="1"/>
  <text x="160" y="120" text-anchor="middle" font-family="Arial, sans-serif" font-size="10" fill="#2c3e50">Barn</text>
  
  <!-- Pedestrian crossing -->
  <polygon points="250,55 270,105 230,105" fill="#f1c40f" stroke="#e74c3c" stroke-width="3"/>
  <!-- Pedestrian on crossing -->
  <circle cx="250" cy="75" r="3" fill="#2c3e50"/>
  <rect x="248" y="78" width="4" height="8" fill="#2c3e50"/>
  <rect x="247" y="82" width="2" height="6" fill="#2c3e50"/>
  <rect x="251" y="82" width="2" height="6" fill="#2c3e50"/>
  <!-- Zebra stripes -->
  <rect x="240" y="88" width="20" height="2" fill="#2c3e50"/>
  <rect x="242" y="88" width="2" height="2" fill="#f1c40f"/>
  <rect x="246" y="88" width="2" height="2" fill="#f1c40f"/>
  <rect x="250" y="88" width="2" height="2" fill="#f1c40f"/>
  <rect x="254" y="88" width="2" height="2" fill="#f1c40f"/>
  <rect x="258" y="88" width="2" height="2" fill="#f1c40f"/>
  <text x="250" y="120" text-anchor="middle" font-family="Arial, sans-serif" font-size="10" fill="#2c3e50">Fotgjenger-</text>
  <text x="250" y="132" text-anchor="middle" font-family="Arial, sans-serif" font-size="10" fill="#2c3e50">krysning</text>
  
  <!-- Traffic light -->
  <polygon points="340,55 360,105 320,105" fill="#f1c40f" stroke="#e74c3c" stroke-width="3"/>
  <rect x="335" y="70" width="10" height="20" fill="#2c3e50"/>
  <circle cx="340" cy="75" r="2" fill="#e74c3c"/>
  <circle cx="340" cy="80" r="2" fill="#f1c40f"/>
  <circle cx="340" cy="85" r="2" fill="#27ae60"/>
  <text x="340" y="120" text-anchor="middle" font-family="Arial, sans-serif" font-size="10" fill="#2c3e50">Lyskryss</text>
  
  <!-- Railway crossing -->
  <polygon points="430,55 450,105 410,105" fill="#f1c40f" stroke="#e74c3c" stroke-width="3"/>
  <!-- Train -->
  <rect x="425" y="75" width="10" height="6" fill="#2c3e50"/>
  <rect x="422" y="77" width="3" height="2" fill="#2c3e50"/>
  <circle cx="427" cy="83" r="1" fill="#2c3e50"/>
  <circle cx="433" cy="83" r="1" fill="#2c3e50"/>
  <!-- Rails -->
  <line x1="420" y1="85" x2="440" y2="85" stroke="#2c3e50" stroke-width="1"/>
  <line x1="420" y1="87" x2="440" y2="87" stroke="#2c3e50" stroke-width="1"/>
  <text x="430" y="120" text-anchor="middle" font-family="Arial, sans-serif" font-size="10" fill="#2c3e50">Jernbane-</text>
  <text x="430" y="132" text-anchor="middle" font-family="Arial, sans-serif" font-size="10" fill="#2c3e50">krysning</text>
</svg>