<svg width="800" height="650" viewBox="0 0 800 650" xmlns="http://www.w3.org/2000/svg">
  <!-- Background -->
  <rect width="800" height="650" fill="#f8f9fa"/>
  
  <!-- Title -->
  <text x="400" y="40" text-anchor="middle" fill="#2c3e50" font-size="28" font-weight="bold">Fremtidens Trafikkskilt</text>
  
  <!-- AR/VR Display -->
  <g transform="translate(50, 70)">
    <text x="125" y="20" text-anchor="middle" fill="#2c3e50" font-size="16" font-weight="bold">Augmented Reality (AR)</text>
    
    <!-- Car windshield -->
    <path d="M 50 40 Q 125 30 200 40 L 190 120 Q 125 130 60 120 Z" fill="#e6f3ff" stroke="#3498db" stroke-width="3"/>
    
    <!-- AR overlay elements -->
    <!-- Speed limit overlay -->
    <circle cx="100" cy="70" r="15" fill="#ff4444" fill-opacity="0.8"/>
    <text x="100" y="76" text-anchor="middle" fill="#ffffff" font-size="12" font-weight="bold">60</text>
    
    <!-- Navigation arrow -->
    <polygon points="140,85 155,70 155,77 170,77 170,83 155,83 155,90" fill="#00ff00" fill-opacity="0.8"/>
    
    <!-- Warning indicator -->
    <polygon points="120,95 130,95 125,105" fill="#ffff00" fill-opacity="0.8"/>
    <text x="125" y="102" text-anchor="middle" fill="#000" font-size="8">!</text>
    
    <!-- Distance to exit -->
    <rect x="145" y="95" width="30" height="12" fill="#ffffff" fill-opacity="0.9"/>
    <text x="160" y="103" text-anchor="middle" fill="#000" font-size="8">500m</text>
    
    <text x="125" y="150" text-anchor="middle" fill="#666" font-size="12">Skilt projisert direkte i synsfeltet</text>
  </g>
  
  <!-- Smart Infrastructure -->
  <g transform="translate(300, 70)">
    <text x="125" y="20" text-anchor="middle" fill="#2c3e50" font-size="16" font-weight="bold">Smart Infrastruktur</text>
    
    <!-- Connected traffic lights -->
    <rect x="75" y="40" width="15" height="40" fill="#333"/>
    <circle cx="82" cy="50" r="4" fill="#ff0000"/>
    <circle cx="82" cy="60" r="4" fill="#ffff00"/>
    <circle cx="82" cy="70" r="4" fill="#00ff00"/>
    
    <!-- Communication waves -->
    <path d="M 100 60 Q 110 50 120 60 Q 130 70 140 60" fill="none" stroke="#3498db" stroke-width="2"/>
    <path d="M 105 60 Q 112 53 120 60 Q 128 67 135 60" fill="none" stroke="#3498db" stroke-width="1.5"/>
    
    <!-- Smart sign -->
    <rect x="150" y="45" width="60" height="30" fill="#000"/>
    <text x="180" y="58" text-anchor="middle" fill="#00ff00" font-size="10">OPTIMAL</text>
    <text x="180" y="70" text-anchor="middle" fill="#00ff00" font-size="10">HASTIGHET</text>
    
    <!-- Sensors -->
    <circle cx="60" cy="90" r="5" fill="#e74c3c"/>
    <circle cx="190" cy="90" r="5" fill="#e74c3c"/>
    <text x="125" y="110" text-anchor="middle" fill="#666" font-size="10">Sensorer</text>
    
    <text x="125" y="150" text-anchor="middle" fill="#666" font-size="12">AI-basert tilpasning til trafikken</text>
  </g>
  
  <!-- Vehicle-to-Infrastructure Communication -->
  <g transform="translate(550, 70)">
    <text x="100" y="20" text-anchor="middle" fill="#2c3e50" font-size="16" font-weight="bold">Bil-til-Infrastruktur</text>
    
    <!-- Car -->
    <rect x="50" y="50" width="40" height="20" fill="#34495e" rx="5"/>
    <circle cx="60" cy="75" r="6" fill="#000"/>
    <circle cx="80" cy="75" r="6" fill="#000"/>
    
    <!-- Communication signals -->
    <path d="M 70 40 Q 70 25 90 25 Q 110 25 110 40" fill="none" stroke="#9b59b6" stroke-width="2"/>
    <circle cx="110" cy="45" r="3" fill="#9b59b6"/>
    
    <!-- Infrastructure tower -->
    <rect x="108" y="45" width="4" height="25" fill="#666"/>
    <polygon points="105,45 115,45 110,35" fill="#666"/>
    
    <!-- Data flow -->
    <text x="100" y="100" text-anchor="middle" fill="#9b59b6" font-size="8">Sanntids-data</text>
    <text x="100" y="115" text-anchor="middle" fill="#666" font-size="10">• Hastighetsgrenser</text>
    <text x="100" y="125" text-anchor="middle" fill="#666" font-size="10">• Trafikkforhold</text>
    <text x="100" y="135" text-anchor="middle" fill="#666" font-size="10">• Værforhold</text>
    
    <text x="100" y="160" text-anchor="middle" fill="#666" font-size="12">Direkte kommunikasjon</text>
  </g>
  
  <!-- AI-powered adaptation -->
  <g transform="translate(50, 250)">
    <text x="150" y="20" text-anchor="middle" fill="#2c3e50" font-size="18" font-weight="bold">AI-Drevet Tilpasning</text>
    
    <!-- Central AI brain -->
    <circle cx="150" cy="70" r="30" fill="#9b59b6" fill-opacity="0.2" stroke="#9b59b6" stroke-width="3"/>
    <text x="150" y="76" text-anchor="middle" fill="#9b59b6" font-size="14" font-weight="bold">AI</text>
    
    <!-- Data inputs -->
    <g transform="translate(0, 70)">
      <!-- Weather -->
      <circle cx="50" cy="0" r="8" fill="#87ceeb"/>
      <text x="50" y="-15" text-anchor="middle" fill="#666" font-size="10">Vær</text>
      <path d="M 58 0 L 112 0" stroke="#666" stroke-width="1" marker-end="url(#arrow)"/>
      
      <!-- Traffic -->
      <rect x="45" y="30" width="10" height="6" fill="#e74c3c"/>
      <text x="50" y="45" text-anchor="middle" fill="#666" font-size="10">Trafikk</text>
      <path d="M 55 30 L 120 30" stroke="#666" stroke-width="1" marker-end="url(#arrow)"/>
      
      <!-- Time -->
      <circle cx="50" cy="70" r="8" fill="#f39c12"/>
      <text x="50" y="85" text-anchor="middle" fill="#666" font-size="10">Tid</text>
      <path d="M 58 70 L 112 70" stroke="#666" stroke-width="1" marker-end="url(#arrow)"/>
    </g>
    
    <!-- Outputs -->
    <g transform="translate(250, 70)">
      <!-- Speed adjustment -->
      <circle cx="0" cy="0" r="10" fill="#dc3545"/>
      <text x="0" y="4" text-anchor="middle" fill="#fff" font-size="8">80</text>
      <text x="0" y="-18" text-anchor="middle" fill="#666" font-size="10">Hastighet</text>
      <path d="M -12 0 L -38 0" stroke="#666" stroke-width="1" marker-end="url(#arrow)"/>
      
      <!-- Route optimization -->
      <polygon points="-5,35 5,35 0,45" fill="#28a745"/>
      <text x="0" y="55" text-anchor="middle" fill="#666" font-size="10">Rute</text>
      <path d="M -5 35 L -30 35" stroke="#666" stroke-width="1" marker-end="url(#arrow)"/>
      
      <!-- Warning level -->
      <polygon points="-5,65 5,65 0,75" fill="#ffc107"/>
      <text x="0" y="85" text-anchor="middle" fill="#666" font-size="10">Varsling</text>
      <path d="M -5 65 L -30 65" stroke="#666" stroke-width="1" marker-end="url(#arrow)"/>
    </g>
    
    <text x="150" y="140" text-anchor="middle" fill="#666" font-size="12">Kontinuerlig læring og optimalisering</text>
  </g>
  
  <!-- Personalized Information -->
  <g transform="translate(400, 250)">
    <text x="150" y="20" text-anchor="middle" fill="#2c3e50" font-size="18" font-weight="bold">Personalisert Informasjon</text>
    
    <!-- User profiles -->
    <g transform="translate(50, 40)">
      <circle cx="0" cy="0" r="15" fill="#3498db"/>
      <text x="0" y="4" text-anchor="middle" fill="#fff" font-size="12">👤</text>
      <text x="0" y="25" text-anchor="middle" fill="#666" font-size="10">Nybegynner</text>
      
      <circle cx="100" cy="0" r="15" fill="#e74c3c"/>
      <text x="100" y="4" text-anchor="middle" fill="#fff" font-size="12">👤</text>
      <text x="100" y="25" text-anchor="middle" fill="#666" font-size="10">Erfaren</text>
      
      <circle cx="200" cy="0" r="15" fill="#f39c12"/>
      <text x="200" y="4" text-anchor="middle" fill="#fff" font-size="12">👤</text>
      <text x="200" y="25" text-anchor="middle" fill="#666" font-size="10">Turist</text>
    </g>
    
    <!-- Customized displays -->
    <g transform="translate(50, 90)">
      <!-- Beginner -->
      <rect x="-20" y="0" width="40" height="25" fill="#ffffff" stroke="#3498db" stroke-width="2"/>
      <text x="0" y="10" text-anchor="middle" fill="#000" font-size="8">Detaljert</text>
      <text x="0" y="20" text-anchor="middle" fill="#000" font-size="8">forklaring</text>
      
      <!-- Experienced -->
      <rect x="80" y="0" width="40" height="25" fill="#ffffff" stroke="#e74c3c" stroke-width="2"/>
      <text x="100" y="15" text-anchor="middle" fill="#000" font-size="10">Kort info</text>
      
      <!-- Tourist -->
      <rect x="180" y="0" width="40" height="25" fill="#ffffff" stroke="#f39c12" stroke-width="2"/>
      <text x="200" y="10" text-anchor="middle" fill="#000" font-size="8">English</text>
      <text x="200" y="20" text-anchor="middle" fill="#000" font-size="8">Translation</text>
    </g>
    
    <text x="150" y="140" text-anchor="middle" fill="#666" font-size="12">Tilpasset brukerens behov og erfaring</text>
  </g>
  
  <!-- Integration Timeline -->
  <g transform="translate(50, 420)">
    <text x="350" y="20" text-anchor="middle" fill="#2c3e50" font-size="20" font-weight="bold">Implementeringstidslinje</text>
    
    <!-- Timeline -->
    <line x1="50" y1="60" x2="650" y2="60" stroke="#34495e" stroke-width="3"/>
    
    <!-- 2025 -->
    <circle cx="150" cy="60" r="5" fill="#3498db"/>
    <text x="150" y="45" text-anchor="middle" fill="#2c3e50" font-size="14" font-weight="bold">2025</text>
    <text x="150" y="80" text-anchor="middle" fill="#666" font-size="10">Flere digitale skilt</text>
    <text x="150" y="95" text-anchor="middle" fill="#666" font-size="10">V2I-kommunikasjon</text>
    
    <!-- 2030 -->
    <circle cx="300" cy="60" r="5" fill="#e74c3c"/>
    <text x="300" y="45" text-anchor="middle" fill="#2c3e50" font-size="14" font-weight="bold">2030</text>
    <text x="300" y="80" text-anchor="middle" fill="#666" font-size="10">AR i biler</text>
    <text x="300" y="95" text-anchor="middle" fill="#666" font-size="10">AI-optimalisering</text>
    
    <!-- 2035 -->
    <circle cx="450" cy="60" r="5" fill="#27ae60"/>
    <text x="450" y="45" text-anchor="middle" fill="#2c3e50" font-size="14" font-weight="bold">2035</text>
    <text x="450" y="80" text-anchor="middle" fill="#666" font-size="10">Personaliserte skilt</text>
    <text x="450" y="95" text-anchor="middle" fill="#666" font-size="10">Prediktiv varsling</text>
    
    <!-- 2040+ -->
    <circle cx="600" cy="60" r="5" fill="#9b59b6"/>
    <text x="600" y="45" text-anchor="middle" fill="#2c3e50" font-size="14" font-weight="bold">2040+</text>
    <text x="600" y="80" text-anchor="middle" fill="#666" font-size="10">Fullt integrerte</text>
    <text x="600" y="95" text-anchor="middle" fill="#666" font-size="10">transportsystemer</text>
  </g>
  
  <!-- Challenges -->
  <g transform="translate(50, 550)">
    <text x="300" y="20" text-anchor="middle" fill="#2c3e50" font-size="18" font-weight="bold">Utfordringer og løsninger</text>
    
    <g transform="translate(0, 40)">
      <!-- Privacy -->
      <rect x="0" y="0" width="150" height="40" fill="#fff3cd" stroke="#ffc107" stroke-width="2" rx="5"/>
      <text x="75" y="15" text-anchor="middle" fill="#856404" font-size="12" font-weight="bold">Personvern</text>
      <text x="75" y="30" text-anchor="middle" fill="#856404" font-size="10">Anonymiserte data</text>
      
      <!-- Standardization -->
      <rect x="170" y="0" width="150" height="40" fill="#d1ecf1" stroke="#bee5eb" stroke-width="2" rx="5"/>
      <text x="245" y="15" text-anchor="middle" fill="#0c5460" font-size="12" font-weight="bold">Standardisering</text>
      <text x="245" y="30" text-anchor="middle" fill="#0c5460" font-size="10">Internasjonale avtaler</text>
      
      <!-- Cost -->
      <rect x="340" y="0" width="150" height="40" fill="#f8d7da" stroke="#f5c6cb" stroke-width="2" rx="5"/>
      <text x="415" y="15" text-anchor="middle" fill="#721c24" font-size="12" font-weight="bold">Kostnad</text>
      <text x="415" y="30" text-anchor="middle" fill="#721c24" font-size="10">Gradvis implementering</text>
      
      <!-- Safety -->
      <rect x="510" y="0" width="150" height="40" fill="#d4edda" stroke="#c3e6cb" stroke-width="2" rx="5"/>
      <text x="585" y="15" text-anchor="middle" fill="#155724" font-size="12" font-weight="bold">Sikkerhet</text>
      <text x="585" y="30" text-anchor="middle" fill="#155724" font-size="10">Redundante systemer</text>
    </g>
  </g>
  
  <!-- Arrow markers -->
  <defs>
    <marker id="arrow" markerWidth="10" markerHeight="7" refX="10" refY="3.5" orient="auto">
      <polygon points="0 0, 10 3.5, 0 7" fill="#666"/>
    </marker>
  </defs>
</svg>