<svg width="600" height="400" xmlns="http://www.w3.org/2000/svg">
  <defs>
    <linearGradient id="nightCommGrad" x1="0%" y1="0%" x2="100%" y2="100%">
      <stop offset="0%" style="stop-color:#0a0a1e;stop-opacity:1" />
      <stop offset="100%" style="stop-color:#1e0a1e;stop-opacity:1" />
    </linearGradient>
    <radialGradient id="lightBeam" cx="50%" cy="50%" r="50%">
      <stop offset="0%" style="stop-color:#ffff99;stop-opacity:0.8" />
      <stop offset="100%" style="stop-color:#ffffff;stop-opacity:0.1" />
    </radialGradient>
  </defs>
  
  <!-- Background -->
  <rect width="600" height="400" fill="url(#nightCommGrad)"/>
  
  <!-- Road -->
  <rect x="0" y="300" width="600" height="100" fill="#2a2a2a"/>
  <rect x="290" y="300" width="20" height="100" fill="#ffff66" opacity="0.4"/>
  
  <!-- Communication scenarios -->
  
  <!-- Scenario 1: Proper headlight flashing -->
  <g id="scenario1">
    <rect x="80" y="280" width="60" height="30" rx="5" fill="#444444"/>
    <circle cx="95" cy="315" r="6" fill="#333333"/>
    <circle cx="125" cy="315" r="6" fill="#333333"/>
    
    <!-- Light signal -->
    <circle cx="140" cy="295" r="8" fill="#ffff99" opacity="0.8"/>
    <circle cx="145" cy="290" r="4" fill="#ffffff"/>
    <text x="160" y="285" fill="#ffffff" font-size="8">Kort pilsing</text>
    <text x="160" y="295" fill="#88ff88" font-size="7">"Takk" eller "Varsel"</text>
    
    <!-- Response from oncoming car -->
    <rect x="400" y="260" width="60" height="30" rx="5" fill="#444444"/>
    <circle cx="415" cy="295" r="6" fill="#333333"/>
    <circle cx="445" cy="295" r="6" fill="#333333"/>
    
    <circle cx="400" cy="275" r="6" fill="#ffff99" opacity="0.6"/>
    <text x="380" y="270" fill="#ffffff" font-size="8">Takk tilbake</text>
  </g>
  
  <!-- Scenario 2: Turn signals in advance -->
  <g id="scenario2">
    <rect x="200" y="200" width="60" height="30" rx="5" fill="#444444"/>
    <circle cx="215" cy="235" r="6" fill="#333333"/>
    <circle cx="245" cy="235" r="6" fill="#333333"/>
    
    <!-- Turn signal arrows -->
    <path d="M 270 210 L 285 205 L 285 215 Z" fill="#ff8800"/>
    <path d="M 290 210 L 305 205 L 305 215 Z" fill="#ff8800" opacity="0.6"/>
    <path d="M 310 210 L 325 205 L 325 215 Z" fill="#ff8800" opacity="0.3"/>
    
    <text x="295" y="200" fill="#ffffff" font-size="9" text-anchor="middle">Tidlig signalering</text>
    <text x="295" y="225" fill="#88ff88" font-size="8" text-anchor="middle">Bedre i mørket</text>
  </g>
  
  <!-- Communication methods panel -->
  <rect x="20" y="20" width="280" height="160" rx="10" fill="#2a2a4a" opacity="0.9"/>
  <text x="30" y="40" fill="#ffffff" font-size="14" font-weight="bold">Lysbasert kommunikasjon i mørket</text>
  
  <!-- Light signals -->
  <g fill="#ffffff" font-size="11">
    <circle cx="35" cy="65" r="4" fill="#ffff99"/>
    <text x="50" y="70" font-weight="bold">Kort pilsing (fjernlys)</text>
    <text x="55" y="83" font-size="9">• Takk for vikteplikt</text>
    <text x="55" y="95" font-size="9">• Varsel om feil innstilt lys</text>
    <text x="55" y="107" font-size="9">• "Du kan kjøre" (høflig)</text>
    
    <circle cx="35" cy="125" r="4" fill="#ff8800"/>
    <text x="50" y="130" font-weight="bold">Blinklys</text>
    <text x="55" y="143" font-size="9">• Signal TIDLIGERE i mørket</text>
    <text x="55" y="155" font-size="9">• Hold inne lenger</text>
    <text x="55" y="167" font-size="9">• Tydelige, bestemte signaler</text>
  </g>
  
  <!-- Wrong communication panel -->
  <rect x="320" y="20" width="260" height="160" rx="10" fill="#4a2a2a" opacity="0.9"/>
  <text x="330" y="40" fill="#ffffff" font-size="14" font-weight="bold">❌ Farlig kommunikasjon</text>
  
  <g fill="#ff8888" font-size="10">
    <text x="330" y="60" font-weight="bold">UNNGÅ FØLGENDE:</text>
    
    <circle cx="335" cy="75" r="3" fill="#ff4444"/>
    <text x="345" y="80">Lang fjernlys-blending som "straff"</text>
    
    <circle cx="335" cy="95" r="3" fill="#ff4444"/>
    <text x="345" y="100">Aggressiv lysbruk ved irritasjon</text>
    
    <circle cx="335" cy="115" r="3" fill="#ff4444"/>
    <text x="345" y="120">Blende tilbake andre som blender deg</text>
    
    <circle cx="335" cy="135" r="3" fill="#ff4444"/>
    <text x="345" y="140">Bruke nødblink som vanlig kommunikasjon</text>
    
    <circle cx="335" cy="155" r="3" fill="#ff4444"/>
    <text x="345" y="160">Kommunisere mens du er blended/distrert</text>
  </g>
  
  <!-- Positioning and visibility -->
  <rect x="20" y="190" width="260" height="100" rx="10" fill="#2a4a2a" opacity="0.9"/>
  <text x="30" y="210" fill="#ffffff" font-size="14" font-weight="bold">Posisjonering for synlighet</text>
  
  <g fill="#88ff88" font-size="10">
    <circle cx="35" cy="230" r="3" fill="#88ff88"/>
    <text x="45" y="235">Hold forutsigbar kurs og hastighet</text>
    
    <circle cx="35" cy="250" r="3" fill="#88ff88"/>
    <text x="45" y="255">Øk sikkerhetsavstand (50% mer)</text>
    
    <circle cx="35" cy="270" r="3" fill="#88ff88"/>
    <text x="45" y="275">Bruk reflekterende klær ved stopp</text>
  </g>
  
  <!-- Emergency communication -->
  <rect x="300" y="190" width="280" height="100" rx="10" fill="#3a2a2a" opacity="0.9"/>
  <text x="310" y="210" fill="#ffffff" font-size="14" font-weight="bold">🚨 Nødkommunikasjon</text>
  
  <g fill="#ffaa88" font-size="10">
    <text x="310" y="230" font-weight="bold">Ved nødsituasjoner:</text>
    
    <circle cx="315" cy="245" r="3" fill="#ff8888"/>
    <text x="325" y="250">Nødblink for å varsle om fare</text>
    
    <circle cx="315" cy="265" r="3" fill="#ff8888"/>
    <text x="325" y="270">Varseltrekant 100-200m bak bil</text>
    
    <circle cx="315" cy="285" r="3" fill="#ff8888"/>
    <text x="325" y="290">Bruk lommelykt for å gjøre deg synlig</text>
  </g>
  
  <!-- Communication with different road users -->
  <rect x="50" y="300" width="500" height="80" rx="10" fill="#2a3a2a" opacity="0.9"/>
  <text x="60" y="320" fill="#ffffff" font-size="12" font-weight="bold">Særlige hensyn til ulike trafikanter i mørket</text>
  
  <g fill="#ffffff" font-size="9">
    <text x="60" y="340" fill="#88aaff" font-weight="bold">FOTGJENGERE:</text>
    <text x="65" y="352">• Senk hastighet ved gangfelt • Bruk nærlys • Gi rom og tid</text>
    
    <text x="300" y="340" fill="#88aaff" font-weight="bold">SYKLISTER:</text>
    <text x="305" y="352">• Økt avstand ved forbikjøring • Lydsignal hvis nødvendig</text>
    
    <text x="60" y="365" fill="#88aaff" font-weight="bold">MOTORSYKLER:</text>
    <text x="65" y="377">• Vanskelig å se i mørket • Respekter deres kjøremønster</text>
  </g>
  
  <!-- Title -->
  <text x="300" y="390" fill="#ffffff" font-size="14" font-weight="bold" text-anchor="middle">Kommunikasjon med andre trafikanter i mørket</text>
</svg>