<svg xmlns="http://www.w3.org/2000/svg" viewBox="0 0 177.515 72.456">
  <path fill="#020202" d="M33.275.003L35.011 0l3.284.006.981-.001c5.38.044 5.38.044 7.447 1.403.827 1.241.645 2.552.456 4-.565 2.68-2.31 5.052-4.425 6.742-1.15.537-2.191.475-3.445.46h-.806l-2.633-.013-1.827-.003-4.806-.02-4.906-.016-9.623-.039.006.65c.063 7.835.063 7.835-.331 11.701l-.164 1.726c-.26 2.767-.26 2.767-.57 3.386l.745-.049c5.526-.352 11.046-.541 16.583-.56l1.92-.011 2.715-.006.82-.007c1.418.009 2.459.077 3.675.897.669 1.338.335 3.124-.049 4.515-.866 2.589-2.272 4.986-4.713 6.334-.718.082-1.441.107-2.162.074l-.678-.014-1.554-.038-3.015-.052-4.743-.065-.611-.01-1.232-.019-3.151-.048-6.137-.094-.053.713-.07.937-.069.928c-.054.662-.127 1.321-.218 1.979-.139 1.171-.167 2.318-.169 3.496l-.01.637c-.007 2.705.575 5.36 2.376 7.462 2.874 2.717 6.812 2.996 10.582 2.964l.917-.006c5.48-.067 11.109-1.22 15.967-3.864 1.052-.497 1.614-.638 2.762-.43 1.271.721 2.101 1.691 2.531 3.086.436 2.347.285 4.502-1.073 6.484-4.049 5.029-10.868 6.3-16.936 6.992-1.966.196-3.939.195-5.913.19l-2.105.012c-5.48.02-11.445-.732-15.576-4.675-3.326-3.845-3.564-9.199-3.334-14.046.319-4.224 1.049-8.433 1.745-12.609.871-5.264 1.021-10.468 1.022-15.795v-.855L4.433 22l-.001-.747-.005-.693-.003-.604c-.036-.569-.156-1.064-.3-1.615l-.149-2.051-.035-.559-.081-1.359-.601.128a9.47 9.47 0 0 1-2.574.137C-.341 13.099.014 10.769.297 8.982.831 6.696 1.538 4.834 3.33 3.26l.612-.562C5.694 1.476 7.34 1.303 9.428 1.199c.742-.03.742-.03 1.293-.185.543-.134 1.047-.196 1.604-.238l.633-.048.692-.048.742-.052 2.464-.161.859-.055C22.903.094 28.08.004 33.275.003zm138.33 30.509c3.802 3.41 5.506 8.287 5.862 13.282.378 7.449-1.509 14.983-6.524 20.651l-1.191 1.257-.452.502c-3.664 3.941-9.212 5.971-14.503 6.213-5.61.144-10.389-.497-14.619-4.506-2.363-2.5-3.809-5.932-3.852-9.376l-.007-.525-.004-1.668.001-.575c.017-4.834 1.083-8.775 3.274-13.084l-.397.265c-1.005.402-1.695.385-2.778.265-.496-.562-.496-.562-.794-1.323l-.314-.695c-.555-2.303-.33-4.384.843-6.449 2.763-4.134 8.344-6.535 12.948-7.921l.53-.16c7.343-2.05 16.007-.932 21.976 3.848zm-60.882-4.519c4.728-.173 9.076.362 12.827 3.526 1.801 1.714 3.375 4.011 3.439 6.565.104 5.006-.89 8.357-4.398 12.072-4.357 4.181-10.153 5.821-16.059 5.764-3.489-.113-6.493-1.04-9.54-2.771.216 3.288 1.267 5.977 3.762 8.195 3.352 2.563 7.213 2.774 11.249 2.264 3.541-.669 6.533-1.994 9.408-4.121 1.257-.907 2.046-1.212 3.627-1.046.728.475 1.198.808 1.587 1.587.283 1.9-.487 3.245-1.587 4.762-4.32 5.088-9.935 8.757-16.669 9.525-5.743.411-11.14.123-15.677-3.787a17.4 17.4 0 0 1-4.432-6.532l-.314-.777c-2.115-7.973-.489-15.874 3.477-22.924.779-1.303 1.635-2.432 2.658-3.551l.386-.429c3.826-4.2 9.198-7.849 15.043-8.278l1.211-.046zm-42.57-7.917c.885.605 1.121 1.095 1.323 2.117l.05 2.48.01.672c.003 1.262-.1 2.276-.589 3.462l.62-.164.835-.216.819-.214c1.895-.419 3.746-.519 5.68-.53l.689-.016c1.473-.009 2.492.171 3.793.877 1.237 1.302 1.386 2.341 1.363 4.07-.143 2.457-1.213 4.83-2.686 6.778-1.064.709-1.943.647-3.175.529l-1.587-.364c-2.861-.666-5.808-.767-8.731-.959l-.099.738c-.235 1.646-.543 3.281-.837 4.918-.433 2.45-.699 4.82-.701 7.309l-.01.672c-.007 2.796.537 5.799 2.501 7.901 2.646 2.384 6.29 2.63 9.695 2.681 1.203.033 1.983.178 2.945.917.684.912.62 1.803.529 2.91-.475 2.403-1.825 3.977-3.803 5.358-2.936 1.831-5.691 2.41-9.128 2.414l-.811.02c-3.178.012-5.678-1.04-7.928-3.263-4.071-4.399-3.879-10.604-3.768-16.227.089-2.246.397-4.462.733-6.682l.382-2.803.248-1.836.298-2.232.232-1.736-.827.265a13.17 13.17 0 0 1-4.994.265c-.652-.483-.983-.797-1.208-1.58.009-5.011 4.771-9.875 8.054-13.286 6.178-6.021 6.178-6.021 10.087-5.242z"/>
  <path fill="#fcfcfc" d="M162.08 38.185l.671.214c2.614.909 4.516 2.511 5.903 4.896 1.351 3.141 1.228 6.828.092 10.008-1.324 3.181-3.291 5.303-6.401 6.843-3.381 1.374-7.497 1.707-10.933.35-2.988-1.477-4.927-3.554-6.016-6.721-1.266-4.553.157-9.054 2.33-13.026.923-1.57 1.702-2.145 3.49-2.613l.966-.259.902-.22.636-.158c2.783-.431 5.719-.289 8.36.687z"/>
  <path fill="#fbfbfb" d="M108.998 36.201l.744.004c1.819.046 3.262.278 4.713 1.451l.448.348c.783.75.976 1.49 1.04 2.529-.084 1.432-.516 2.421-1.488 3.473-2.493 2.09-4.849 2.512-8.02 2.48l-.93.009c-2.861-.01-5.214-.59-7.719-1.961.383-2.478 2.07-4.53 3.969-6.085 2.29-1.54 4.497-2.268 7.243-2.249z"/>
</svg>
