<svg width="800" height="600" xmlns="http://www.w3.org/2000/svg">
  <rect width="800" height="600" fill="#f8f9fa"/>
  
  <!-- Title -->
  <text x="400" y="40" text-anchor="middle" font-family="Arial, sans-serif" font-size="28" font-weight="bold" fill="#2c3e50">
    Moderne bil teknologi og vedlikehold
  </text>
  
  <!-- Electric/Hybrid section -->
  <g transform="translate(80, 80)">
    <rect x="0" y="0" width="300" height="220" fill="#e8f6f3" stroke="#1abc9c" stroke-width="3" rx="15"/>
    <text x="150" y="25" text-anchor="middle" font-family="Arial, sans-serif" font-size="18" font-weight="bold" fill="#1abc9c">
      ELEKTRISKE/HYBRID BILER
    </text>
    
    <!-- Electric car illustration -->
    <g transform="translate(100, 40)">
      <!-- Car body -->
      <ellipse cx="50" cy="25" rx="45" ry="20" fill="#1abc9c"/>
      <rect x="20" y="10" width="60" height="25" fill="#16a085" rx="12"/>
      <!-- Wheels -->
      <circle cx="30" cy="40" r="8" fill="#34495e"/>
      <circle cx="70" cy="40" r="8" fill="#34495e"/>
      <!-- Battery icon -->
      <rect x="40" y="18" width="20" height="12" fill="#f1c40f" rx="2"/>
      <rect x="60" y="22" width="3" height="4" fill="#f1c40f"/>
      <!-- Lightning bolt -->
      <path d="M45 22 L50 18 L48 22 L53 26 L48 22" fill="white"/>
    </g>
    
    <!-- Special maintenance needs -->
    <g transform="translate(20, 100)">
      <text x="0" y="0" font-family="Arial, sans-serif" font-size="14" font-weight="bold" fill="#1abc9c">
        Spesielle vedlikeholdsbehov:
      </text>
      
      <g transform="translate(0, 20)">
        <circle cx="8" cy="8" r="6" fill="#e74c3c"/>
        ⚡
        <text x="20" y="5" font-family="Arial, sans-serif" font-size="12" fill="#2c3e50">
          <tspan font-weight="bold">Høyspenning:</tspan> Kun kvalifiserte
        </text>
        <text x="20" y="18" font-family="Arial, sans-serif" font-size="12" fill="#34495e">
          verksted kan service høyspent system
        </text>
      </g>
      
      <g transform="translate(0, 45)">
        <circle cx="8" cy="8" r="6" fill="#3498db"/>
        <text x="8" y="12" text-anchor="middle" font-family="Arial, sans-serif" font-size="8" font-weight="bold" fill="white">❄️</text>
        <text x="20" y="5" font-family="Arial, sans-serif" font-size="12" fill="#2c3e50">
          <tspan font-weight="bold">Batterikjøling:</tspan> Spesielle væsker
        </text>
        <text x="20" y="18" font-family="Arial, sans-serif" font-size="12" fill="#34495e">
          Kritisk for batteriets levetid
        </text>
      </g>
      
      <g transform="translate(0, 70)">
        <circle cx="8" cy="8" r="6" fill="#27ae60"/>
        <text x="8" y="12" text-anchor="middle" font-family="Arial, sans-serif" font-size="8" font-weight="bold" fill="white">⚡</text>
        <text x="20" y="5" font-family="Arial, sans-serif" font-size="12" fill="#2c3e50">
          <tspan font-weight="bold">Mindre slitasje:</tspan> Regenerativ brems
        </text>
        <text x="20" y="18" font-family="Arial, sans-serif" font-size="12" fill="#34495e">
          Bremser varer lenger
        </text>
      </g>
    </g>
  </g>
  
  <!-- ADAS section -->
  <g transform="translate(420, 80)">
    <rect x="0" y="0" width="300" height="220" fill="#f4f9fd" stroke="#3498db" stroke-width="3" rx="15"/>
    <text x="150" y="25" text-anchor="middle" font-family="Arial, sans-serif" font-size="18" font-weight="bold" fill="#3498db">
      ADAS - FØRERASSISTANSE
    </text>
    
    <!-- Car with sensors -->
    <g transform="translate(100, 40)">
      <!-- Car body -->
      <ellipse cx="50" cy="25" rx="45" ry="20" fill="#3498db"/>
      <rect x="20" y="10" width="60" height="25" fill="#2980b9" rx="12"/>
      <!-- Wheels -->
      <circle cx="30" cy="40" r="8" fill="#34495e"/>
      <circle cx="70" cy="40" r="8" fill="#34495e"/>
      
      <!-- Sensors -->
      <circle cx="10" cy="25" r="4" fill="#e74c3c"/>  <!-- Front sensor -->
      <circle cx="90" cy="25" r="4" fill="#e74c3c"/>  <!-- Rear sensor -->
      <rect x="45" y="5" width="10" height="5" fill="#f1c40f" rx="2"/>  <!-- Camera -->
      
      <!-- Sensor waves -->
      <g stroke="#e74c3c" stroke-width="1" fill="none" opacity="0.5">
        <circle cx="10" cy="25" r="8"/>
        <circle cx="10" cy="25" r="12"/>
        <circle cx="90" cy="25" r="8"/>
        <circle cx="90" cy="25" r="12"/>
      </g>
    </g>
    
    <!-- ADAS maintenance -->
    <g transform="translate(20, 100)">
      <text x="0" y="0" font-family="Arial, sans-serif" font-size="14" font-weight="bold" fill="#3498db">
        Vedlikeholdskrav:
      </text>
      
      <g transform="translate(0, 20)">
        <circle cx="8" cy="8" r="6" fill="#f39c12"/>
        <text x="8" y="12" text-anchor="middle" font-family="Arial, sans-serif" font-size="8" font-weight="bold" fill="white">⚙️</text>
        <text x="20" y="5" font-family="Arial, sans-serif" font-size="12" fill="#2c3e50">
          <tspan font-weight="bold">Kalibrering:</tspan> Etter frontrute-skift
        </text>
        <text x="20" y="18" font-family="Arial, sans-serif" font-size="12" fill="#34495e">
          Sensorer må justeres nøyaktig
        </text>
      </g>
      
      <g transform="translate(0, 45)">
        <circle cx="8" cy="8" r="6" fill="#9b59b6"/>
        <text x="8" y="12" text-anchor="middle" font-family="Arial, sans-serif" font-size="8" font-weight="bold" fill="white">💾</text>
        <text x="20" y="5" font-family="Arial, sans-serif" font-size="12" fill="#2c3e50">
          <tspan font-weight="bold">Programvare:</tspan> Regelmessige oppdateringer
        </text>
        <text x="20" y="18" font-family="Arial, sans-serif" font-size="12" fill="#34495e">
          Nye funksjoner og sikkerhetsfiks
        </text>
      </g>
      
      <g transform="translate(0, 70)">
        <circle cx="8" cy="8" r="6" fill="#1abc9c"/>
        <text x="8" y="12" text-anchor="middle" font-family="Arial, sans-serif" font-size="8" font-weight="bold" fill="white">🧽</text>
        <text x="20" y="5" font-family="Arial, sans-serif" font-size="12" fill="#2c3e50">
          <tspan font-weight="bold">Sensorrens:</tspan> Hold kameraer rene
        </text>
        <text x="20" y="18" font-family="Arial, sans-serif" font-size="12" fill="#34495e">
          Kritisk for funksjonen
        </text>
      </g>
    </g>
  </g>
  
  <!-- Digital diagnostics -->
  <g transform="translate(80, 320)">
    <rect x="0" y="0" width="300" height="180" fill="#fff8dc" stroke="#f39c12" stroke-width="3" rx="15"/>
    <text x="150" y="25" text-anchor="middle" font-family="Arial, sans-serif" font-size="18" font-weight="bold" fill="#f39c12">
      DIGITAL DIAGNOSTIKK
    </text>
    
    <!-- Computer diagnostic tool -->
    <g transform="translate(100, 40)">
      <rect x="20" y="20" width="60" height="40" fill="#34495e" rx="5"/>
      <rect x="25" y="25" width="50" height="30" fill="#ecf0f1" rx="3"/>
      <!-- Screen content -->
      <line x1="30" y1="30" x2="70" y2="30" stroke="#27ae60" stroke-width="2"/>
      <line x1="30" y1="35" x2="60" y2="35" stroke="#e74c3c" stroke-width="2"/>
      <line x1="30" y1="40" x2="65" y2="40" stroke="#3498db" stroke-width="2"/>
      <line x1="30" y1="45" x2="55" y2="45" stroke="#f39c12" stroke-width="2"/>
      <line x1="30" y1="50" x2="70" y2="50" stroke="#9b59b6" stroke-width="2"/>
      
      <!-- Cable -->
      <line x1="80" y1="40" x2="100" y2="40" stroke="#2c3e50" stroke-width="3"/>
    </g>
    
    <g transform="translate(20, 100)">
      <text x="0" y="0" font-family="Arial, sans-serif" font-size="14" font-weight="bold" fill="#f39c12">
        Moderne diagnostikk:
      </text>
      <text x="0" y="18" font-family="Arial, sans-serif" font-size="12" fill="#2c3e50">
        • Raskere feilsøking med OBD-port
      </text>
      <text x="0" y="33" font-family="Arial, sans-serif" font-size="12" fill="#2c3e50">
        • Presise feilkoder og data
      </text>
      <text x="0" y="48" font-family="Arial, sans-serif" font-size="12" fill="#2c3e50">
        • Forutsigbar vedlikehold (predictive)
      </text>
      <text x="0" y="63" font-family="Arial, sans-serif" font-size="12" fill="#2c3e50">
        • Fjernovervåking og varsler
      </text>
    </g>
  </g>
  
  <!-- Connected car -->
  <g transform="translate(420, 320)">
    <rect x="0" y="0" width="300" height="180" fill="#f0f8ff" stroke="#6c5ce7" stroke-width="3" rx="15"/>
    <text x="150" y="25" text-anchor="middle" font-family="Arial, sans-serif" font-size="18" font-weight="bold" fill="#6c5ce7">
      TILKOBLET BIL
    </text>
    
    <!-- Connected car illustration -->
    <g transform="translate(100, 40)">
      <!-- Car -->
      <ellipse cx="50" cy="25" rx="35" ry="15" fill="#6c5ce7"/>
      <rect x="25" y="15" width="50" height="20" fill="#5a4fcf" rx="10"/>
      <!-- Wheels -->
      <circle cx="35" cy="35" r="6" fill="#34495e"/>
      <circle cx="65" cy="35" r="6" fill="#34495e"/>
      
      <!-- WiFi signals -->
      <g transform="translate(50, 5)">
        <path d="M -15 0 Q 0 -10 15 0" stroke="#00d2d3" stroke-width="2" fill="none"/>
        <path d="M -10 0 Q 0 -7 10 0" stroke="#00d2d3" stroke-width="2" fill="none"/>
        <path d="M -5 0 Q 0 -4 5 0" stroke="#00d2d3" stroke-width="2" fill="none"/>
        <circle cx="0" cy="0" r="2" fill="#00d2d3"/>
      </g>
    </g>
    
    <g transform="translate(20, 100)">
      <text x="0" y="0" font-family="Arial, sans-serif" font-size="14" font-weight="bold" fill="#6c5ce7">
        Tilkoblet vedlikehold:
      </text>
      <text x="0" y="18" font-family="Arial, sans-serif" font-size="12" fill="#2c3e50">
        • Automatisk bestilling av service
      </text>
      <text x="0" y="33" font-family="Arial, sans-serif" font-size="12" fill="#2c3e50">
        • Fjernovervåking av bilens helse
      </text>
      <text x="0" y="48" font-family="Arial, sans-serif" font-size="12" fill="#2c3e50">
        • OTA programvareoppdateringer
      </text>
      <text x="0" y="63" font-family="Arial, sans-serif" font-size="12" fill="#2c3e50">
        • Digital servicehistorikk i skyen
      </text>
    </g>
  </g>
  
  <!-- Warning about complexity -->
  <g transform="translate(80, 520)">
    <rect x="0" y="0" width="640" height="60" fill="#ffeaa7" stroke="#fdcb6e" stroke-width="2" rx="15"/>
    <text x="320" y="25" text-anchor="middle" font-family="Arial, sans-serif" font-size="18" font-weight="bold" fill="#e17055">
      ⚠️ Økt kompleksitet krever spesialisert kunnskap
    </text>
    <text x="320" y="45" text-anchor="middle" font-family="Arial, sans-serif" font-size="14" fill="#2c3e50">
      Moderne biler krever oftere profesjonell service - DIY er mer begrenset
    </text>
  </g>
</svg>