<svg width="600" height="400" xmlns="http://www.w3.org/2000/svg">
  <defs>
    <linearGradient id="emergencyGrad" x1="0%" y1="0%" x2="100%" y2="100%">
      <stop offset="0%" style="stop-color:#1a0a0a;stop-opacity:1" />
      <stop offset="100%" style="stop-color:#2a1a1a;stop-opacity:1" />
    </linearGradient>
    <radialGradient id="hazardLight" cx="50%" cy="50%" r="50%">
      <stop offset="0%" style="stop-color:#ff4444;stop-opacity:0.9" />
      <stop offset="100%" style="stop-color:#ff4444;stop-opacity:0.1" />
    </radialGradient>
  </defs>
  
  <!-- Background -->
  <rect width="600" height="400" fill="url(#emergencyGrad)"/>
  
  <!-- Road scene -->
  <rect x="0" y="320" width="600" height="80" fill="#2a2a2a"/>
  <rect x="290" y="320" width="20" height="80" fill="#ffff66" opacity="0.3"/>
  
  <!-- Emergency vehicle scenario -->
  <g id="emergency_scene">
    <!-- Disabled car -->
    <rect x="150" y="300" width="80" height="35" rx="8" fill="#444444"/>
    <rect x="160" y="308" width="60" height="18" rx="3" fill="#1a1a1a"/>
    <circle cx="170" cy="340" r="8" fill="#333333"/>
    <circle cx="210" cy="340" r="8" fill="#333333"/>
    
    <!-- Hazard lights blinking -->
    <circle cx="140" cy="315" r="4" fill="url(#hazardLight)"/>
    <circle cx="140" cy="320" r="4" fill="url(#hazardLight)"/>
    <circle cx="240" cy="315" r="4" fill="url(#hazardLight)"/>
    <circle cx="240" cy="320" r="4" fill="url(#hazardLight)"/>
    
    <!-- Warning triangle -->
    <path d="M 80 325 L 90 345 L 70 345 Z" fill="#ff3333" stroke="#ffffff" stroke-width="2"/>
    <text x="80" y="360" fill="#ffffff" font-size="8" text-anchor="middle">100-200m</text>
    
    <!-- Person with reflective vest -->
    <ellipse cx="120" cy="290" rx="8" ry="12" fill="#ffaa00"/>
    <circle cx="120" cy="275" r="5" fill="#ffddaa"/>
    <rect x="115" y="280" width="10" height="15" fill="#ffaa00"/>
    <rect x="117" y="282" width="6" height="3" fill="#ffffff"/>
    <rect x="117" y="288" width="6" height="3" fill="#ffffff"/>
    
    <!-- Flashlight beam -->
    <path d="M 110 290 L 90 285 L 90 295 Z" fill="#ffff99" opacity="0.6"/>
  </g>
  
  <!-- Emergency procedure steps -->
  <rect x="20" y="20" width="200" height="180" rx="10" fill="#2a2a4a" opacity="0.9"/>
  <text x="30" y="40" fill="#ffffff" font-size="14" font-weight="bold">🚨 Akutt-prosedyre</text>
  
  <g fill="#ffffff" font-size="10">
    <rect x="30" y="50" width="15" height="15" rx="2" fill="#ff4444"/>
    <text x="50" y="62" fill="#ffffff" font-weight="bold">1. SIKRE OMRÅDET</text>
    <text x="35" y="75">• Kjør til side av veien</text>
    <text x="35" y="87">• Slå på nødblink umiddelbart</text>
    <text x="35" y="99">• Steng av motor</text>
    
    <rect x="30" y="110" width="15" height="15" rx="2" fill="#ffaa00"/>
    <text x="50" y="122" fill="#ffffff" font-weight="bold">2. GJØR DEG SYNLIG</text>
    <text x="35" y="135">• Ta på refleksvest FØR du går ut</text>
    <text x="35" y="147">• Bruk lommelykt</text>
    <text x="35" y="159">• Opphold deg UTENFOR veibanen</text>
    
    <rect x="30" y="170" width="15" height="15" rx="2" fill="#4488ff"/>
    <text x="50" y="182" fill="#ffffff" font-weight="bold">3. VARSLE</text>
    <text x="35" y="195">• Ring 112 eller 113</text>
  </g>
  
  <!-- Warning triangle placement -->
  <rect x="240" y="20" width="180" height="180" rx="10" fill="#4a2a2a" opacity="0.9"/>
  <text x="250" y="40" fill="#ffffff" font-size="14" font-weight="bold">⚠️ Varsling</text>
  
  <!-- Distance illustration -->
  <g id="triangle_placement">
    <rect x="260" y="60" width="40" height="20" rx="3" fill="#444444"/>
    <line x1="300" y1="70" x2="380" y2="70" stroke="#ffffff" stroke-width="2" stroke-dasharray="5,5"/>
    <path d="M 385 65 L 395 75 L 385 85 Z" fill="#ff3333" stroke="#ffffff" stroke-width="1"/>
    
    <text x="340" y="60" fill="#ffffff" font-size="9" text-anchor="middle">100-200m</text>
    <text x="340" y="85" fill="#ff8888" font-size="8" text-anchor="middle">Lengre i mørket!</text>
  </g>
  
  <g fill="#ffffff" font-size="10">
    <text x="250" y="110" font-weight="bold">PLASSERING AV VARSELTREKANT:</text>
    <text x="255" y="125">• Landeuei: 200m bak bilen</text>
    <text x="255" y="137">• Motoruei: 200m + lenger om mulig</text>
    <text x="255" y="149">• Byområde: 100m bak bilen</text>
    <text x="255" y="161">• Bratt vei: Øverst i bakken</text>
    <text x="255" y="173">• Svinger: Før svingen</text>
    
    <text x="250" y="190" fill="#ff8888" font-weight="bold">HUSK: Gå langs veikanten!</text>
  </g>
  
  <!-- Common nighttime emergencies -->
  <rect x="440" y="20" width="140" height="180" rx="10" fill="#3a2a3a" opacity="0.9"/>
  <text x="450" y="40" fill="#ffffff" font-size="12" font-weight="bold">Vanlige nødsituasjoner</text>
  
  <g fill="#ffffff" font-size="9">
    <circle cx="455" cy="55" r="3" fill="#ff6666"/>
    <text x="465" y="60" font-weight="bold">MOTORSTOPP</text>
    <text x="455" y="72">Vanskeligere å få hjelp</text>
    
    <circle cx="455" cy="85" r="3" fill="#ff6666"/>
    <text x="465" y="90" font-weight="bold">PUNKTERING</text>
    <text x="455" y="102">Farlig å reparere i mørket</text>
    
    <circle cx="455" cy="115" r="3" fill="#ff6666"/>
    <text x="465" y="120" font-weight="bold">ULYKKE</text>
    <text x="455" y="132">Økt påkjøringsrisiko</text>
    
    <circle cx="455" cy="145" r="3" fill="#ff6666"/>
    <text x="465" y="150" font-weight="bold">TRETTHET</text>
    <text x="455" y="162">Plutselig inntreffen</text>
    
    <circle cx="455" cy="175" r="3" fill="#ff6666"/>
    <text x="465" y="180" font-weight="bold">VÆROMBLAG</text>
    <text x="455" y="192">Plutselig tåke/is</text>
  </g>
  
  <!-- Communication in emergencies -->
  <rect x="20" y="220" width="280" height="120" rx="10" fill="#2a4a2a" opacity="0.9"/>
  <text x="30" y="240" fill="#ffffff" font-size="12" font-weight="bold">📞 Nødkommunikasjon</text>
  
  <g fill="#ffffff" font-size="10">
    <text x="30" y="260" fill="#88ff88" font-weight="bold">VIKTIG INFORMASJON TIL NØDETATENE:</text>
    
    <circle cx="35" cy="275" r="2" fill="#88ff88"/>
    <text x="45" y="279">Nøyaktig posisjon (GPS, veimerker)</text>
    
    <circle cx="35" cy="290" r="2" fill="#88ff88"/>
    <text x="45" y="294">Antall personer involvert</text>
    
    <circle cx="35" cy="305" r="2" fill="#88ff88"/>
    <text x="45" y="309">Skader eller fare for andre</text>
    
    <circle cx="35" cy="320" r="2" fill="#88ff88"/>
    <text x="45" y="324">Hva som har skjedd (kort beskrivelse)</text>
    
    <text x="30" y="340" fill="#ffaa88" font-size="9">Ring 112 for politi/brannvesen, 113 for medisinsk nødhjelp</text>
  </g>
  
  <!-- Safety while waiting -->
  <rect x="320" y="220" width="260" height="120" rx="10" fill="#3a3a2a" opacity="0.9"/>
  <text x="330" y="240" fill="#ffffff" font-size="12" font-weight="bold">🛡️ Sikkerhet mens du venter</text>
  
  <g fill="#ffffff" font-size="10">
    <text x="330" y="260" fill="#ffaa88" font-weight="bold">OPPHOLD DEG TRYGT:</text>
    
    <circle cx="335" cy="275" r="2" fill="#ffaa88"/>
    <text x="345" y="279">Stå BORT fra trafikken (bak veirekkverk)</text>
    
    <circle cx="335" cy="290" r="2" fill="#ffaa88"/>
    <text x="345" y="294">Hold refleksvest på hele tiden</text>
    
    <circle cx="335" cy="305" r="2" fill="#ffaa88"/>
    <text x="345" y="309">Bruk lommelykt for ekstra synlighet</text>
    
    <circle cx="335" cy="320" r="2" fill="#ffaa88"/>
    <text x="345" y="324">Vær forberedt på å bevege deg hvis nødvendig</text>
    
    <text x="330" y="340" fill="#ff8888" font-size="9">ALDRI stå foran eller bak bilen din - andre kan kjøre på!</text>
  </g>
  
  <!-- Key reminders -->
  <rect x="50" y="360" width="500" height="30" rx="5" fill="#aa2222" opacity="0.9"/>
  <text x="60" y="375" fill="#ffffff" font-size="11" font-weight="bold">🔑 NØKKEL-REGLER:</text>
  <text x="60" y="388" fill="#ffffff" font-size="10">Synlighet • Varsling • Sikker posisjon • Tålmodighet • Ikke forsøk reparasjoner i mørket!</text>
  
  <!-- Title -->
  <text x="300" y="15" fill="#ffffff" font-size="14" font-weight="bold" text-anchor="middle">Håndtering av nødsituasjoner i mørket</text>
</svg>