<svg width="900" height="700" viewBox="0 0 900 700" xmlns="http://www.w3.org/2000/svg">
  <!-- Background -->
  <rect width="900" height="700" fill="#f8f9fa"/>
  
  <!-- Title -->
  <text x="450" y="40" text-anchor="middle" font-family="Arial, sans-serif" font-size="24" font-weight="bold" fill="#2c3e50">
    Fremtidens Løsninger mot Møteulykker
  </text>
  
  <!-- Autonomous vehicles section -->
  <g id="autonomous">
    <rect x="50" y="80" width="380" height="200" fill="#e3f2fd" stroke="#2196f3" stroke-width="2" rx="10"/>
    <text x="240" y="110" text-anchor="middle" font-family="Arial, sans-serif" font-size="18" font-weight="bold" fill="#1565c0">
      Autonome Kjøretøy 🤖
    </text>
    
    <!-- Self-driving car -->
    <rect x="180" y="140" width="120" height="50" fill="#2196f3" rx="5"/>
    <rect x="190" y="150" width="100" height="20" fill="#fff" rx="3"/>
    <circle cx="205" cy="195" r="12" fill="#37474f"/>
    <circle cx="275" cy="195" r="12" fill="#37474f"/>
    
    <!-- Sensors -->
    <circle cx="240" cy="130" r="8" fill="#4caf50"/>
    <text x="240" y="120" text-anchor="middle" font-family="Arial, sans-serif" font-size="8" fill="#2e7d32">LIDAR</text>
    
    <!-- Radar waves -->
    <path d="M240 140 Q220 135 210 150" stroke="#4caf50" stroke-width="2" fill="none" opacity="0.7"/>
    <path d="M240 140 Q260 135 270 150" stroke="#4caf50" stroke-width="2" fill="none" opacity="0.7"/>
    <path d="M240 140 Q240 125 240 110" stroke="#4caf50" stroke-width="2" fill="none" opacity="0.7"/>
    
    <text x="240" y="225" text-anchor="middle" font-family="Arial, sans-serif" font-size="14" fill="#1565c0" font-weight="bold">
      Perfekt Reaksjonstid
    </text>
    
    <text x="70" y="245" font-family="Arial, sans-serif" font-size="12" fill="#1565c0" font-weight="bold">
      Fordeler:
    </text>
    <text x="70" y="260" font-family="Arial, sans-serif" font-size="11" fill="#37474f">
      • Eliminerer menneskelige feil (95% av årsaker)
    </text>
    <text x="70" y="270" font-family="Arial, sans-serif" font-size="11" fill="#37474f">
      • 360° kontinuerlig overvåking
    </text>
  </g>
  
  <!-- V2X Communication -->
  <g id="v2x">
    <rect x="470" y="80" width="380" height="200" fill="#fff3cd" stroke="#ffc107" stroke-width="2" rx="10"/>
    <text x="660" y="110" text-anchor="middle" font-family="Arial, sans-serif" font-size="18" font-weight="bold" fill="#856404">
      Kjøretøy-til-Kjøretøy (V2X) 📡
    </text>
    
    <!-- Two cars communicating -->
    <rect x="500" y="140" width="80" height="30" fill="#ffc107" rx="3"/>
    <circle cx="515" cy="175" r="8" fill="#37474f"/>
    <circle cx="565" cy="175" r="8" fill="#37474f"/>
    
    <rect x="720" y="140" width="80" height="30" fill="#ffc107" rx="3"/>
    <circle cx="735" cy="175" r="8" fill="#37474f"/>
    <circle cx="785" cy="175" r="8" fill="#37474f"/>
    
    <!-- Communication waves -->
    <path d="M580 155 Q650 150 720 155" stroke="#fd7e14" stroke-width="3" fill="none"/>
    <circle cx="650" cy="152" r="3" fill="#fd7e14" opacity="0.8"/>
    <circle cx="630" cy="155" r="2" fill="#fd7e14" opacity="0.6"/>
    <circle cx="670" cy="155" r="2" fill="#fd7e14" opacity="0.6"/>
    
    <!-- Warning message -->
    <rect x="590" y="130" width="120" height="20" fill="#fff" stroke="#fd7e14" stroke-width="2" rx="5"/>
    <text x="650" y="143" text-anchor="middle" font-family="Arial, sans-serif" font-size="10" fill="#856404" font-weight="bold">
      "FARE RETT FREM!"
    </text>
    
    <text x="490" y="210" font-family="Arial, sans-serif" font-size="12" fill="#856404" font-weight="bold">
      Kommunikasjon i sanntid:
    </text>
    <text x="490" y="225" font-family="Arial, sans-serif" font-size="11" fill="#37474f">
      • Varsling om farer før du ser dem
    </text>
    <text x="490" y="235" font-family="Arial, sans-serif" font-size="11" fill="#37474f">
      • Koordinert emergency bremsing
    </text>
    <text x="490" y="245" font-family="Arial, sans-serif" font-size="11" fill="#37474f">
      • Automatisk hastighetstilpasning
    </text>
  </g>
  
  <!-- Smart infrastructure -->
  <g id="smart-infrastructure">
    <rect x="50" y="300" width="380" height="200" fill="#d4edda" stroke="#28a745" stroke-width="2" rx="10"/>
    <text x="240" y="330" text-anchor="middle" font-family="Arial, sans-serif" font-size="18" font-weight="bold" fill="#155724">
      Smart Infrastruktur 🛣️
    </text>
    
    <!-- Smart road -->
    <rect x="70" y="350" width="340" height="60" fill="#6c757d"/>
    <line x1="70" y1="380" x2="410" y2="380" stroke="#fff" stroke-width="3" stroke-dasharray="20,15"/>
    
    <!-- Dynamic signs -->
    <rect x="150" y="330" width="60" height="30" fill="#28a745"/>
    <text x="180" y="347" text-anchor="middle" font-family="Arial, sans-serif" font-size="10" font-weight="bold" fill="#fff">
      50
    </text>
    <text x="180" y="325" text-anchor="middle" font-family="Arial, sans-serif" font-size="8" fill="#155724">
      Dynamisk
    </text>
    
    <rect x="290" y="330" width="60" height="30" fill="#dc3545"/>
    <text x="320" y="347" text-anchor="middle" font-family="Arial, sans-serif" font-size="10" font-weight="bold" fill="#fff">
      TÅKE
    </text>
    
    <!-- Embedded sensors -->
    <circle cx="200" cy="410" r="5" fill="#007bff"/>
    <circle cx="250" cy="410" r="5" fill="#007bff"/>
    <circle cx="300" cy="410" r="5" fill="#007bff"/>
    <text x="250" y="430" text-anchor="middle" font-family="Arial, sans-serif" font-size="10" fill="#155724">
      Sensorer i veibanen
    </text>
    
    <!-- Car receiving information -->
    <rect x="180" y="365" width="60" height="25" fill="#28a745" rx="3"/>
    <circle cx="195" cy="395" r="8" fill="#37474f"/>
    <circle cx="225" cy="395" r="8" fill="#37474f"/>
    
    <text x="70" y="450" font-family="Arial, sans-serif" font-size="12" fill="#155724" font-weight="bold">
      Intelligente funksjoner:
    </text>
    <text x="70" y="465" font-family="Arial, sans-serif" font-size="11" fill="#37474f">
      • Værbaserte hastighetsjusteringer
    </text>
    <text x="70" y="475" font-family="Arial, sans-serif" font-size="11" fill="#37474f">
      • Trafikkstyrte lysreguleringer
    </text>
    <text x="70" y="485" font-family="Arial, sans-serif" font-size="11" fill="#37474f">
      • Prediktiv vedlikehold
    </text>
  </g>
  
  <!-- AI-powered prediction -->
  <g id="ai-prediction">
    <rect x="470" y="300" width="380" height="200" fill="#f8d7da" stroke="#dc3545" stroke-width="2" rx="10"/>
    <text x="660" y="330" text-anchor="middle" font-family="Arial, sans-serif" font-size="18" font-weight="bold" fill="#721c24">
      AI-Drevet Risikoprediksjon 🧠
    </text>
    
    <!-- AI brain visualization -->
    <circle cx="660" cy="380" r="40" fill="#fff" stroke="#dc3545" stroke-weight="3"/>
    <path d="M640 370 Q660 360 680 370 Q670 380 660 385 Q650 380 640 370" fill="#dc3545"/>
    <circle cx="650" cy="375" r="3" fill="#fff"/>
    <circle cx="670" cy="375" r="3" fill="#fff"/>
    
    <!-- Data streams -->
    <path d="M600 360 L620 370" stroke="#007bff" stroke-width="2" fill="none"/>
    <path d="M600 380 L620 375" stroke="#007bff" stroke-width="2" fill="none"/>
    <path d="M600 400 L620 385" stroke="#007bff" stroke-width="2" fill="none"/>
    
    <text x="580" y="365" font-family="Arial, sans-serif" font-size="10" fill="#007bff">Vær</text>
    <text x="575" y="385" font-family="Arial, sans-serif" font-size="10" fill="#007bff">Trafikk</text>
    <text x="570" y="405" font-family="Arial, sans-serif" font-size="10" fill="#007bff">Historie</text>
    
    <!-- Prediction output -->
    <path d="M700 370 L720 365" stroke="#28a745" stroke-width="2" fill="none"/>
    <path d="M700 380 L720 375" stroke="#28a745" stroke-width="2" fill="none"/>
    <path d="M700 390 L720 385" stroke="#28a745" stroke-width="2" fill="none"/>
    
    <text x="730" y="370" font-family="Arial, sans-serif" font-size="10" fill="#28a745">Risiko: Lav</text>
    <text x="730" y="380" font-family="Arial, sans-serif" font-size="10" fill="#28a745">Anbefaling: 70 km/t</text>
    <text x="730" y="390" font-family="Arial, sans-serif" font-size="10" fill="#28a745">Advarsel: Ingen</text>
    
    <text x="490" y="440" font-family="Arial, sans-serif" font-size="12" fill="#721c24" font-weight="bold">
      Prediksjon basert på:
    </text>
    <text x="490" y="455" font-family="Arial, sans-serif" font-size="11" fill="#37474f">
      • Historiske ulykkesdata
    </text>
    <text x="490" y="465" font-family="Arial, sans-serif" font-size="11" fill="#37474f">
      • Sanntids værforhold
    </text>
    <text x="490" y="475" font-family="Arial, sans-serif" font-size="11" fill="#37474f">
      • Trafikkmønstre og føreratferd
    </text>
    <text x="490" y="485" font-family="Arial, sans-serif" font-size="11" fill="#37474f">
      • Kjøretøyets tilstand
    </text>
  </g>
  
  <!-- Timeline and impact -->
  <rect x="50" y="520" width="800" height="150" fill="#e9ecef" stroke="#6c757d" stroke-width="2" rx="10"/>
  <text x="450" y="550" text-anchor="middle" font-family="Arial, sans-serif" font-size="20" font-weight="bold" fill="#495057">
    Tidshorisont og Forventet Effekt
  </text>
  
  <!-- Timeline -->
  <line x1="100" y1="580" x2="800" y2="580" stroke="#6c757d" stroke-width="3"/>
  
  <!-- 2025 marker -->
  <circle cx="200" cy="580" r="8" fill="#ffc107"/>
  <text x="200" y="570" text-anchor="middle" font-family="Arial, sans-serif" font-size="12" font-weight="bold" fill="#856404">
    2025
  </text>
  <text x="200" y="600" text-anchor="middle" font-family="Arial, sans-serif" font-size="10" fill="#6c757d">
    V2X pilot-prosjekter
  </text>
  
  <!-- 2030 marker -->
  <circle cx="400" cy="580" r="8" fill="#28a745"/>
  <text x="400" y="570" text-anchor="middle" font-family="Arial, sans-serif" font-size="12" font-weight="bold" fill="#155724">
    2030
  </text>
  <text x="400" y="600" text-anchor="middle" font-family="Arial, sans-serif" font-size="10" fill="#6c757d">
    Delvis autonome biler
  </text>
  
  <!-- 2040 marker -->
  <circle cx="600" cy="580" r="8" fill="#2196f3"/>
  <text x="600" y="570" text-anchor="middle" font-family="Arial, sans-serif" font-size="12" font-weight="bold" fill="#1565c0">
    2040
  </text>
  <text x="600" y="600" text-anchor="middle" font-family="Arial, sans-serif" font-size="10" fill="#6c757d">
    Full autonomi i Norge
  </text>
  
  <!-- Impact prediction -->
  <text x="450" y="630" text-anchor="middle" font-family="Arial, sans-serif" font-size="16" font-weight="bold" fill="#dc3545">
    Forventet Reduksjon i Møteulykker:
  </text>
  <text x="300" y="650" text-anchor="middle" font-family="Arial, sans-serif" font-size="14" fill="#495057">
    2030: -70%
  </text>
  <text x="450" y="650" text-anchor="middle" font-family="Arial, sans-serif" font-size="14" fill="#495057">
    2040: -95%
  </text>
  <text x="600" y="650" text-anchor="middle" font-family="Arial, sans-serif" font-size="14" fill="#495057">
    2050: -99%
  </text>
</svg>