<svg width="500" height="150" xmlns="http://www.w3.org/2000/svg">
  <!-- Background -->
  <rect width="500" height="150" fill="#f8f9fa"/>
  
  <!-- Title -->
  <text x="250" y="25" text-anchor="middle" font-family="Arial, sans-serif" font-size="18" font-weight="bold" fill="#2c3e50">
    Opplysningsskilt - Eksempler
  </text>
  
  <!-- Highway sign -->
  <rect x="40" y="55" width="60" height="40" fill="#27ae60"/>
  <text x="70" y="72" text-anchor="middle" font-family="Arial, sans-serif" font-size="16" font-weight="bold" fill="white">E6</text>
  <text x="70" y="87" text-anchor="middle" font-family="Arial, sans-serif" font-size="12" fill="white">Oslo</text>
  <text x="70" y="120" text-anchor="middle" font-family="Arial, sans-serif" font-size="10" fill="#2c3e50">Riksvei/</text>
  <text x="70" y="132" text-anchor="middle" font-family="Arial, sans-serif" font-size="10" fill="#2c3e50">Europavei</text>
  
  <!-- County road -->
  <rect x="130" y="55" width="60" height="40" fill="white" stroke="#2c3e50" stroke-width="2"/>
  <text x="160" y="80" text-anchor="middle" font-family="Arial, sans-serif" font-size="20" font-weight="bold" fill="#2c3e50">170</text>
  <text x="160" y="120" text-anchor="middle" font-family="Arial, sans-serif" font-size="10" fill="#2c3e50">Fylkesvei</text>
  
  <!-- Give way -->
  <polygon points="250,95 270,55 230,55" fill="white" stroke="#e74c3c" stroke-width="4"/>
  <text x="250" y="120" text-anchor="middle" font-family="Arial, sans-serif" font-size="10" fill="#2c3e50">Vikeplikt</text>
  
  <!-- Stop sign -->
  <polygon points="340,60 355,65 365,75 365,85 355,95 345,100 335,100 325,95 315,85 315,75 325,65" fill="#e74c3c"/>
  <text x="340" y="82" text-anchor="middle" font-family="Arial, sans-serif" font-size="12" font-weight="bold" fill="white">STOPP</text>
  <text x="340" y="120" text-anchor="middle" font-family="Arial, sans-serif" font-size="10" fill="#2c3e50">Stopp</text>
  
  <!-- One way -->
  <rect x="400" y="60" width="60" height="30" fill="#3498db"/>
  <polygon points="420,75 440,70 440,80" fill="white"/>
  <line x1="410" y1="75" x2="435" y2="75" stroke="white" stroke-width="3"/>
  <text x="430" y="120" text-anchor="middle" font-family="Arial, sans-serif" font-size="10" fill="#2c3e50">Envegskjøring</text>
</svg>