<svg width="800" height="500" viewBox="0 0 800 500" xmlns="http://www.w3.org/2000/svg">
  <!-- Background -->
  <rect width="800" height="500" fill="#f8f9fa"/>
  
  <!-- Title -->
  <text x="400" y="30" text-anchor="middle" font-family="Arial, sans-serif" font-size="20" font-weight="bold" fill="#2c3e50">
    Utvikling av fartsgrenser i Norge 1912-2025
  </text>
  
  <!-- Timeline line -->
  <line x1="100" y1="400" x2="700" y2="400" stroke="#34495e" stroke-width="3"/>
  
  <!-- 1912 -->
  <g transform="translate(120, 350)">
    <circle cx="0" cy="0" r="6" fill="#e74c3c"/>
    <line x1="0" y1="0" x2="0" y2="50" stroke="#e74c3c" stroke-width="2"/>
    <text x="0" y="-15" text-anchor="middle" font-family="Arial, sans-serif" font-size="12" font-weight="bold" fill="#2c3e50">1912</text>
    
    <!-- Old car illustration -->
    <g transform="translate(-25, -80)">
      <rect x="0" y="0" width="50" height="25" fill="#8b4513" rx="3"/>
      <circle cx="10" cy="30" r="6" fill="#654321"/>
      <circle cx="40" cy="30" r="6" fill="#654321"/>
      <rect x="10" y="-10" width="30" height="10" fill="#8b4513" rx="2"/>
    </g>
    
    <text x="0" y="-100" text-anchor="middle" font-family="Arial, sans-serif" font-size="11" fill="#e74c3c" font-weight="bold">15 km/t i byer</text>
    <text x="0" y="-85" text-anchor="middle" font-family="Arial, sans-serif" font-size="9" fill="#7f8c8d">Første fartsgrense</text>
  </g>
  
  <!-- 1960s -->
  <g transform="translate(280, 350)">
    <circle cx="0" cy="0" r="6" fill="#f39c12"/>
    <line x1="0" y1="0" x2="0" y2="50" stroke="#f39c12" stroke-width="2"/>
    <text x="0" y="-15" text-anchor="middle" font-family="Arial, sans-serif" font-size="12" font-weight="bold" fill="#2c3e50">1960-tallet</text>
    
    <!-- Classic car -->
    <g transform="translate(-25, -80)">
      <rect x="0" y="0" width="50" height="25" fill="#3498db" rx="3"/>
      <circle cx="10" cy="30" r="6" fill="#2c3e50"/>
      <circle cx="40" cy="30" r="6" fill="#2c3e50"/>
      <rect x="35" y="8" width="12" height="8" fill="#ecf0f1" rx="1"/>
    </g>
    
    <text x="0" y="-100" text-anchor="middle" font-family="Arial, sans-serif" font-size="11" fill="#f39c12" font-weight="bold">Systematiske grenser</text>
    <text x="0" y="-85" text-anchor="middle" font-family="Arial, sans-serif" font-size="9" fill="#7f8c8d">På hele veinettet</text>
  </g>
  
  <!-- 1990s -->
  <g transform="translate(440, 350)">
    <circle cx="0" cy="0" r="6" fill="#9b59b6"/>
    <line x1="0" y1="0" x2="0" y2="50" stroke="#9b59b6" stroke-width="2"/>
    <text x="0" y="-15" text-anchor="middle" font-family="Arial, sans-serif" font-size="12" font-weight="bold" fill="#2c3e50">1990-tallet</text>
    
    <!-- Modern car -->
    <g transform="translate(-25, -80)">
      <rect x="0" y="0" width="50" height="25" fill="#27ae60" rx="5"/>
      <circle cx="10" cy="30" r="6" fill="#2c3e50"/>
      <circle cx="40" cy="30" r="6" fill="#2c3e50"/>
      <rect x="8" y="8" width="15" height="8" fill="#ecf0f1" rx="1"/>
      <rect x="27" y="8" width="15" height="8" fill="#ecf0f1" rx="1"/>
    </g>
    
    <text x="0" y="-100" text-anchor="middle" font-family="Arial, sans-serif" font-size="11" fill="#9b59b6" font-weight="bold">Differensierte grenser</text>
    <text x="0" y="-85" text-anchor="middle" font-family="Arial, sans-serif" font-size="9" fill="#7f8c8d">Basert på veistandard</text>
  </g>
  
  <!-- 2000s -->
  <g transform="translate(600, 350)">
    <circle cx="0" cy="0" r="6" fill="#e67e22"/>
    <line x1="0" y1="0" x2="0" y2="50" stroke="#e67e22" stroke-width="2"/>
    <text x="0" y="-15" text-anchor="middle" font-family="Arial, sans-serif" font-size="12" font-weight="bold" fill="#2c3e50">2000-tallet</text>
    
    <!-- Modern safe car -->
    <g transform="translate(-25, -80)">
      <rect x="0" y="0" width="50" height="25" fill="#e67e22" rx="5"/>
      <circle cx="10" cy="30" r="6" fill="#2c3e50"/>
      <circle cx="40" cy="30" r="6" fill="#2c3e50"/>
      <rect x="8" y="8" width="15" height="8" fill="#ecf0f1" rx="1"/>
      <rect x="27" y="8" width="15" height="8" fill="#ecf0f1" rx="1"/>
      <!-- Safety features -->
      <circle cx="45" cy="5" r="2" fill="#e74c3c"/>
      <text x="45" y="7" text-anchor="middle" font-family="Arial, sans-serif" font-size="6" fill="white">!</text>
    </g>
    
    <text x="0" y="-100" text-anchor="middle" font-family="Arial, sans-serif" font-size="11" fill="#e67e22" font-weight="bold">Vision Zero</text>
    <text x="0" y="-85" text-anchor="middle" font-family="Arial, sans-serif" font-size="9" fill="#7f8c8d">Fokus på trafikksikkerhet</text>
  </g>
  
  <!-- Speed limit examples chart -->
  <rect x="100" y="80" width="600" height="200" fill="#ecf0f1" stroke="#bdc3c7" stroke-width="1" rx="5"/>
  <text x="400" y="105" text-anchor="middle" font-family="Arial, sans-serif" font-size="16" font-weight="bold" fill="#2c3e50">
    Typiske fartsgrenser gjennom tidene
  </text>
  
  <!-- Time periods as columns -->
  <text x="150" y="130" text-anchor="middle" font-family="Arial, sans-serif" font-size="12" font-weight="bold" fill="#2c3e50">1912-1950</text>
  <text x="300" y="130" text-anchor="middle" font-family="Arial, sans-serif" font-size="12" font-weight="bold" fill="#2c3e50">1960-1980</text>
  <text x="450" y="130" text-anchor="middle" font-family="Arial, sans-serif" font-size="12" font-weight="bold" fill="#2c3e50">1990-2000</text>
  <text x="600" y="130" text-anchor="middle" font-family="Arial, sans-serif" font-size="12" font-weight="bold" fill="#2c3e50">2000-i dag</text>
  
  <!-- Speed limits by area type -->
  <text x="120" y="155" font-family="Arial, sans-serif" font-size="10" fill="#2c3e50" font-weight="bold">Byer:</text>
  <text x="120" y="170" font-family="Arial, sans-serif" font-size="10" fill="#e74c3c">15 km/t</text>
  <text x="270" y="170" font-family="Arial, sans-serif" font-size="10" fill="#f39c12">50-60 km/t</text>
  <text x="420" y="170" font-family="Arial, sans-serif" font-size="10" fill="#9b59b6">50 km/t standard</text>
  <text x="570" y="170" font-family="Arial, sans-serif" font-size="10" fill="#e67e22">30-50 km/t</text>
  
  <text x="120" y="190" font-family="Arial, sans-serif" font-size="10" fill="#2c3e50" font-weight="bold">Landevei:</text>
  <text x="120" y="205" font-family="Arial, sans-serif" font-size="10" fill="#e74c3c">Ingen grense</text>
  <text x="270" y="205" font-family="Arial, sans-serif" font-size="10" fill="#f39c12">80-90 km/t</text>
  <text x="420" y="205" font-family="Arial, sans-serif" font-size="10" fill="#9b59b6">80 km/t standard</text>
  <text x="570" y="205" font-family="Arial, sans-serif" font-size="10" fill="#e67e22">60-80 km/t</text>
  
  <text x="120" y="225" font-family="Arial, sans-serif" font-size="10" fill="#2c3e50" font-weight="bold">Motorvei:</text>
  <text x="120" y="240" font-family="Arial, sans-serif" font-size="10" fill="#e74c3c">Ikke aktuelt</text>
  <text x="270" y="240" font-family="Arial, sans-serif" font-size="10" fill="#f39c12">90-110 km/t</text>
  <text x="420" y="240" font-family="Arial, sans-serif" font-size="10" fill="#9b59b6">90-110 km/t</text>
  <text x="570" y="240" font-family="Arial, sans-serif" font-size="10" fill="#e67e22">90-110 km/t</text>
  
  <!-- Key developments -->
  <rect x="50" y="430" width="700" height="60" fill="#e8f4fd" stroke="#3498db" stroke-width="2" rx="8"/>
  <text x="400" y="450" text-anchor="middle" font-family="Arial, sans-serif" font-size="14" font-weight="bold" fill="#2c3e50">
    Viktige utviklingstrekk
  </text>
  <text x="70" y="470" font-family="Arial, sans-serif" font-size="11" fill="#2c3e50">
    • Fra ingen/høye grenser til systematisk differensiering basert på veistandard og trafikksikkerhet
  </text>
  <text x="70" y="485" font-family="Arial, sans-serif" font-size="11" fill="#2c3e50">
    • Økende fokus på sårbare trafikanter har ført til lavere grenser i bymiljø (Vision Zero)
  </text>
</svg>