<svg width="800" height="600" xmlns="http://www.w3.org/2000/svg">
  <rect width="800" height="600" fill="#f8f9fa"/>
  
  <!-- Title -->
  <text x="400" y="40" text-anchor="middle" font-family="Arial, sans-serif" font-size="28" font-weight="bold" fill="#2c3e50">
    EU-kontroll - Periodisk kjøretøykontroll
  </text>
  
  <!-- EU logo style -->
  <g transform="translate(50, 80)">
    <rect x="0" y="0" width="80" height="60" fill="#003399" rx="10"/>
    <circle cx="20" cy="20" r="2" fill="#ffcc00"/>
    <circle cx="30" cy="15" r="2" fill="#ffcc00"/>
    <circle cx="40" cy="15" r="2" fill="#ffcc00"/>
    <circle cx="50" cy="20" r="2" fill="#ffcc00"/>
    <circle cx="60" cy="20" r="2" fill="#ffcc00"/>
    <circle cx="60" cy="35" r="2" fill="#ffcc00"/>
    <circle cx="50" cy="40" r="2" fill="#ffcc00"/>
    <circle cx="40" cy="45" r="2" fill="#ffcc00"/>
    <circle cx="30" cy="45" r="2" fill="#ffcc00"/>
    <circle cx="20" cy="40" r="2" fill="#ffcc00"/>
    <circle cx="15" cy="30" r="2" fill="#ffcc00"/>
    <circle cx="20" cy="30" r="2" fill="#ffcc00"/>
    <text x="40" y="35" text-anchor="middle" font-family="Arial, sans-serif" font-size="8" font-weight="bold" fill="#ffcc00">
      EU
    </text>
  </g>
  
  <!-- Timeline of intervals -->
  <g transform="translate(160, 80)">
    <text x="0" y="20" font-family="Arial, sans-serif" font-size="18" font-weight="bold" fill="#2c3e50">
      Kontrollintervaller:
    </text>
    
    <!-- New car -->
    <g transform="translate(0, 40)">
      <circle cx="20" cy="20" r="15" fill="#27ae60"/>
      <text x="20" y="26" text-anchor="middle" font-family="Arial, sans-serif" font-size="12" font-weight="bold" fill="white">4</text>
      <text x="50" y="15" font-family="Arial, sans-serif" font-size="14" font-weight="bold" fill="#2c3e50">
        Nye biler: Første kontroll etter 4 år
      </text>
      <text x="50" y="30" font-family="Arial, sans-serif" font-size="12" fill="#34495e">
        Fra første gangs registrering
      </text>
    </g>
    
    <!-- Regular cars -->
    <g transform="translate(350, 40)">
      <circle cx="20" cy="20" r="15" fill="#3498db"/>
      <text x="20" y="26" text-anchor="middle" font-family="Arial, sans-serif" font-size="12" font-weight="bold" fill="white">2</text>
      <text x="50" y="15" font-family="Arial, sans-serif" font-size="14" font-weight="bold" fill="#2c3e50">
        Deretter: Hver 2. år
      </text>
      <text x="50" y="30" font-family="Arial, sans-serif" font-size="12" fill="#34495e">
        For personbiler under 10 år
      </text>
    </g>
  </g>
  
  <!-- What is controlled -->
  <g transform="translate(80, 200)">
    <rect x="0" y="0" width="640" height="280" fill="white" stroke="#2c3e50" stroke-width="2" rx="15"/>
    <text x="320" y="30" text-anchor="middle" font-family="Arial, sans-serif" font-size="20" font-weight="bold" fill="#2c3e50">
      Hva kontrolleres under EU-kontroll?
    </text>
    
    <!-- Brakes -->
    <g transform="translate(40, 60)">
      <circle cx="20" cy="20" r="18" fill="#e74c3c"/>
      <circle cx="20" cy="20" r="12" fill="#c0392b"/>
      <circle cx="20" cy="20" r="6" fill="#a93226"/>
      <text x="20" y="50" text-anchor="middle" font-family="Arial, sans-serif" font-size="12" font-weight="bold" fill="#e74c3c">
        BREMSER
      </text>
      <text x="20" y="65" text-anchor="middle" font-family="Arial, sans-serif" font-size="10" fill="#2c3e50">
        Effekt og jevnhet
      </text>
    </g>
    
    <!-- Steering -->
    <g transform="translate(160, 60)">
      <circle cx="20" cy="20" r="15" fill="#34495e"/>
      <rect x="12" y="5" width="16" height="8" fill="#95a5a6" rx="4"/>
      <text x="20" y="50" text-anchor="middle" font-family="Arial, sans-serif" font-size="12" font-weight="bold" fill="#34495e">
        STYRING
      </text>
      <text x="20" y="65" text-anchor="middle" font-family="Arial, sans-serif" font-size="10" fill="#2c3e50">
        Spill og geometri
      </text>
    </g>
    
    <!-- Tires -->
    <g transform="translate(280, 60)">
      <circle cx="20" cy="20" r="15" fill="#2c3e50"/>
      <circle cx="20" cy="20" r="10" fill="#34495e"/>
      <path d="M13 20 L27 20 M15 17 L25 17 M15 23 L25 23" stroke="white" stroke-width="1"/>
      <text x="20" y="50" text-anchor="middle" font-family="Arial, sans-serif" font-size="12" font-weight="bold" fill="#2c3e50">
        DEKK
      </text>
      <text x="20" y="65" text-anchor="middle" font-family="Arial, sans-serif" font-size="10" fill="#2c3e50">
        Mønster og tilstand
      </text>
    </g>
    
    <!-- Lights -->
    <g transform="translate(400, 60)">
      <circle cx="20" cy="20" r="15" fill="#f1c40f"/>
      <polygon points="20,8 26,16 32,20 26,24 20,32 14,24 8,20 14,16" fill="#f39c12"/>
      <text x="20" y="50" text-anchor="middle" font-family="Arial, sans-serif" font-size="12" font-weight="bold" fill="#f39c12">
        LYS
      </text>
      <text x="20" y="65" text-anchor="middle" font-family="Arial, sans-serif" font-size="10" fill="#2c3e50">
        Alle lyskilder
      </text>
    </g>
    
    <!-- Emissions -->
    <g transform="translate(520, 60)">
      <rect x="10" y="15" width="20" height="10" fill="#95a5a6" rx="2"/>
      <!-- Smoke -->
      <circle cx="35" cy="15" r="3" fill="#bdc3c7" opacity="0.7"/>
      <circle cx="40" cy="12" r="4" fill="#bdc3c7" opacity="0.5"/>
      <circle cx="45" cy="15" r="3" fill="#bdc3c7" opacity="0.3"/>
      <text x="20" y="50" text-anchor="middle" font-family="Arial, sans-serif" font-size="12" font-weight="bold" fill="#95a5a6">
        UTSLIPP
      </text>
      <text x="20" y="65" text-anchor="middle" font-family="Arial, sans-serif" font-size="10" fill="#2c3e50">
        Miljøkrav
      </text>
    </g>
    
    <!-- Body/Rust -->
    <g transform="translate(160, 150)">
      <rect x="5" y="10" width="30" height="20" fill="#3498db" rx="5"/>
      <!-- Rust spots -->
      <circle cx="10" cy="15" r="2" fill="#d35400"/>
      <circle cx="30" cy="25" r="1.5" fill="#d35400"/>
      <text x="20" y="50" text-anchor="middle" font-family="Arial, sans-serif" font-size="12" font-weight="bold" fill="#3498db">
        KAROSSERI
      </text>
      <text x="20" y="65" text-anchor="middle" font-family="Arial, sans-serif" font-size="10" fill="#2c3e50">
        Rust og integritet
      </text>
    </g>
    
    <!-- Safety equipment -->
    <g transform="translate(400, 150)">
      <rect x="10" y="10" width="20" height="20" fill="#e74c3c" rx="3"/>
      <circle cx="20" cy="20" r="6" fill="white"/>
      <text x="20" y="24" text-anchor="middle" font-family="Arial, sans-serif" font-size="8" font-weight="bold" fill="#e74c3c">+</text>
      <text x="20" y="50" text-anchor="middle" font-family="Arial, sans-serif" font-size="12" font-weight="bold" fill="#e74c3c">
        SIKKERHET
      </text>
      <text x="20" y="65" text-anchor="middle" font-family="Arial, sans-serif" font-size="10" fill="#2c3e50">
        Airbag, belter etc.
      </text>
    </g>
    
    <!-- Pass/Fail results -->
    <g transform="translate(40, 200)">
      <rect x="0" y="0" width="560" height="60" fill="#f8f9fa" stroke="#bdc3c7" stroke-width="1" rx="10"/>
      <text x="280" y="20" text-anchor="middle" font-family="Arial, sans-serif" font-size="16" font-weight="bold" fill="#2c3e50">
        Mulige resultater:
      </text>
      
      <!-- Approved -->
      <g transform="translate(80, 30)">
        <circle cx="15" cy="15" r="12" fill="#27ae60"/>
        <text x="15" y="20" text-anchor="middle" font-family="Arial, sans-serif" font-size="12" font-weight="bold" fill="white">✓</text>
        <text x="35" y="12" font-family="Arial, sans-serif" font-size="12" font-weight="bold" fill="#27ae60">GODKJENT</text>
        <text x="35" y="25" font-family="Arial, sans-serif" font-size="10" fill="#2c3e50">Ingen feil funnet</text>
      </g>
      
      <!-- Remarks -->
      <g transform="translate(220, 30)">
        <circle cx="15" cy="15" r="12" fill="#f39c12"/>
        <text x="15" y="20" text-anchor="middle" font-family="Arial, sans-serif" font-size="12" font-weight="bold" fill="white">!</text>
        <text x="35" y="12" font-family="Arial, sans-serif" font-size="12" font-weight="bold" fill="#f39c12">ANMERKNING</text>
        <text x="35" y="25" font-family="Arial, sans-serif" font-size="10" fill="#2c3e50">Mindre feil</text>
      </g>
      
      <!-- Failed -->
      <g transform="translate(380, 30)">
        <circle cx="15" cy="15" r="12" fill="#e74c3c"/>
        <text x="15" y="20" text-anchor="middle" font-family="Arial, sans-serif" font-size="12" font-weight="bold" fill="white">✗</text>
        <text x="35" y="12" font-family="Arial, sans-serif" font-size="12" font-weight="bold" fill="#e74c3c">UNDERKJENT</text>
        <text x="35" y="25" font-family="Arial, sans-serif" font-size="10" fill="#2c3e50">Alvorlige feil</text>
      </g>
    </g>
  </g>
  
  <!-- Preparation tips -->
  <g transform="translate(80, 500)">
    <rect x="0" y="0" width="640" height="80" fill="#e8f4fd" stroke="#3498db" stroke-width="2" rx="15"/>
    <text x="320" y="25" text-anchor="middle" font-family="Arial, sans-serif" font-size="18" font-weight="bold" fill="#3498db">
      💡 Tips for å bestå EU-kontroll
    </text>
    <text x="30" y="45" font-family="Arial, sans-serif" font-size="14" fill="#2c3e50">
      • <tspan font-weight="bold">Gjør egen kontroll</tspan> av alle systemer før du kommer
    </text>
    <text x="30" y="60" font-family="Arial, sans-serif" font-size="14" fill="#2c3e50">
      • <tspan font-weight="bold">Reparer kjente feil</tspan> på forhånd - sparer tid og penger
    </text>
    <text x="340" y="45" font-family="Arial, sans-serif" font-size="14" fill="#2c3e50">
      • <tspan font-weight="bold">Ta med dokumenter:</tspan> Vognkort og forsikringsbevis
    </text>
    <text x="340" y="60" font-family="Arial, sans-serif" font-size="14" fill="#2c3e50">
      • <tspan font-weight="bold">Book time</tspan> i god tid - kan være lange køer
    </text>
  </g>
</svg>