<svg width="800" height="600" xmlns="http://www.w3.org/2000/svg">
  <rect width="800" height="600" fill="#e8f4f8"/>
  
  <!-- Title -->
  <text x="400" y="40" text-anchor="middle" font-family="Arial, sans-serif" font-size="28" font-weight="bold" fill="#2c3e50">
    Vintervedlikehold i Norge
  </text>
  
  <!-- Snowflake decoration -->
  <g transform="translate(50, 50)" fill="#5DADE2" opacity="0.3">
    <g transform="scale(0.5)">
      <path d="M20 0 L20 40 M0 20 L40 20 M6 6 L34 34 M34 6 L6 34"/>
      <circle cx="20" cy="20" r="3"/>
    </g>
  </g>
  <g transform="translate(720, 50)" fill="#5DADE2" opacity="0.3">
    <g transform="scale(0.5)">
      <path d="M20 0 L20 40 M0 20 L40 20 M6 6 L34 34 M34 6 L6 34"/>
      <circle cx="20" cy="20" r="3"/>
    </g>
  </g>
  
  <!-- Timeline -->
  <g transform="translate(100, 120)">
    <!-- Timeline line -->
    <line x1="0" y1="200" x2="600" y2="200" stroke="#34495e" stroke-width="4"/>
    
    <!-- Before winter -->
    <g transform="translate(0, 0)">
      <circle cx="50" cy="200" r="20" fill="#3498db"/>
      <text x="50" y="208" text-anchor="middle" font-family="Arial, sans-serif" font-size="14" font-weight="bold" fill="white">FØR</text>
      
      <rect x="-50" y="50" width="200" height="120" fill="#ebf3fd" stroke="#3498db" stroke-width="2" rx="10"/>
      <text x="50" y="75" text-anchor="middle" font-family="Arial, sans-serif" font-size="16" font-weight="bold" fill="#3498db">
        FØR VINTEREN
      </text>
      <text x="50" y="95" text-anchor="middle" font-family="Arial, sans-serif" font-size="12" fill="#2c3e50">
        September - Oktober
      </text>
      <text x="10" y="115" font-family="Arial, sans-serif" font-size="11" fill="#2c3e50">
        • Vinterdekk (innen 1. nov)
      </text>
      <text x="10" y="130" font-family="Arial, sans-serif" font-size="11" fill="#2c3e50">
        • Batteri kontroll
      </text>
      <text x="10" y="145" font-family="Arial, sans-serif" font-size="11" fill="#2c3e50">
        • Motorvarmer test
      </text>
      <text x="10" y="160" font-family="Arial, sans-serif" font-size="11" fill="#2c3e50">
        • Frostbeskyttelse
      </text>
    </g>
    
    <!-- During winter -->
    <g transform="translate(200, 20)">
      <circle cx="50" cy="180" r="20" fill="#e74c3c"/>
      <text x="50" y="188" text-anchor="middle" font-family="Arial, sans-serif" font-size="12" font-weight="bold" fill="white">UNDER</text>
      
      <rect x="-50" y="30" width="200" height="120" fill="#ffebee" stroke="#e74c3c" stroke-width="2" rx="10"/>
      <text x="50" y="55" text-anchor="middle" font-family="Arial, sans-serif" font-size="16" font-weight="bold" fill="#e74c3c">
        UNDER VINTEREN
      </text>
      <text x="50" y="75" text-anchor="middle" font-family="Arial, sans-serif" font-size="12" fill="#2c3e50">
        November - Mars
      </text>
      <text x="10" y="95" font-family="Arial, sans-serif" font-size="11" fill="#2c3e50">
        • Daglig: Rens lys &amp; speil
      </text>
      <text x="10" y="110" font-family="Arial, sans-serif" font-size="11" fill="#2c3e50">
        • Ukentlig: Dekktrykk
      </text>
      <text x="10" y="125" font-family="Arial, sans-serif" font-size="11" fill="#2c3e50">
        • Månedlig: Spyl salt
      </text>
      <text x="10" y="140" font-family="Arial, sans-serif" font-size="11" fill="#2c3e50">
        • Bruk motorvarmer
      </text>
    </g>
    
    <!-- After winter -->
    <g transform="translate(400, 0)">
      <circle cx="50" cy="200" r="20" fill="#27ae60"/>
      <text x="50" y="208" text-anchor="middle" font-family="Arial, sans-serif" font-size="14" font-weight="bold" fill="white">ETTER</text>
      
      <rect x="-50" y="50" width="200" height="120" fill="#e8f6f3" stroke="#27ae60" stroke-width="2" rx="10"/>
      <text x="50" y="75" text-anchor="middle" font-family="Arial, sans-serif" font-size="16" font-weight="bold" fill="#27ae60">
        ETTER VINTEREN
      </text>
      <text x="50" y="95" text-anchor="middle" font-family="Arial, sans-serif" font-size="12" fill="#2c3e50">
        April - Mai
      </text>
      <text x="10" y="115" font-family="Arial, sans-serif" font-size="11" fill="#2c3e50">
        • Grundig vask
      </text>
      <text x="10" y="130" font-family="Arial, sans-serif" font-size="11" fill="#2c3e50">
        • Sommerdekk (over +7°C)
      </text>
      <text x="10" y="145" font-family="Arial, sans-serif" font-size="11" fill="#2c3e50">
        • Saltskade kontroll
      </text>
      <text x="10" y="160" font-family="Arial, sans-serif" font-size="11" fill="#2c3e50">
        • Service etter vinter
      </text>
    </g>
  </g>
  
  <!-- Special winter equipment -->
  <g transform="translate(80, 380)">
    <rect x="0" y="0" width="640" height="160" fill="white" stroke="#2c3e50" stroke-width="2" rx="15"/>
    <text x="320" y="25" text-anchor="middle" font-family="Arial, sans-serif" font-size="18" font-weight="bold" fill="#2c3e50">
      Spesielt vinterutstyr og tips
    </text>
    
    <!-- Winter tire -->
    <g transform="translate(40, 50)">
      <circle cx="30" cy="30" r="25" fill="#34495e"/>
      <circle cx="30" cy="30" r="20" fill="#2c3e50"/>
      <!-- Winter tire pattern -->
      <g stroke="white" stroke-width="1">
        <path d="M15 20 L45 40 M15 40 L45 20"/>
        <circle cx="30" cy="30" r="5" fill="none"/>
      </g>
      <text x="30" y="70" text-anchor="middle" font-family="Arial, sans-serif" font-size="12" font-weight="bold" fill="#2c3e50">
        Vinterdekk
      </text>
      <text x="30" y="85" text-anchor="middle" font-family="Arial, sans-serif" font-size="10" fill="#34495e">
        Min 4mm mønster
      </text>
    </g>
    
    <!-- Engine heater -->
    <g transform="translate(140, 50)">
      <rect x="15" y="15" width="30" height="20" fill="#e74c3c" rx="5"/>
      <circle cx="30" cy="10" r="3" fill="#f1c40f"/>
      <!-- Power cord -->
      <path d="M45 25 Q55 25 55 35" stroke="#2c3e50" stroke-width="3" fill="none"/>
      <text x="30" y="70" text-anchor="middle" font-family="Arial, sans-serif" font-size="12" font-weight="bold" fill="#2c3e50">
        Motorvarmer
      </text>
      <text x="30" y="85" text-anchor="middle" font-family="Arial, sans-serif" font-size="10" fill="#34495e">
        2-3 timer før start
      </text>
    </g>
    
    <!-- Battery -->
    <g transform="translate(240, 50)">
      <rect x="15" y="20" width="30" height="20" fill="#34495e" rx="3"/>
      <rect x="45" y="25" width="5" height="10" fill="#34495e"/>
      <!-- Warning symbol -->
      <circle cx="30" cy="10" r="8" fill="#f39c12"/>
      <text x="30" y="16" text-anchor="middle" font-family="Arial, sans-serif" font-size="10" font-weight="bold" fill="white">!</text>
      <text x="30" y="70" text-anchor="middle" font-family="Arial, sans-serif" font-size="12" font-weight="bold" fill="#2c3e50">
        Batteri
      </text>
      <text x="30" y="85" text-anchor="middle" font-family="Arial, sans-serif" font-size="10" fill="#34495e">
        Kapasitet ned 50%
      </text>
    </g>
    
    <!-- Antifreeze -->
    <g transform="translate(340, 50)">
      <rect x="20" y="15" width="20" height="25" fill="#3498db" rx="3"/>
      <rect x="18" y="15" width="24" height="8" fill="#2c3e50" rx="3"/>
      <!-- Temperature symbol -->
      <circle cx="30" cy="5" r="5" fill="#e8f4f8" stroke="#3498db" stroke-width="2"/>
      <text x="30" y="9" text-anchor="middle" font-family="Arial, sans-serif" font-size="8" fill="#3498db">-35°</text>
      <text x="30" y="70" text-anchor="middle" font-family="Arial, sans-serif" font-size="12" font-weight="bold" fill="#2c3e50">
        Frostbeskyttelse
      </text>
      <text x="30" y="85" text-anchor="middle" font-family="Arial, sans-serif" font-size="10" fill="#34495e">
        Kjølevæske -35°C
      </text>
    </g>
    
    <!-- Scraper -->
    <g transform="translate(440, 50)">
      <rect x="20" y="35" width="20" height="5" fill="#f39c12"/>
      <rect x="28" y="15" width="4" height="25" fill="#8b4513"/>
      <!-- Ice -->
      <rect x="15" y="10" width="30" height="3" fill="#a8e6cf" opacity="0.7"/>
      <text x="30" y="70" text-anchor="middle" font-family="Arial, sans-serif" font-size="12" font-weight="bold" fill="#2c3e50">
        Isskrape
      </text>
      <text x="30" y="85" text-anchor="middle" font-family="Arial, sans-serif" font-size="10" fill="#34495e">
        Daglig nødvendig
      </text>
    </g>
    
    <!-- Salt protection -->
    <g transform="translate(540, 50)">
      <rect x="15" y="25" width="30" height="15" fill="#95a5a6" rx="5"/>
      <!-- Water drops -->
      <circle cx="20" cy="15" r="3" fill="#3498db"/>
      <circle cx="35" cy="12" r="3" fill="#3498db"/>
      <circle cx="45" cy="18" r="3" fill="#3498db"/>
      <text x="30" y="70" text-anchor="middle" font-family="Arial, sans-serif" font-size="12" font-weight="bold" fill="#2c3e50">
        Spyling
      </text>
      <text x="30" y="85" text-anchor="middle" font-family="Arial, sans-serif" font-size="10" fill="#34495e">
        Fjern salt månedlig
      </text>
    </g>
    
    <!-- Temperature reminder -->
    <g transform="translate(200, 110)">
      <rect x="0" y="0" width="240" height="35" fill="#fff3cd" stroke="#f39c12" stroke-width="2" rx="10"/>
      <text x="120" y="18" text-anchor="middle" font-family="Arial, sans-serif" font-size="14" font-weight="bold" fill="#f39c12">
        🌡️ Temperaturgrenser
      </text>
      <text x="120" y="30" text-anchor="middle" font-family="Arial, sans-serif" font-size="12" fill="#2c3e50">
        Vinterdekk når temp. under +7°C stabilt
      </text>
    </g>
  </g>
</svg>