<svg width="800" height="600" viewBox="0 0 800 600" xmlns="http://www.w3.org/2000/svg">
  <!-- Background -->
  <rect width="800" height="600" fill="#f8f9fa"/>
  
  <!-- Title -->
  <text x="400" y="30" text-anchor="middle" font-family="Arial, sans-serif" font-size="22" font-weight="bold" fill="#2c3e50">
    Nødutstyr for bilen - Komplett oversikt
  </text>
  
  <!-- Mandatory equipment section -->
  <rect x="50" y="60" width="700" height="200" fill="#e74c3c" rx="10" opacity="0.1"/>
  <text x="400" y="85" text-anchor="middle" font-family="Arial, sans-serif" font-size="18" font-weight="bold" fill="#e74c3c">
    OBLIGATORISK UTSTYR (Lovpålagt)
  </text>
  
  <!-- Warning triangle -->
  <polygon points="150,120 165,150 135,150" fill="#f39c12" stroke="#e67e22" stroke-width="3"/>
  <polygon points="150,130 157,142 143,142" fill="#e74c3c"/>
  <text x="150" y="175" text-anchor="middle" font-family="Arial, sans-serif" font-size="12" font-weight="bold" fill="#2c3e50">
    Advarselstrekant
  </text>
  <text x="150" y="190" text-anchor="middle" font-family="Arial, sans-serif" font-size="10" fill="#2c3e50">
    Reflekterende
  </text>
  <text x="150" y="205" text-anchor="middle" font-family="Arial, sans-serif" font-size="10" fill="#2c3e50">
    EU-godkjent
  </text>
  <text x="150" y="220" text-anchor="middle" font-family="Arial, sans-serif" font-size="10" fill="#2c3e50">
    Stabil konstruksjon
  </text>
  <text x="150" y="235" text-anchor="middle" font-family="Arial, sans-serif" font-size="10" fill="#e74c3c" font-weight="bold">
    Obligatorisk
  </text>
  
  <!-- Reflective vest -->
  <rect x="280" y="110" width="40" height="60" fill="#f39c12" rx="5"/>
  <rect x="285" y="115" width="30" height="8" fill="#e67e22"/>
  <rect x="285" y="155" width="30" height="8" fill="#e67e22"/>
  <text x="300" y="185" text-anchor="middle" font-family="Arial, sans-serif" font-size="12" font-weight="bold" fill="#2c3e50">
    Refleksvest
  </text>
  <text x="300" y="200" text-anchor="middle" font-family="Arial, sans-serif" font-size="10" fill="#2c3e50">
    For fører
  </text>
  <text x="300" y="215" text-anchor="middle" font-family="Arial, sans-serif" font-size="10" fill="#2c3e50">
    EN471 standard
  </text>
  <text x="300" y="230" text-anchor="middle" font-family="Arial, sans-serif" font-size="10" fill="#2c3e50">
    Anbefalt for alle
  </text>
  <text x="300" y="245" text-anchor="middle" font-family="Arial, sans-serif" font-size="10" fill="#e74c3c" font-weight="bold">
    Obligatorisk
  </text>
  
  <!-- First aid kit -->
  <rect x="430" y="120" width="50" height="35" fill="#e74c3c" rx="3"/>
  <rect x="445" y="110" width="20" height="15" fill="#ffffff" rx="2"/>
  <line x1="455" y1="112" x2="455" y2="123" stroke="#e74c3c" stroke-width="3"/>
  <line x1="449" y1="117" x2="461" y2="117" stroke="#e74c3c" stroke-width="3"/>
  <text x="455" y="175" text-anchor="middle" font-family="Arial, sans-serif" font-size="12" font-weight="bold" fill="#2c3e50">
    Førstehjelpsutstyr
  </text>
  <text x="455" y="190" text-anchor="middle" font-family="Arial, sans-serif" font-size="10" fill="#2c3e50">
    Komplett sett
  </text>
  <text x="455" y="205" text-anchor="middle" font-family="Arial, sans-serif" font-size="10" fill="#2c3e50">
    Sjekk utløpsdato
  </text>
  <text x="455" y="220" text-anchor="middle" font-family="Arial, sans-serif" font-size="10" fill="#2c3e50">
    Hold tørt og tilgjengelig
  </text>
  <text x="455" y="235" text-anchor="middle" font-family="Arial, sans-serif" font-size="10" fill="#e74c3c" font-weight="bold">
    Obligatorisk
  </text>
  
  <!-- Recommended equipment section -->
  <rect x="50" y="280" width="700" height="280" fill="#27ae60" rx="10" opacity="0.1"/>
  <text x="400" y="305" text-anchor="middle" font-family="Arial, sans-serif" font-size="18" font-weight="bold" fill="#27ae60">
    ANBEFALT TILLEGGSUTSTYR
  </text>
  
  <!-- Spare tire -->
  <circle cx="130" cy="350" r="25" fill="#2c3e50"/>
  <circle cx="130" cy="350" r="15" fill="#34495e"/>
  <circle cx="130" cy="350" r="8" fill="#2c3e50"/>
  <text x="130" y="385" text-anchor="middle" font-family="Arial, sans-serif" font-size="11" font-weight="bold" fill="#2c3e50">
    Reservehjul
  </text>
  <text x="130" y="400" text-anchor="middle" font-family="Arial, sans-serif" font-size="9" fill="#2c3e50">
    eller reparasjonssett
  </text>
  <text x="130" y="415" text-anchor="middle" font-family="Arial, sans-serif" font-size="9" fill="#2c3e50">
    Sjekk trykk regelmessig
  </text>
  
  <!-- Jump leads -->
  <path d="M 220 335 Q 240 325 260 335" stroke="#e74c3c" stroke-width="4" fill="none"/>
  <path d="M 220 355 Q 240 365 260 355" stroke="#2c3e50" stroke-width="4" fill="none"/>
  <circle cx="215" cy="335" r="4" fill="#e74c3c"/>
  <circle cx="265" cy="335" r="4" fill="#e74c3c"/>
  <circle cx="215" cy="355" r="4" fill="#2c3e50"/>
  <circle cx="265" cy="355" r="4" fill="#2c3e50"/>
  <text x="240" y="385" text-anchor="middle" font-family="Arial, sans-serif" font-size="11" font-weight="bold" fill="#2c3e50">
    Startkabler
  </text>
  <text x="240" y="400" text-anchor="middle" font-family="Arial, sans-serif" font-size="9" fill="#2c3e50">
    Kraftige ledninger
  </text>
  <text x="240" y="415" text-anchor="middle" font-family="Arial, sans-serif" font-size="9" fill="#2c3e50">
    God isolasjon
  </text>
  
  <!-- Flashlight -->
  <rect x="320" y="335" width="30" height="15" fill="#34495e" rx="3"/>
  <circle cx="335" cy="325" r="8" fill="#f1c40f" opacity="0.7"/>
  <text x="335" y="385" text-anchor="middle" font-family="Arial, sans-serif" font-size="11" font-weight="bold" fill="#2c3e50">
    Lommelykt
  </text>
  <text x="335" y="400" text-anchor="middle" font-family="Arial, sans-serif" font-size="9" fill="#2c3e50">
    med ekstra batterier
  </text>
  <text x="335" y="415" text-anchor="middle" font-family="Arial, sans-serif" font-size="9" fill="#2c3e50">
    LED anbefales
  </text>
  
  <!-- Multi-tool -->
  <rect x="410" y="340" width="20" height="10" fill="#95a5a6" rx="2"/>
  <rect x="415" y="330" width="2" height="15" fill="#95a5a6"/>
  <rect x="420" y="330" width="2" height="15" fill="#95a5a6"/>
  <rect x="425" y="330" width="2" height="15" fill="#95a5a6"/>
  <text x="420" y="385" text-anchor="middle" font-family="Arial, sans-serif" font-size="11" font-weight="bold" fill="#2c3e50">
    Multiverktøy
  </text>
  <text x="420" y="400" text-anchor="middle" font-family="Arial, sans-serif" font-size="9" fill="#2c3e50">
    Skrutrekkere
  </text>
  <text x="420" y="415" text-anchor="middle" font-family="Arial, sans-serif" font-size="9" fill="#2c3e50">
    Pliers, kniver
  </text>
  
  <!-- Blankets -->
  <rect x="490" y="335" width="35" height="20" fill="#8e44ad" rx="3"/>
  <path d="M 495 340 Q 500 345 505 340 Q 510 345 515 340" stroke="#9b59b6" stroke-width="2" fill="none"/>
  <text x="507" y="385" text-anchor="middle" font-family="Arial, sans-serif" font-size="11" font-weight="bold" fill="#2c3e50">
    Varme klær
  </text>
  <text x="507" y="400" text-anchor="middle" font-family="Arial, sans-serif" font-size="9" fill="#2c3e50">
    Tepper
  </text>
  <text x="507" y="415" text-anchor="middle" font-family="Arial, sans-serif" font-size="9" fill="#2c3e50">
    Ekstra jakke
  </text>
  
  <!-- Food and water -->
  <rect x="580" y="340" width="15" height="20" fill="#3498db" rx="2"/>
  <rect x="600" y="335" width="20" height="15" fill="#e67e22" rx="2"/>
  <text x="595" y="385" text-anchor="middle" font-family="Arial, sans-serif" font-size="11" font-weight="bold" fill="#2c3e50">
    Mat og vann
  </text>
  <text x="595" y="400" text-anchor="middle" font-family="Arial, sans-serif" font-size="9" fill="#2c3e50">
    For lange ventetider
  </text>
  <text x="595" y="415" text-anchor="middle" font-family="Arial, sans-serif" font-size="9" fill="#2c3e50">
    Sjekk utløpsdato
  </text>
  
  <!-- Phone charger -->
  <rect x="670" y="340" width="25" height="10" fill="#2c3e50" rx="2"/>
  <circle cx="660" cy="345" r="6" fill="#34495e"/>
  <text x="670" y="385" text-anchor="middle" font-family="Arial, sans-serif" font-size="11" font-weight="bold" fill="#2c3e50">
    Mobilladekabel
  </text>
  <text x="670" y="400" text-anchor="middle" font-family="Arial, sans-serif" font-size="9" fill="#2c3e50">
    12V adapter
  </text>
  <text x="670" y="415" text-anchor="middle" font-family="Arial, sans-serif" font-size="9" fill="#2c3e50">
    Powerbank
  </text>
  
  <!-- Winter additional equipment -->
  <text x="400" y="450" text-anchor="middle" font-family="Arial, sans-serif" font-size="14" font-weight="bold" fill="#3498db">
    EKSTRA VINTERUTSTYR
  </text>
  
  <!-- Ice scraper -->
  <rect x="150" y="470" width="30" height="3" fill="#34495e"/>
  <rect x="155" y="460" width="20" height="15" fill="#95a5a6" rx="2"/>
  <text x="165" y="500" text-anchor="middle" font-family="Arial, sans-serif" font-size="10" fill="#2c3e50">
    Isskrape
  </text>
  
  <!-- Snow brush -->
  <rect x="220" y="465" width="3" height="20" fill="#8e44ad"/>
  <rect x="210" y="460" width="23" height="8" fill="#95a5a6" rx="1"/>
  <text x="221" y="500" text-anchor="middle" font-family="Arial, sans-serif" font-size="10" fill="#2c3e50">
    Snøbørste
  </text>
  
  <!-- Warm drink -->
  <rect x="290" y="465" width="12" height="20" fill="#e74c3c" rx="6"/>
  <rect x="295" y="460" width="2" height="5" fill="#2c3e50"/>
  <text x="296" y="500" text-anchor="middle" font-family="Arial, sans-serif" font-size="10" fill="#2c3e50">
    Termokanne
  </text>
  
  <!-- Chains -->
  <circle cx="370" cy="475" r="6" fill="none" stroke="#34495e" stroke-width="2"/>
  <circle cx="385" cy="475" r="6" fill="none" stroke="#34495e" stroke-width="2"/>
  <circle cx="400" cy="475" r="6" fill="none" stroke="#34495e" stroke-width="2"/>
  <text x="385" y="500" text-anchor="middle" font-family="Arial, sans-serif" font-size="10" fill="#2c3e50">
    Kjettinger
  </text>
  
  <!-- Storage tips -->
  <rect x="50" y="520" width="700" height="70" fill="#ecf0f1" rx="10"/>
  <text x="400" y="545" text-anchor="middle" font-family="Arial, sans-serif" font-size="16" font-weight="bold" fill="#2c3e50">
    Tips for oppbevaring og vedlikehold
  </text>
  
  <text x="80" y="565" font-family="Arial, sans-serif" font-size="12" fill="#2c3e50">
    • Sjekk utstyret regelmessig - bytt ut defekte eller utløpte elementer
  </text>
  <text x="80" y="580" font-family="Arial, sans-serif" font-size="12" fill="#2c3e50">
    • Oppbevar utstyret tørt og lett tilgjengelig - ikke i bagasjerommet under bagasje
  </text>
</svg>