<svg width="400" height="300" xmlns="http://www.w3.org/2000/svg">
  <!-- Background -->
  <rect width="400" height="300" fill="#f0f8ff"/>
  
  <!-- Road -->
  <rect x="50" y="100" width="300" height="100" fill="#404040"/>
  
  <!-- Collective transport lane -->
  <rect x="50" y="100" width="100" height="100" fill="#ff6b6b" opacity="0.3"/>
  
  <!-- Normal lane -->
  <rect x="150" y="100" width="200" height="100" fill="#404040"/>
  
  <!-- Lane marking -->
  <line x1="150" y1="100" x2="150" y2="200" stroke="#ffffff" stroke-width="3"/>
  
  <!-- Road edges -->
  <line x1="50" y1="100" x2="350" y2="100" stroke="#ffffff" stroke-width="3"/>
  <line x1="50" y1="200" x2="350" y2="200" stroke="#ffffff" stroke-width="3"/>
  
  <!-- Collective transport lane text on road -->
  <text x="100" y="155" font-family="Arial" font-size="14" font-weight="bold" text-anchor="middle" fill="#ffffff" transform="rotate(-90 100 155)">KOLLEKTIV</text>
  
  <!-- Bus in collective lane -->
  <rect x="70" y="130" width="60" height="25" fill="#ffd700" rx="5"/>
  <rect x="75" y="125" width="50" height="8" fill="#000080"/>
  <text x="100" y="147" font-family="Arial" font-size="10" font-weight="bold" text-anchor="middle" fill="#000000">BUSS</text>
  <circle cx="80" cy="160" r="5" fill="#2c2c2c"/>
  <circle cx="120" cy="160" r="5" fill="#2c2c2c"/>
  
  <!-- Taxi in collective lane -->
  <rect x="70" y="170" width="35" height="18" fill="#ffff00" rx="3"/>
  <rect x="72" y="165" width="8" height="5" fill="#000000"/>
  <text x="87" y="182" font-family="Arial" font-size="8" text-anchor="middle" fill="#000000">TAXI</text>
  <circle cx="77" cy="193" r="3" fill="#2c2c2c"/>
  <circle cx="98" cy="193" r="3" fill="#2c2c2c"/>
  
  <!-- Cars in normal lane -->
  <rect x="170" y="130" width="40" height="20" fill="#4169e1" rx="3"/>
  <circle cx="178" cy="155" r="4" fill="#2c2c2c"/>
  <circle cx="202" cy="155" r="4" fill="#2c2c2c"/>
  
  <rect x="240" y="140" width="40" height="20" fill="#32cd32" rx="3"/>
  <circle cx="248" cy="165" r="4" fill="#2c2c2c"/>
  <circle cx="272" cy="165" r="4" fill="#2c2c2c"/>
  
  <!-- X mark over regular car trying to use collective lane -->
  <rect x="80" y="110" width="30" height="15" fill="#ff0000" opacity="0.2" rx="2"/>
  <line x1="85" y1="115" x2="105" y2="120" stroke="#ff0000" stroke-width="3"/>
  <line x1="105" y1="115" x2="85" y2="120" stroke="#ff0000" stroke-width="3"/>
  
  <!-- Title -->
  <text x="200" y="30" font-family="Arial" font-size="18" font-weight="bold" text-anchor="middle" fill="#2c3e50">Kollektivfelt - Hvem Kan Bruke Det?</text>
  
  <!-- Labels -->
  <text x="100" y="85" font-family="Arial" font-size="12" font-weight="bold" text-anchor="middle" fill="#ff6b6b">KOLLEKTIVFELT</text>
  <text x="250" y="85" font-family="Arial" font-size="12" font-weight="bold" text-anchor="middle" fill="#4169e1">VANLIG KJØREFELT</text>
  
  <!-- Legend -->
  <rect x="20" y="220" width="180" height="70" fill="#ffffff" stroke="#cccccc" stroke-width="1" rx="5"/>
  <text x="30" y="235" font-family="Arial" font-size="11" font-weight="bold" fill="#00aa00">Tillatt i kollektivfelt:</text>
  <text x="30" y="250" font-family="Arial" font-size="10" fill="#00aa00">• Busser i rute</text>
  <text x="30" y="265" font-family="Arial" font-size="10" fill="#00aa00">• Drosjer med passasjerer</text>
  <text x="30" y="280" font-family="Arial" font-size="10" fill="#00aa00">• Motorsykler (enkelte steder)</text>
  
  <rect x="220" y="220" width="160" height="70" fill="#ffffff" stroke="#cccccc" stroke-width="1" rx="5"/>
  <text x="230" y="235" font-family="Arial" font-size="11" font-weight="bold" fill="#ff0000">IKKE tillatt:</text>
  <text x="230" y="250" font-family="Arial" font-size="10" fill="#ff0000">• Vanlige personbiler</text>
  <text x="230" y="265" font-family="Arial" font-size="10" fill="#ff0000">• Varebiler</text>
  <text x="230" y="280" font-family="Arial" font-size="10" fill="#ff0000">• Lastebiler</text>
  
  <!-- Time restriction sign -->
  <rect x="20" y="110" width="25" height="30" fill="#ffffff" stroke="#000000" stroke-width="2"/>
  <text x="32" y="120" font-family="Arial" font-size="8" text-anchor="middle" fill="#000000">07-09</text>
  <text x="32" y="130" font-family="Arial" font-size="8" text-anchor="middle" fill="#000000">15-17</text>
  <text x="32" y="140" font-family="Arial" font-size="6" text-anchor="middle" fill="#000000">Man-Fre</text>
</svg>