<svg width="800" height="600" xmlns="http://www.w3.org/2000/svg">
  <rect width="800" height="600" fill="#f8f9fa"/>
  
  <!-- Title -->
  <text x="400" y="40" text-anchor="middle" font-family="Arial, sans-serif" font-size="28" font-weight="bold" fill="#2c3e50">
    Førers sjekkliste
  </text>
  
  <!-- Car illustration -->
  <g transform="translate(300, 80)">
    <!-- Car body -->
    <ellipse cx="100" cy="40" rx="90" ry="35" fill="#3498db"/>
    <rect x="40" y="15" width="120" height="40" fill="#2980b9" rx="20"/>
    <!-- Front and rear lights -->
    <circle cx="20" cy="40" r="8" fill="#f1c40f"/>
    <circle cx="180" cy="40" r="8" fill="#e74c3c"/>
    <!-- Windows -->
    <rect x="60" y="25" width="80" height="20" fill="#ecf0f1" rx="10"/>
    <!-- Wheels -->
    <circle cx="45" cy="65" r="12" fill="#34495e"/>
    <circle cx="155" cy="65" r="12" fill="#34495e"/>
  </g>
  
  <!-- Daily checks (left side) -->
  <g transform="translate(50, 200)">
    <rect x="0" y="0" width="300" height="320" fill="#fff5f5" stroke="#e74c3c" stroke-width="3" rx="15"/>
    <text x="150" y="30" text-anchor="middle" font-family="Arial, sans-serif" font-size="20" font-weight="bold" fill="#e74c3c">
      DAGLIG KONTROLL
    </text>
    <text x="150" y="50" text-anchor="middle" font-family="Arial, sans-serif" font-size="14" fill="#2c3e50">
      (før kjøring)
    </text>
    
    <!-- Check items with icons -->
    <!-- Lights -->
    <g transform="translate(20, 70)">
      <circle cx="15" cy="15" r="10" fill="#f1c40f"/>
      <text x="15" y="20" text-anchor="middle" font-family="Arial, sans-serif" font-size="12" fill="#2c3e50">💡</text>
      <text x="40" y="20" font-family="Arial, sans-serif" font-size="14" font-weight="bold" fill="#2c3e50">Lys og signaler</text>
      <text x="40" y="35" font-family="Arial, sans-serif" font-size="12" fill="#34495e">Nærlys, fjernlys, blinklys, bremselys</text>
    </g>
    
    <!-- Mirrors -->
    <g transform="translate(20, 110)">
      <rect x="5" y="5" width="20" height="15" fill="#bdc3c7" rx="3"/>
      <text x="40" y="18" font-family="Arial, sans-serif" font-size="14" font-weight="bold" fill="#2c3e50">Speil</text>
      <text x="40" y="33" font-family="Arial, sans-serif" font-size="12" fill="#34495e">Rene og riktig innstilt</text>
    </g>
    
    <!-- Windshield -->
    <g transform="translate(20, 150)">
      <rect x="5" y="5" width="20" height="15" fill="#ecf0f1" stroke="#95a5a6" rx="3"/>
      <text x="40" y="18" font-family="Arial, sans-serif" font-size="14" font-weight="bold" fill="#2c3e50">Vindsruter</text>
      <text x="40" y="33" font-family="Arial, sans-serif" font-size="12" fill="#34495e">Rene og uten sprekker</text>
    </g>
    
    <!-- Tires -->
    <g transform="translate(20, 190)">
      <circle cx="15" cy="15" r="12" fill="#34495e"/>
      <circle cx="15" cy="15" r="8" fill="#7f8c8d"/>
      <text x="40" y="18" font-family="Arial, sans-serif" font-size="14" font-weight="bold" fill="#2c3e50">Dekk</text>
      <text x="40" y="33" font-family="Arial, sans-serif" font-size="12" fill="#34495e">Visuell kontroll av trykk</text>
    </g>
    
    <!-- Leaks -->
    <g transform="translate(20, 230)">
      <ellipse cx="15" cy="20" rx="10" ry="5" fill="#3498db"/>
      <text x="40" y="18" font-family="Arial, sans-serif" font-size="14" font-weight="bold" fill="#2c3e50">Væskelekkasjer</text>
      <text x="40" y="33" font-family="Arial, sans-serif" font-size="12" fill="#34495e">Se under bilen</text>
    </g>
    
    <text x="150" y="290" text-anchor="middle" font-family="Arial, sans-serif" font-size="12" font-style="italic" fill="#7f8c8d">
      ⏱️ Tid: 2-3 minutter
    </text>
  </g>
  
  <!-- Weekly checks (center) -->
  <g transform="translate(380, 200)">
    <rect x="0" y="0" width="300" height="320" fill="#fffbf0" stroke="#f39c12" stroke-width="3" rx="15"/>
    <text x="150" y="30" text-anchor="middle" font-family="Arial, sans-serif" font-size="20" font-weight="bold" fill="#f39c12">
      UKENTLIG KONTROLL
    </text>
    
    <!-- Oil level -->
    <g transform="translate(20, 60)">
      <rect x="8" y="5" width="14" height="20" fill="#2c3e50" rx="2"/>
      <rect x="10" y="15" width="10" height="8" fill="#f1c40f"/>
      <text x="40" y="18" font-family="Arial, sans-serif" font-size="14" font-weight="bold" fill="#2c3e50">Oljenivå</text>
      <text x="40" y="33" font-family="Arial, sans-serif" font-size="12" fill="#34495e">Kontroll med målestokk (kald motor)</text>
    </g>
    
    <!-- Coolant -->
    <g transform="translate(20, 100)">
      <rect x="5" y="5" width="20" height="20" fill="#3498db" rx="3"/>
      <rect x="7" y="15" width="16" height="8" fill="#85c1e9"/>
      <text x="40" y="18" font-family="Arial, sans-serif" font-size="14" font-weight="bold" fill="#2c3e50">Kjølevæske</text>
      <text x="40" y="33" font-family="Arial, sans-serif" font-size="12" fill="#34495e">Nivå i ekspansjonstank</text>
    </g>
    
    <!-- Washer fluid -->
    <g transform="translate(20, 140)">
      <rect x="5" y="5" width="20" height="20" fill="#1abc9c" rx="3"/>
      <rect x="7" y="15" width="16" height="8" fill="#76d7c4"/>
      <text x="40" y="18" font-family="Arial, sans-serif" font-size="14" font-weight="bold" fill="#2c3e50">Spylervæske</text>
      <text x="40" y="33" font-family="Arial, sans-serif" font-size="12" fill="#34495e">Etterfyll ved behov</text>
    </g>
    
    <!-- Battery -->
    <g transform="translate(20, 180)">
      <rect x="5" y="8" width="20" height="12" fill="#34495e" rx="2"/>
      <rect x="25" y="12" width="3" height="4" fill="#34495e"/>
      <text x="40" y="18" font-family="Arial, sans-serif" font-size="14" font-weight="bold" fill="#2c3e50">Batteri</text>
      <text x="40" y="33" font-family="Arial, sans-serif" font-size="12" fill="#34495e">Kontroller poler og festing</text>
    </g>
    
    <!-- Tire wear -->
    <g transform="translate(20, 220)">
      <circle cx="15" cy="15" r="12" fill="#34495e"/>
      <path d="M8 15 L22 15 M10 12 L20 12 M10 18 L20 18" stroke="white" stroke-width="1"/>
      <text x="40" y="18" font-family="Arial, sans-serif" font-size="14" font-weight="bold" fill="#2c3e50">Dekkslitasje</text>
      <text x="40" y="33" font-family="Arial, sans-serif" font-size="12" fill="#34495e">Jevn slitasje og mønsterdybde</text>
    </g>
    
    <text x="150" y="290" text-anchor="middle" font-family="Arial, sans-serif" font-size="12" font-style="italic" fill="#7f8c8d">
      ⏱️ Tid: 10-15 minutter
    </text>
  </g>
  
  <!-- Monthly note -->
  <g transform="translate(50, 540)">
    <rect x="0" y="0" width="630" height="45" fill="#f4f9fd" stroke="#3498db" stroke-width="2" rx="10"/>
    <text x="20" y="20" font-family="Arial, sans-serif" font-size="14" font-weight="bold" fill="#3498db">
      MÅNEDLIG KONTROLL:
    </text>
    <text x="20" y="35" font-family="Arial, sans-serif" font-size="12" fill="#2c3e50">
      Bremsevæske (nivå og farge) • Servolje • Luftfilter • Vindusviskerblad
    </text>
  </g>
</svg>