<svg width="800" height="600" viewBox="0 0 800 600" xmlns="http://www.w3.org/2000/svg">
  <defs>
    <linearGradient id="futureGradient" x1="0%" y1="0%" x2="100%" y2="100%">
      <stop offset="0%" style="stop-color:#9b59b6;stop-opacity:1" />
      <stop offset="100%" style="stop-color:#8e44ad;stop-opacity:1" />
    </linearGradient>
    <radialGradient id="smartLightGradient" cx="50%" cy="50%" r="50%">
      <stop offset="0%" style="stop-color:#00ffff;stop-opacity:1" />
      <stop offset="100%" style="stop-color:#0080ff;stop-opacity:0.3" />
    </radialGradient>
  </defs>
  
  <!-- Background -->
  <rect width="800" height="600" fill="#1a1a2e"/>
  
  <!-- Title -->
  <text x="400" y="40" text-anchor="middle" fill="#ffffff" font-family="Arial, sans-serif" font-size="26" font-weight="bold">Fremtidens lysteknologi</text>
  
  <!-- Matrix LED section -->
  <rect x="50" y="70" width="300" height="150" fill="url(#futureGradient)" stroke="#8e44ad" stroke-width="2" rx="10"/>
  <text x="200" y="95" text-anchor="middle" fill="#ffffff" font-family="Arial, sans-serif" font-size="16" font-weight="bold">MATRIX LED-TEKNOLOGI</text>
  
  <!-- Matrix LED illustration -->
  <rect x="80" y="110" width="120" height="60" fill="#2c3e50" stroke="#ecf0f1" stroke-width="2" rx="5"/>
  
  <!-- LED matrix grid -->
  <circle cx="95" cy="125" r="3" fill="#00ffff"/>
  <circle cx="105" cy="125" r="3" fill="#00ffff"/>
  <circle cx="115" cy="125" r="3" fill="#0080ff"/>
  <circle cx="125" cy="125" r="3" fill="#0080ff"/>
  <circle cx="135" cy="125" r="3" fill="#00ffff"/>
  <circle cx="145" cy="125" r="3" fill="#00ffff"/>
  <circle cx="155" cy="125" r="3" fill="#00ffff"/>
  <circle cx="165" cy="125" r="3" fill="#00ffff"/>
  <circle cx="175" cy="125" r="3" fill="#00ffff"/>
  <circle cx="185" cy="125" r="3" fill="#00ffff"/>
  
  <circle cx="95" cy="140" r="3" fill="#00ffff"/>
  <circle cx="105" cy="140" r="3" fill="#00ffff"/>
  <circle cx="115" cy="140" r="3" fill="#333333"/>
  <circle cx="125" cy="140" r="3" fill="#333333"/>
  <circle cx="135" cy="140" r="3" fill="#00ffff"/>
  <circle cx="145" cy="140" r="3" fill="#00ffff"/>
  <circle cx="155" cy="140" r="3" fill="#00ffff"/>
  <circle cx="165" cy="140" r="3" fill="#00ffff"/>
  <circle cx="175" cy="140" r="3" fill="#00ffff"/>
  <circle cx="185" cy="140" r="3" fill="#00ffff"/>
  
  <circle cx="95" cy="155" r="3" fill="#00ffff"/>
  <circle cx="105" cy="155" r="3" fill="#00ffff"/>
  <circle cx="115" cy="155" r="3" fill="#0080ff"/>
  <circle cx="125" cy="155" r="3" fill="#0080ff"/>
  <circle cx="135" cy="155" r="3" fill="#00ffff"/>
  <circle cx="145" cy="155" r="3" fill="#00ffff"/>
  <circle cx="155" cy="155" r="3" fill="#00ffff"/>
  <circle cx="165" cy="155" r="3" fill="#00ffff"/>
  <circle cx="175" cy="155" r="3" fill="#00ffff"/>
  <circle cx="185" cy="155" r="3" fill="#00ffff"/>
  
  <!-- Oncoming car silhouette -->
  <rect x="117" y="135" width="16" height="8" rx="2" fill="#333333"/>
  
  <!-- Features -->
  <text x="220" y="125" fill="#ffffff" font-family="Arial, sans-serif" font-size="11">• Selektiv dimming</text>
  <text x="220" y="140" fill="#ffffff" font-family="Arial, sans-serif" font-size="11">• Ingen blending</text>
  <text x="220" y="155" fill="#ffffff" font-family="Arial, sans-serif" font-size="11">• Maksimal belysning</text>
  <text x="220" y="170" fill="#ffffff" font-family="Arial, sans-serif" font-size="11">• Automatisk tilpasning</text>
  
  <text x="80" y="190" fill="#ecf0f1" font-family="Arial, sans-serif" font-size="10">Hver LED styres individuelt</text>
  <text x="80" y="205" fill="#ecf0f1" font-family="Arial, sans-serif" font-size="10">Optimal lysfordeling</text>
  
  <!-- Adaptive systems section -->
  <rect x="450" y="70" width="300" height="150" fill="url(#futureGradient)" stroke="#8e44ad" stroke-width="2" rx="10"/>
  <text x="600" y="95" text-anchor="middle" fill="#ffffff" font-family="Arial, sans-serif" font-size="16" font-weight="bold">ADAPTIVE SYSTEMER</text>
  
  <!-- Curved road with adaptive lighting -->
  <path d="M 480 130 Q 520 110 560 130 Q 600 150 640 130 Q 680 110 720 130" stroke="#34495e" stroke-width="8" fill="none"/>
  
  <!-- Car following the curve -->
  <rect x="550" y="125" width="25" height="12" rx="2" fill="#3498db"/>
  <circle cx="555" cy="142" r="2" fill="#2c3e50"/>
  <circle cx="570" cy="142" r="2" fill="#2c3e50"/>
  
  <!-- Adaptive light beam following curve -->
  <path d="M 575 120 Q 595 105 615 110 Q 635 115 650 105" stroke="#00ffff" stroke-width="4" opacity="0.7"/>
  <path d="M 575 135 Q 595 145 615 140 Q 635 135 650 145" stroke="#00ffff" stroke-width="4" opacity="0.7"/>
  <ellipse cx="630" cy="115" rx="20" ry="8" fill="url(#smartLightGradient)" opacity="0.5"/>
  
  <!-- Adaptive features -->
  <text x="460" y="165" fill="#ffffff" font-family="Arial, sans-serif" font-size="11">• Kurvefølgende lys</text>
  <text x="460" y="180" fill="#ffffff" font-family="Arial, sans-serif" font-size="11">• Høydejustering</text>
  <text x="460" y="195" fill="#ffffff" font-family="Arial, sans-serif" font-size="11">• Værdeteksjon</text>
  <text x="620" y="165" fill="#ffffff" font-family="Arial, sans-serif" font-size="11">• Trafikktilpasning</text>
  <text x="620" y="180" fill="#ffffff" font-family="Arial, sans-serif" font-size="11">• Hastighetsavhengig</text>
  <text x="620" y="195" fill="#ffffff" font-family="Arial, sans-serif" font-size="11">• AI-styrt optimalisering</text>
  
  <!-- Communication lights section -->
  <rect x="50" y="240" width="350" height="150" fill="#2c3e50" stroke="#e67e22" stroke-width="2" rx="10"/>
  <text x="225" y="265" text-anchor="middle" fill="#e67e22" font-family="Arial, sans-serif" font-size="16" font-weight="bold">KOMMUNIKASJONSLYS</text>
  
  <!-- Future car with communication lights -->
  <rect x="180" y="290" width="40" height="20" rx="5" fill="#34495e"/>
  <circle cx="190" cy="315" r="5" fill="#2c3e50"/>
  <circle cx="210" cy="315" r="5" fill="#2c3e50"/>
  
  <!-- Animated turn signals -->
  <rect x="155" y="295" width="20" height="4" fill="#ff9800" rx="1"/>
  <polygon points="175,297 180,295 180,299" fill="#ff9800"/>
  <text x="135" y="300" fill="#ffffff" font-family="Arial, sans-serif" font-size="8">Animert</text>
  <text x="135" y="310" fill="#ffffff" font-family="Arial, sans-serif" font-size="8">blinklys</text>
  
  <!-- Thank you signal -->
  <rect x="225" y="290" width="15" height="8" fill="#27ae60" rx="2"/>
  <text x="232" y="296" text-anchor="middle" fill="#ffffff" font-family="Arial, sans-serif" font-size="6">THX</text>
  <text x="250" y="295" fill="#ffffff" font-family="Arial, sans-serif" font-size="8">Takk-signal</text>
  
  <!-- Navigation integration -->
  <circle cx="200" cy="275" r="8" fill="#3498db"/>
  <path d="M 196 275 L 200 270 L 204 275 L 200 280 Z" fill="#ffffff"/>
  <text x="215" y="280" fill="#ffffff" font-family="Arial, sans-serif" font-size="8">GPS-lys</text>
  
  <!-- Communication features -->
  <text x="70" y="335" fill="#ffffff" font-family="Arial, sans-serif" font-size="11">FREMTIDENS SIGNALISERING:</text>
  <text x="70" y="350" fill="#ffffff" font-family="Arial, sans-serif" font-size="10">• Animerte retningsindikatorer</text>
  <text x="70" y="365" fill="#ffffff" font-family="Arial, sans-serif" font-size="10">• Høflighets-signaler (takk/unnskyld)</text>
  <text x="250" y="350" fill="#ffffff" font-family="Arial, sans-serif" font-size="10">• Navigasjons-integrasjon</text>
  <text x="250" y="365" fill="#ffffff" font-family="Arial, sans-serif" font-size="10">• Automatisk nødsignalisering</text>
  
  <!-- Autonomous integration section -->
  <rect x="450" y="240" width="300" height="150" fill="#2c3e50" stroke="#16a085" stroke-width="2" rx="10"/>
  <text x="600" y="265" text-anchor="middle" fill="#16a085" font-family="Arial, sans-serif" font-size="16" font-weight="bold">AUTONOM INTEGRASJON</text>
  
  <!-- Autonomous car -->
  <rect x="550" y="290" width="40" height="20" rx="5" fill="#7f8c8d"/>
  <circle cx="560" cy="315" r="5" fill="#2c3e50"/>
  <circle cx="580" cy="315" r="5" fill="#2c3e50"/>
  
  <!-- Sensors -->
  <circle cx="520" cy="300" r="3" fill="#e74c3c"/>
  <circle cx="630" cy="300" r="3" fill="#e74c3c"/>
  <circle cx="570" cy="280" r="3" fill="#e74c3c"/>
  
  <!-- Sensor beams -->
  <path d="M 520 297 L 490 280" stroke="#e74c3c" stroke-width="1" opacity="0.5"/>
  <path d="M 520 303 L 490 320" stroke="#e74c3c" stroke-width="1" opacity="0.5"/>
  <path d="M 630 297 L 660 280" stroke="#e74c3c" stroke-width="1" opacity="0.5"/>
  <path d="M 630 303 L 660 320" stroke="#e74c3c" stroke-width="1" opacity="0.5"/>
  
  <!-- V2X communication -->
  <circle cx="570" cy="270" r="15" fill="none" stroke="#1abc9c" stroke-width="2"/>
  <circle cx="570" cy="270" r="25" fill="none" stroke="#1abc9c" stroke-width="1" opacity="0.5"/>
  <circle cx="570" cy="270" r="35" fill="none" stroke="#1abc9c" stroke-width="1" opacity="0.3"/>
  <text x="570" y="275" text-anchor="middle" fill="#1abc9c" font-family="Arial, sans-serif" font-size="8">V2X</text>
  
  <!-- Integration features -->
  <text x="470" y="335" fill="#ffffff" font-family="Arial, sans-serif" font-size="11">INTELLIGENTE SYSTEMER:</text>
  <text x="470" y="350" fill="#ffffff" font-family="Arial, sans-serif" font-size="10">• Kollisjonsvarsling → lys</text>
  <text x="470" y="365" fill="#ffffff" font-family="Arial, sans-serif" font-size="10">• Automatisk nødbremsing</text>
  <text x="620" y="350" fill="#ffffff" font-family="Arial, sans-serif" font-size="10">• Filassistanse-signaler</text>
  <text x="620" y="365" fill="#ffffff" font-family="Arial, sans-serif" font-size="10">• V2X kommunikasjon</text>
  
  <!-- Timeline section -->
  <rect x="50" y="410" width="700" height="120" fill="#34495e" stroke="#f39c12" stroke-width="2" rx="10"/>
  <text x="400" y="435" text-anchor="middle" fill="#f39c12" font-family="Arial, sans-serif" font-size="18" font-weight="bold">TEKNOLOGISK UTVIKLING</text>
  
  <!-- Timeline -->
  <line x1="100" y1="460" x2="700" y2="460" stroke="#95a5a6" stroke-width="3"/>
  
  <!-- Current -->
  <circle cx="150" cy="460" r="8" fill="#3498db"/>
  <text x="150" y="465" text-anchor="middle" fill="#ffffff" font-family="Arial, sans-serif" font-size="8">I DAG</text>
  <text x="150" y="480" text-anchor="middle" fill="#ffffff" font-family="Arial, sans-serif" font-size="9">LED + Adaptive</text>
  <text x="150" y="495" text-anchor="middle" fill="#ffffff" font-family="Arial, sans-serif" font-size="9">Delvis autonom</text>
  
  <!-- Near future -->
  <circle cx="300" cy="460" r="8" fill="#f39c12"/>
  <text x="300" y="465" text-anchor="middle" fill="#ffffff" font-family="Arial, sans-serif" font-size="8">2025-2030</text>
  <text x="300" y="480" text-anchor="middle" fill="#ffffff" font-family="Arial, sans-serif" font-size="9">Matrix LED</text>
  <text x="300" y="495" text-anchor="middle" fill="#ffffff" font-family="Arial, sans-serif" font-size="9">Kommunikasjonslys</text>
  
  <!-- Medium future -->
  <circle cx="500" cy="460" r="8" fill="#e67e22"/>
  <text x="500" y="465" text-anchor="middle" fill="#ffffff" font-family="Arial, sans-serif" font-size="8">2030-2040</text>
  <text x="500" y="480" text-anchor="middle" fill="#ffffff" font-family="Arial, sans-serif" font-size="9">V2X standard</text>
  <text x="500" y="495" text-anchor="middle" fill="#ffffff" font-family="Arial, sans-serif" font-size="9">AI-optimalisert</text>
  
  <!-- Far future -->
  <circle cx="650" cy="460" r="8" fill="#9b59b6"/>
  <text x="650" y="465" text-anchor="middle" fill="#ffffff" font-family="Arial, sans-serif" font-size="8">2040+</text>
  <text x="650" y="480" text-anchor="middle" fill="#ffffff" font-family="Arial, sans-serif" font-size="9">Helautonome</text>
  <text x="650" y="495" text-anchor="middle" fill="#ffffff" font-family="Arial, sans-serif" font-size="9">kjøretøy</text>
  
  <!-- Benefits box -->
  <rect x="100" y="540" width="600" height="50" fill="#27ae60" stroke="#2ecc71" stroke-width="2" rx="8"/>
  <text x="400" y="560" text-anchor="middle" fill="#ffffff" font-family="Arial, sans-serif" font-size="16" font-weight="bold">FORDELER MED FREMTIDENS LYSTEKNOLOGI</text>
  
  <text x="120" y="580" fill="#ffffff" font-family="Arial, sans-serif" font-size="12">• Færre ulykker gjennom bedre kommunikasjon</text>
  <text x="400" y="580" fill="#ffffff" font-family="Arial, sans-serif" font-size="12">• Redusert energiforbruk</text>
  <text x="580" y="580" fill="#ffffff" font-family="Arial, sans-serif" font-size="12">• Økt komfort</text>
</svg>