<svg width="800" height="600" viewBox="0 0 800 600" xmlns="http://www.w3.org/2000/svg">
  <defs>
    <linearGradient id="flagGradient" x1="0%" y1="0%" x2="100%" y2="100%">
      <stop offset="0%" style="stop-color:#3498db;stop-opacity:1" />
      <stop offset="100%" style="stop-color:#2980b9;stop-opacity:1" />
    </linearGradient>
    <pattern id="norwayFlag" patternUnits="userSpaceOnUse" width="60" height="40">
      <rect width="60" height="40" fill="#ef2b2d"/>
      <rect x="16" y="0" width="8" height="40" fill="#ffffff"/>
      <rect x="0" y="16" width="60" height="8" fill="#ffffff"/>
      <rect x="18" y="0" width="4" height="40" fill="#002868"/>
      <rect x="0" y="18" width="60" height="4" fill="#002868"/>
    </pattern>
    <pattern id="euFlag" patternUnits="userSpaceOnUse" width="60" height="40">
      <rect width="60" height="40" fill="#003399"/>
      <circle cx="15" cy="8" r="2" fill="#ffcc00"/>
      <circle cx="25" cy="6" r="2" fill="#ffcc00"/>
      <circle cx="35" cy="8" r="2" fill="#ffcc00"/>
      <circle cx="45" cy="12" r="2" fill="#ffcc00"/>
      <circle cx="45" cy="20" r="2" fill="#ffcc00"/>
      <circle cx="45" cy="28" r="2" fill="#ffcc00"/>
      <circle cx="35" cy="32" r="2" fill="#ffcc00"/>
      <circle cx="25" cy="34" r="2" fill="#ffcc00"/>
      <circle cx="15" cy="32" r="2" fill="#ffcc00"/>
      <circle cx="5" cy="28" r="2" fill="#ffcc00"/>
      <circle cx="5" cy="20" r="2" fill="#ffcc00"/>
      <circle cx="5" cy="12" r="2" fill="#ffcc00"/>
    </pattern>
  </defs>
  
  <!-- Background -->
  <rect width="800" height="600" fill="#2c3e50"/>
  
  <!-- Title -->
  <text x="400" y="40" text-anchor="middle" fill="#ffffff" font-family="Arial, sans-serif" font-size="26" font-weight="bold">Internasjonale forskjeller i lysregler</text>
  
  <!-- Norway section -->
  <rect x="50" y="80" width="300" height="180" fill="#34495e" stroke="#ef2b2d" stroke-width="3" rx="10"/>
  <text x="200" y="105" text-anchor="middle" fill="#ef2b2d" font-family="Arial, sans-serif" font-size="16" font-weight="bold">NORGE</text>
  
  <!-- Norwegian flag -->
  <rect x="80" y="120" width="60" height="40" fill="url(#norwayFlag)" stroke="#95a5a6" stroke-width="1"/>
  
  <!-- Norwegian car -->
  <rect x="160" y="130" width="35" height="18" rx="4" fill="#2c3e50"/>
  <circle cx="170" cy="153" r="4" fill="#34495e"/>
  <circle cx="185" cy="153" r="4" fill="#34495e"/>
  
  <!-- Norwegian specific lights -->
  <circle cx="198" cy="135" r="3" fill="#ffeb3b"/>
  <circle cx="198" cy="142" r="3" fill="#ffeb3b"/>
  <rect x="193" y="132" width="8" height="2" fill="#e0e0e0"/>
  
  <!-- Norwegian rules -->
  <text x="220" y="130" fill="#ffffff" font-family="Arial, sans-serif" font-size="12" font-weight="bold">NORSKE SÆRREGLER:</text>
  <text x="230" y="145" fill="#ffffff" font-family="Arial, sans-serif" font-size="10">• Nærlys på dagtid siden 1985</text>
  <text x="230" y="160" fill="#ffffff" font-family="Arial, sans-serif" font-size="10">• Strengere regler enn EU</text>
  <text x="230" y="175" fill="#ffffff" font-family="Arial, sans-serif" font-size="10">• Obligatorisk EU-kontroll</text>
  
  <!-- Special conditions -->
  <rect x="60" y="180" width="270" height="70" fill="#2c3e50" stroke="#3498db" stroke-width="1" rx="5"/>
  <text x="195" y="200" text-anchor="middle" fill="#3498db" font-family="Arial, sans-serif" font-size="12" font-weight="bold">SPESIELLE FORHOLD</text>
  <text x="70" y="220" fill="#ffffff" font-family="Arial, sans-serif" font-size="10">• Lange mørke perioder om vinteren</text>
  <text x="70" y="235" fill="#ffffff" font-family="Arial, sans-serif" font-size="10">• Varierende værforhold krever tilpasning</text>
  <text x="70" y="250" fill="#ffffff" font-family="Arial, sans-serif" font-size="10">• Tradisjon for høy sikkerhet</text>
  
  <!-- EU section -->
  <rect x="450" y="80" width="300" height="180" fill="#34495e" stroke="#003399" stroke-width="3" rx="10"/>
  <text x="600" y="105" text-anchor="middle" fill="#003399" font-family="Arial, sans-serif" font-size="16" font-weight="bold">EUROPA (EU)</text>
  
  <!-- EU flag -->
  <rect x="480" y="120" width="60" height="40" fill="url(#euFlag)" stroke="#95a5a6" stroke-width="1"/>
  
  <!-- EU car -->
  <rect x="560" y="130" width="35" height="18" rx="4" fill="#2c3e50"/>
  <circle cx="570" cy="153" r="4" fill="#34495e"/>
  <circle cx="585" cy="153" r="4" fill="#34495e"/>
  
  <!-- EU DRL -->
  <rect x="593" y="132" width="8" height="2" fill="#e0e0e0"/>
  <circle cx="598" cy="135" r="2" fill="#e0e0e0"/>
  <circle cx="598" cy="142" r="2" fill="#ffeb3b"/>
  
  <!-- EU rules -->
  <text x="620" y="130" fill="#ffffff" font-family="Arial, sans-serif" font-size="12" font-weight="bold">EU-STANDARDER:</text>
  <text x="630" y="145" fill="#ffffff" font-family="Arial, sans-serif" font-size="10">• Dagkjørelys påbudt fra 2011</text>
  <text x="630" y="160" fill="#ffffff" font-family="Arial, sans-serif" font-size="10">• Harmoniserte regler</text>
  <text x="630" y="175" fill="#ffffff" font-family="Arial, sans-serif" font-size="10">• ECE-godkjenning</text>
  
  <!-- EU variations -->
  <rect x="460" y="180" width="270" height="70" fill="#2c3e50" stroke="#f39c12" stroke-width="1" rx="5"/>
  <text x="595" y="200" text-anchor="middle" fill="#f39c12" font-family="Arial, sans-serif" font-size="12" font-weight="bold">NASJONALE VARIASJONER</text>
  <text x="470" y="220" fill="#ffffff" font-family="Arial, sans-serif" font-size="10">• Tyskland: Strenge tåkelysregler</text>
  <text x="470" y="235" fill="#ffffff" font-family="Arial, sans-serif" font-size="10">• Frankrike: Tidligere gule frontlys</text>
  <text x="470" y="250" fill="#ffffff" font-family="Arial, sans-serif" font-size="10">• UK: Venstretrafikk påvirker lysjustering</text>
  
  <!-- Comparison table -->
  <rect x="50" y="280" width="700" height="200" fill="#34495e" stroke="#e67e22" stroke-width="3" rx="10"/>
  <text x="400" y="305" text-anchor="middle" fill="#e67e22" font-family="Arial, sans-serif" font-size="18" font-weight="bold">SAMMENLIGNING AV REGLER</text>
  
  <!-- Table headers -->
  <rect x="70" y="320" width="150" height="30" fill="#2c3e50" stroke="#95a5a6" stroke-width="1"/>
  <text x="145" y="340" text-anchor="middle" fill="#ffffff" font-family="Arial, sans-serif" font-size="12" font-weight="bold">REGEL/KRAV</text>
  
  <rect x="220" y="320" width="120" height="30" fill="#ef2b2d" stroke="#95a5a6" stroke-width="1"/>
  <text x="280" y="340" text-anchor="middle" fill="#ffffff" font-family="Arial, sans-serif" font-size="12" font-weight="bold">NORGE</text>
  
  <rect x="340" y="320" width="120" height="30" fill="#003399" stroke="#95a5a6" stroke-width="1"/>
  <text x="400" y="340" text-anchor="middle" fill="#ffffff" font-family="Arial, sans-serif" font-size="12" font-weight="bold">EU/EØS</text>
  
  <rect x="460" y="320" width="120" height="30" fill="#8e44ad" stroke="#95a5a6" stroke-width="1"/>
  <text x="520" y="340" text-anchor="middle" fill="#ffffff" font-family="Arial, sans-serif" font-size="12" font-weight="bold">TYSKLAND</text>
  
  <rect x="580" y="320" width="120" height="30" fill="#16a085" stroke="#95a5a6" stroke-width="1"/>
  <text x="640" y="340" text-anchor="middle" fill="#ffffff" font-family="Arial, sans-serif" font-size="12" font-weight="bold">FRANKRIKE</text>
  
  <!-- DRL row -->
  <rect x="70" y="350" width="150" height="25" fill="#2c3e50" stroke="#95a5a6" stroke-width="1"/>
  <text x="80" y="367" fill="#ffffff" font-family="Arial, sans-serif" font-size="10">Dagkjørelys</text>
  
  <rect x="220" y="350" width="120" height="25" fill="#27ae60" stroke="#95a5a6" stroke-width="1"/>
  <text x="280" y="367" text-anchor="middle" fill="#ffffff" font-family="Arial, sans-serif" font-size="10">Siden 1985</text>
  
  <rect x="340" y="350" width="120" height="25" fill="#f39c12" stroke="#95a5a6" stroke-width="1"/>
  <text x="400" y="367" text-anchor="middle" fill="#ffffff" font-family="Arial, sans-serif" font-size="10">Fra 2011</text>
  
  <rect x="460" y="350" width="120" height="25" fill="#f39c12" stroke="#95a5a6" stroke-width="1"/>
  <text x="520" y="367" text-anchor="middle" fill="#ffffff" font-family="Arial, sans-serif" font-size="10">EU-standard</text>
  
  <rect x="580" y="350" width="120" height="25" fill="#f39c12" stroke="#95a5a6" stroke-width="1"/>
  <text x="640" y="367" text-anchor="middle" fill="#ffffff" font-family="Arial, sans-serif" font-size="10">EU-standard</text>
  
  <!-- Fog lights row -->
  <rect x="70" y="375" width="150" height="25" fill="#2c3e50" stroke="#95a5a6" stroke-width="1"/>
  <text x="80" y="392" fill="#ffffff" font-family="Arial, sans-serif" font-size="10">Tåkelys bak</text>
  
  <rect x="220" y="375" width="120" height="25" fill="#3498db" stroke="#95a5a6" stroke-width="1"/>
  <text x="280" y="392" text-anchor="middle" fill="#ffffff" font-family="Arial, sans-serif" font-size="10">&lt;50m sikt</text>
  
  <rect x="340" y="375" width="120" height="25" fill="#3498db" stroke="#95a5a6" stroke-width="1"/>
  <text x="400" y="392" text-anchor="middle" fill="#ffffff" font-family="Arial, sans-serif" font-size="10">&lt;50m sikt</text>
  
  <rect x="460" y="375" width="120" height="25" fill="#e74c3c" stroke="#95a5a6" stroke-width="1"/>
  <text x="520" y="392" text-anchor="middle" fill="#ffffff" font-family="Arial, sans-serif" font-size="10">Strenge regler</text>
  
  <rect x="580" y="375" width="120" height="25" fill="#3498db" stroke="#95a5a6" stroke-width="1"/>
  <text x="640" y="392" text-anchor="middle" fill="#ffffff" font-family="Arial, sans-serif" font-size="10">Standard</text>
  
  <!-- Spare bulbs row -->
  <rect x="70" y="400" width="150" height="25" fill="#2c3e50" stroke="#95a5a6" stroke-width="1"/>
  <text x="80" y="417" fill="#ffffff" font-family="Arial, sans-serif" font-size="10">Reservepærer</text>
  
  <rect x="220" y="400" width="120" height="25" fill="#e67e22" stroke="#95a5a6" stroke-width="1"/>
  <text x="280" y="417" text-anchor="middle" fill="#ffffff" font-family="Arial, sans-serif" font-size="10">Anbefalt</text>
  
  <rect x="340" y="400" width="120" height="25" fill="#e67e22" stroke="#95a5a6" stroke-width="1"/>
  <text x="400" y="417" text-anchor="middle" fill="#ffffff" font-family="Arial, sans-serif" font-size="10">Varierer</text>
  
  <rect x="460" y="400" width="120" height="25" fill="#27ae60" stroke="#95a5a6" stroke-width="1"/>
  <text x="520" y="417" text-anchor="middle" fill="#ffffff" font-family="Arial, sans-serif" font-size="10">Påkrevd</text>
  
  <rect x="580" y="400" width="120" height="25" fill="#27ae60" stroke="#95a5a6" stroke-width="1"/>
  <text x="640" y="417" text-anchor="middle" fill="#ffffff" font-family="Arial, sans-serif" font-size="10">Påkrevd</text>
  
  <!-- Penalties row -->
  <rect x="70" y="425" width="150" height="25" fill="#2c3e50" stroke="#95a5a6" stroke-width="1"/>
  <text x="80" y="442" fill="#ffffff" font-family="Arial, sans-serif" font-size="10">Bøter (defekte lys)</text>
  
  <rect x="220" y="425" width="120" height="25" fill="#e74c3c" stroke="#95a5a6" stroke-width="1"/>
  <text x="280" y="442" text-anchor="middle" fill="#ffffff" font-family="Arial, sans-serif" font-size="10">1,350 kr</text>
  
  <rect x="340" y="425" width="120" height="25" fill="#f39c12" stroke="#95a5a6" stroke-width="1"/>
  <text x="400" y="442" text-anchor="middle" fill="#ffffff" font-family="Arial, sans-serif" font-size="10">Varierer</text>
  
  <rect x="460" y="425" width="120" height="25" fill="#e74c3c" stroke="#95a5a6" stroke-width="1"/>
  <text x="520" y="442" text-anchor="middle" fill="#ffffff" font-family="Arial, sans-serif" font-size="10">Høye bøter</text>
  
  <rect x="580" y="425" width="120" height="25" fill="#f39c12" stroke="#95a5a6" stroke-width="1"/>
  <text x="640" y="442" text-anchor="middle" fill="#ffffff" font-family="Arial, sans-serif" font-size="10">Moderat</text>
  
  <!-- Travel preparation section -->
  <rect x="50" y="500" width="700" height="80" fill="#8e44ad" stroke="#9b59b6" stroke-width="2" rx="8"/>
  <text x="400" y="525" text-anchor="middle" fill="#ffffff" font-family="Arial, sans-serif" font-size="16" font-weight="bold">FORBEREDELSER TIL UTENLANDSREISER</text>
  
  <!-- Checklist items -->
  <text x="70" y="545" fill="#ffffff" font-family="Arial, sans-serif" font-size="12">VIKTIG SJEKKLISTE:</text>
  
  <circle cx="90" cy="560" r="3" fill="#27ae60"/>
  <text x="90" y="565" text-anchor="middle" fill="#ffffff" font-family="Arial, sans-serif" font-size="8">✓</text>
  <text x="105" y="565" fill="#ffffff" font-family="Arial, sans-serif" font-size="10">Lysjustering for høyre-/venstretrafikk</text>
  
  <circle cx="320" cy="560" r="3" fill="#27ae60"/>
  <text x="320" y="565" text-anchor="middle" fill="#ffffff" font-family="Arial, sans-serif" font-size="8">✓</text>
  <text x="335" y="565" fill="#ffffff" font-family="Arial, sans-serif" font-size="10">Reservepærer (hvor påkrevd)</text>
  
  <circle cx="520" cy="560" r="3" fill="#27ae60"/>
  <text x="520" y="565" text-anchor="middle" fill="#ffffff" font-family="Arial, sans-serif" font-size="8">✓</text>
  <text x="535" y="565" fill="#ffffff" font-family="Arial, sans-serif" font-size="10">Refleksvest (obligatorisk flere steder)</text>
  
  <!-- Bottom note -->
  <text x="400" y="595" text-anchor="middle" fill="#f39c12" font-family="Arial, sans-serif" font-size="12" font-weight="bold">Sjekk alltid lokale regler før utenlandsreise!</text>
</svg>