<svg width="800" height="500" viewBox="0 0 800 500" xmlns="http://www.w3.org/2000/svg">
  <!-- Background -->
  <rect width="800" height="500" fill="#f8f9fa"/>
  
  <!-- Title -->
  <text x="400" y="40" text-anchor="middle" font-family="Arial, sans-serif" font-size="24" font-weight="bold" fill="#2c3e50">
    Festeøyer og ankerpunkter i bagasjerom
  </text>
  
  <!-- Car trunk outline -->
  <g transform="translate(200, 80)">
    <!-- Trunk shape -->
    <path d="M0 200 L0 50 Q0 30 20 30 L380 30 Q400 30 400 50 L400 200 Q400 220 380 220 L20 220 Q0 220 0 200 Z" 
          fill="#ecf0f1" stroke="#2c3e50" stroke-width="3"/>
    
    <!-- Trunk floor -->
    <rect x="20" y="180" width="360" height="30" fill="#bdc3c7"/>
    
    <!-- Festeøyer (tie-down points) -->
    <!-- Front left -->
    <circle cx="60" cy="195" r="8" fill="#e74c3c" stroke="#c0392b" stroke-width="2"/>
    <text x="60" y="200" text-anchor="middle" font-family="Arial, sans-serif" font-size="10" font-weight="bold" fill="white">1</text>
    
    <!-- Front right -->
    <circle cx="340" cy="195" r="8" fill="#e74c3c" stroke="#c0392b" stroke-width="2"/>
    <text x="340" y="200" text-anchor="middle" font-family="Arial, sans-serif" font-size="10" font-weight="bold" fill="white">2</text>
    
    <!-- Rear left -->
    <circle cx="60" cy="70" r="8" fill="#e74c3c" stroke="#c0392b" stroke-width="2"/>
    <text x="60" y="75" text-anchor="middle" font-family="Arial, sans-serif" font-size="10" font-weight="bold" fill="white">3</text>
    
    <!-- Rear right -->
    <circle cx="340" cy="70" r="8" fill="#e74c3c" stroke="#c0392b" stroke-width="2"/>
    <text x="340" y="75" text-anchor="middle" font-family="Arial, sans-serif" font-size="10" font-weight="bold" fill="white">4</text>
    
    <!-- Center points (optional) -->
    <circle cx="200" cy="195" r="6" fill="#f39c12" stroke="#e67e22" stroke-width="2"/>
    <text x="200" y="199" text-anchor="middle" font-family="Arial, sans-serif" font-size="8" font-weight="bold" fill="white">5</text>
    
    <circle cx="200" cy="70" r="6" fill="#f39c12" stroke="#e67e22" stroke-width="2"/>
    <text x="200" y="74" text-anchor="middle" font-family="Arial, sans-serif" font-size="8" font-weight="bold" fill="white">6</text>
    
    <!-- Sample cargo -->
    <rect x="150" y="120" width="100" height="50" fill="#3498db" stroke="#2980b9" stroke-width="2" rx="5"/>
    <text x="200" y="150" text-anchor="middle" font-family="Arial, sans-serif" font-size="12" font-weight="bold" fill="white">LAST</text>
    
    <!-- Straps illustration -->
    <path d="M60 195 Q150 140 200 120" stroke="#27ae60" stroke-width="3" fill="none"/>
    <path d="M340 195 Q250 140 200 120" stroke="#27ae60" stroke-width="3" fill="none"/>
    <path d="M60 70 Q150 115 200 120" stroke="#27ae60" stroke-width="3" fill="none"/>
    <path d="M340 70 Q250 115 200 120" stroke="#27ae60" stroke-width="3" fill="none"/>
  </g>
  
  <!-- Legend -->
  <g transform="translate(50, 350)">
    <text x="0" y="0" font-family="Arial, sans-serif" font-size="16" font-weight="bold" fill="#2c3e50">Forklaring:</text>
    
    <circle cx="20" cy="25" r="8" fill="#e74c3c"/>
    <text x="40" y="30" font-family="Arial, sans-serif" font-size="12" fill="#2c3e50">Hovedfesteøyer (400-800 kg kapasitet)</text>
    
    <circle cx="20" cy="50" r="6" fill="#f39c12"/>
    <text x="40" y="55" font-family="Arial, sans-serif" font-size="12" fill="#2c3e50">Ekstra festeøyer (200-400 kg kapasitet)</text>
    
    <path d="M15 75 L35 75" stroke="#27ae60" stroke-width="3"/>
    <text x="40" y="80" font-family="Arial, sans-serif" font-size="12" fill="#2c3e50">Spennstropper</text>
  </g>
  
  <!-- Specifications -->
  <g transform="translate(450, 350)">
    <rect x="0" y="0" width="300" height="100" fill="#fff3cd" stroke="#ffc107" stroke-width="2" rx="5"/>
    <text x="150" y="20" text-anchor="middle" font-family="Arial, sans-serif" font-size="14" font-weight="bold" fill="#856404">
      Tekniske spesifikasjoner
    </text>
    <text x="10" y="40" font-family="Arial, sans-serif" font-size="11" fill="#856404">• Statisk belastning: 400-800 kg per øye</text>
    <text x="10" y="55" font-family="Arial, sans-serif" font-size="11" fill="#856404">• Dynamisk belastning: 150-200 kg ved kollisjon</text>
    <text x="10" y="70" font-family="Arial, sans-serif" font-size="11" fill="#856404">• Minimum 4 øyer i alle moderne biler</text>
    <text x="10" y="85" font-family="Arial, sans-serif" font-size="11" fill="#856404">• Kryssfesting anbefales for optimal stabilitet</text>
  </g>
  
  <!-- Bottom note -->
  <text x="400" y="480" text-anchor="middle" font-family="Arial, sans-serif" font-size="12" fill="#7f8c8d">
    Bruk alltid festeøyene som primære festepunkter for sikker lastsikring
  </text>
</svg>