<svg width="800" height="600" xmlns="http://www.w3.org/2000/svg">
  <rect width="800" height="600" fill="#f8f9fa"/>
  
  <!-- Title -->
  <text x="400" y="40" text-anchor="middle" font-family="Arial, sans-serif" font-size="28" font-weight="bold" fill="#2c3e50">
    Fordeler med regelmessig vedlikehold
  </text>
  
  <!-- Central car icon -->
  <g transform="translate(350, 250)">
    <!-- Car body -->
    <ellipse cx="50" cy="20" rx="60" ry="25" fill="#3498db"/>
    <rect x="20" y="0" width="60" height="30" fill="#2980b9" rx="15"/>
    <!-- Windows -->
    <rect x="30" y="5" width="40" height="15" fill="#ecf0f1" rx="5"/>
    <!-- Wheels -->
    <circle cx="25" cy="35" r="8" fill="#34495e"/>
    <circle cx="75" cy="35" r="8" fill="#34495e"/>
  </g>
  
  <!-- Sikkerhet (top left) -->
  <g transform="translate(80, 80)">
    <circle cx="80" cy="80" r="70" fill="#e8f5e8" stroke="#27ae60" stroke-width="3"/>
    <g transform="translate(50, 50)">
      <!-- Shield icon -->
      <path d="M30 10 L50 10 L60 20 L60 50 L40 60 L20 50 L20 20 Z" fill="#27ae60"/>
      <text x="40" y="40" text-anchor="middle" font-family="Arial, sans-serif" font-size="18" font-weight="bold" fill="white">✓</text>
    </g>
    <text x="80" y="170" text-anchor="middle" font-family="Arial, sans-serif" font-size="18" font-weight="bold" fill="#27ae60">
      SIKKERHET
    </text>
    <text x="80" y="190" text-anchor="middle" font-family="Arial, sans-serif" font-size="12" fill="#2c3e50">
      Redusert ulykkesrisiko
    </text>
    <text x="80" y="205" text-anchor="middle" font-family="Arial, sans-serif" font-size="12" fill="#2c3e50">
      Pålitelige sikkerhetssystemer
    </text>
  </g>
  
  <!-- Økonomi (top right) -->
  <g transform="translate(560, 80)">
    <circle cx="80" cy="80" r="70" fill="#fff3cd" stroke="#f39c12" stroke-width="3"/>
    <g transform="translate(50, 50)">
      <!-- Money icon -->
      <circle cx="40" cy="40" r="25" fill="#f39c12"/>
      <text x="40" y="48" text-anchor="middle" font-family="Arial, sans-serif" font-size="20" font-weight="bold" fill="white">kr</text>
    </g>
    <text x="80" y="170" text-anchor="middle" font-family="Arial, sans-serif" font-size="18" font-weight="bold" fill="#f39c12">
      ØKONOMI
    </text>
    <text x="80" y="190" text-anchor="middle" font-family="Arial, sans-serif" font-size="12" fill="#2c3e50">
      Lavere reparasjonskostnader
    </text>
    <text x="80" y="205" text-anchor="middle" font-family="Arial, sans-serif" font-size="12" fill="#2c3e50">
      Høyere videresalgsverdi
    </text>
  </g>
  
  <!-- Driftssikkerhet (bottom left) -->
  <g transform="translate(80, 400)">
    <circle cx="80" cy="80" r="70" fill="#e1f5fe" stroke="#3498db" stroke-width="3"/>
    <g transform="translate(50, 50)">
      <!-- Wrench icon -->
      <rect x="30" y="35" width="20" height="10" fill="#3498db" transform="rotate(45 40 40)"/>
      <circle cx="35" cy="35" r="8" fill="none" stroke="#3498db" stroke-width="3"/>
      <circle cx="45" cy="45" r="8" fill="none" stroke="#3498db" stroke-width="3"/>
    </g>
    <text x="80" y="170" text-anchor="middle" font-family="Arial, sans-serif" font-size="18" font-weight="bold" fill="#3498db">
      DRIFTSSIKKERHET
    </text>
    <text x="80" y="190" text-anchor="middle" font-family="Arial, sans-serif" font-size="12" fill="#2c3e50">
      Forebygger breakdowns
    </text>
    <text x="80" y="205" text-anchor="middle" font-family="Arial, sans-serif" font-size="12" fill="#2c3e50">
      Høyere pålitelighet
    </text>
  </g>
  
  <!-- Miljø (bottom right) -->
  <g transform="translate(560, 400)">
    <circle cx="80" cy="80" r="70" fill="#e8f8f5" stroke="#1abc9c" stroke-width="3"/>
    <g transform="translate(50, 50)">
      <!-- Leaf icon -->
      <path d="M25 50 Q25 25 40 20 Q55 25 55 50 Q40 55 25 50" fill="#1abc9c"/>
      <line x1="40" y1="35" x2="40" y2="50" stroke="#16a085" stroke-width="2"/>
    </g>
    <text x="80" y="170" text-anchor="middle" font-family="Arial, sans-serif" font-size="18" font-weight="bold" fill="#1abc9c">
      MILJØ
    </text>
    <text x="80" y="190" text-anchor="middle" font-family="Arial, sans-serif" font-size="12" fill="#2c3e50">
      Lavere utslipp
    </text>
    <text x="80" y="205" text-anchor="middle" font-family="Arial, sans-serif" font-size="12" fill="#2c3e50">
      Redusert forbruk
    </text>
  </g>
  
  <!-- Connecting arrows -->
  <g stroke="#95a5a6" stroke-width="2" fill="none" marker-end="url(#arrowhead)">
    <defs>
      <marker id="arrowhead" markerWidth="10" markerHeight="7" refX="10" refY="3.5" orient="auto">
        <polygon points="0 0, 10 3.5, 0 7" fill="#95a5a6"/>
      </marker>
    </defs>
    <!-- From sikkerhet to car -->
    <path d="M200 160 Q280 200 350 280"/>
    <!-- From økonomi to car -->
    <path d="M600 160 Q520 200 450 280"/>
    <!-- From driftssikkerhet to car -->
    <path d="M200 440 Q280 400 350 320"/>
    <!-- From miljø to car -->
    <path d="M600 440 Q520 400 450 320"/>
  </g>
</svg>