<svg width="800" height="600" viewBox="0 0 800 600" xmlns="http://www.w3.org/2000/svg">
  <defs>
    <linearGradient id="planGradient" x1="0%" y1="0%" x2="100%" y2="100%">
      <stop offset="0%" style="stop-color:#E8F5E8;stop-opacity:1" />
      <stop offset="100%" style="stop-color:#C8E6C9;stop-opacity:1" />
    </linearGradient>
    <marker id="routeArrow" markerWidth="10" markerHeight="10" refX="9" refY="3" orient="auto">
      <path d="M0,0 L0,6 L9,3 z" fill="#4CAF50"/>
    </marker>
  </defs>
  
  <!-- Background -->
  <rect width="800" height="600" fill="url(#planGradient)"/>
  
  <!-- Title -->
  <text x="400" y="40" text-anchor="middle" font-family="Arial, sans-serif" font-size="28" font-weight="bold" fill="#1B5E20">
    Transportplanlegging Strategi
  </text>
  
  <!-- Central home icon -->
  <rect x="380" y="280" width="40" height="40" fill="#795548" stroke="#5D4037" stroke-width="2"/>
  <polygon points="380,280 400,260 420,280" fill="#D84315"/>
  <rect x="390" y="300" width="8" height="12" fill="#5D4037"/>
  <rect x="402" y="295" width="6" height="6" fill="#2196F3"/>
  <text x="400" y="340" text-anchor="middle" font-family="Arial, sans-serif" font-size="14" font-weight="bold" fill="#3E2723">
    HJEM
  </text>
  
  <!-- Destinations around home -->
  
  <!-- Work -->
  <rect x="150" y="120" width="60" height="50" fill="#607D8B" stroke="#455A64" stroke-width="2"/>
  <rect x="155" y="125" width="10" height="8" fill="#2196F3"/>
  <rect x="170" y="125" width="10" height="8" fill="#2196F3"/>
  <rect x="185" y="125" width="10" height="8" fill="#2196F3"/>
  <rect x="155" y="140" width="10" height="8" fill="#2196F3"/>
  <rect x="170" y="140" width="10" height="8" fill="#2196F3"/>
  <rect x="185" y="140" width="10" height="8" fill="#2196F3"/>
  <text x="180" y="185" text-anchor="middle" font-family="Arial, sans-serif" font-size="12" font-weight="bold" fill="#455A64">
    ARBEID
  </text>
  
  <!-- School -->
  <rect x="580" y="140" width="50" height="40" fill="#FF9800" stroke="#F57C00" stroke-width="2"/>
  <polygon points="580,140 605,120 630,140" fill="#D84315"/>
  <rect x="600" y="155" width="10" height="10" fill="#FFF"/>
  <text x="605" y="200" text-anchor="middle" font-family="Arial, sans-serif" font-size="12" font-weight="bold" fill="#E65100">
    SKOLE
  </text>
  
  <!-- Shop -->
  <rect x="120" y="400" width="80" height="50" fill="#E91E63" stroke="#C2185B" stroke-width="2"/>
  <rect x="130" y="415" width="60" height="20" fill="#F8BBD9"/>
  <text x="160" y="430" text-anchor="middle" font-family="Arial, sans-serif" font-size="10" fill="#880E4F">BUTIKK</text>
  <text x="160" y="470" text-anchor="middle" font-family="Arial, sans-serif" font-size="12" font-weight="bold" fill="#AD1457">
    HANDEL
  </text>
  
  <!-- Activity center -->
  <circle cx="650" cy="420" r="30" fill="#9C27B0" stroke="#7B1FA2" stroke-width="2"/>
  <circle cx="650" cy="420" r="15" fill="#CE93D8"/>
  <text x="650" y="425" text-anchor="middle" font-family="Arial, sans-serif" font-size="10" fill="white">⚽</text>
  <text x="650" y="465" text-anchor="middle" font-family="Arial, sans-serif" font-size="12" font-weight="bold" fill="#6A1B9A">
    AKTIVITET
  </text>
  
  <!-- Gas station -->
  <rect x="250" y="480" width="40" height="30" fill="#4CAF50" stroke="#388E3C" stroke-width="2"/>
  <circle cx="270" cy="475" r="8" fill="#2E7D32"/>
  <text x="270" y="525" text-anchor="middle" font-family="Arial, sans-serif" font-size="12" font-weight="bold" fill="#2E7D32">
    BENSIN
  </text>
  
  <!-- Route optimization examples -->
  
  <!-- Bad route (multiple trips) -->
  <g stroke="#F44336" stroke-width="2" fill="none" stroke-dasharray="5,5">
    <path d="M400 300 Q300 200 180 150" marker-end="url(#routeArrow)"/>
    <path d="M180 150 Q300 200 400 300"/>
    <path d="M400 300 Q520 250 605 170" marker-end="url(#routeArrow)"/>
    <path d="M605 170 Q520 250 400 300"/>
    <path d="M400 300 Q280 360 160 430" marker-end="url(#routeArrow)"/>
    <path d="M160 430 Q280 360 400 300"/>
  </g>
  
  <!-- Good route (combined trip) -->
  <g stroke="#4CAF50" stroke-width="3" fill="none">
    <path d="M400 300 Q300 200 180 150 Q450 100 605 170 Q640 300 650 420 Q450 450 270 495 Q330 400 400 300" 
          marker-end="url(#routeArrow)"/>
  </g>
  
  <!-- Legend -->
  <rect x="50" y="50" width="200" height="100" fill="white" stroke="#666" stroke-width="1" rx="5"/>
  <text x="150" y="75" text-anchor="middle" font-family="Arial, sans-serif" font-size="14" font-weight="bold" fill="#333">
    Ruteplanlegging
  </text>
  
  <line x1="70" y1="90" x2="100" y2="90" stroke="#F44336" stroke-width="2" stroke-dasharray="5,5"/>
  <text x="110" y="95" font-family="Arial, sans-serif" font-size="11" fill="#F44336">Flere separate turer</text>
  
  <line x1="70" y1="110" x2="100" y2="110" stroke="#4CAF50" stroke-width="3"/>
  <text x="110" y="115" font-family="Arial, sans-serif" font-size="11" fill="#4CAF50">Kombinerte ærender</text>
  
  <text x="150" y="135" text-anchor="middle" font-family="Arial, sans-serif" font-size="10" fill="#666">
    Spar 30-50% drivstoff!
  </text>
  
  <!-- Planning checklist -->
  <rect x="550" y="50" width="200" height="120" fill="white" stroke="#4CAF50" stroke-width="2" rx="8"/>
  <text x="650" y="75" text-anchor="middle" font-family="Arial, sans-serif" font-size="14" font-weight="bold" fill="#2E7D32">
    Planleggings-tips
  </text>
  
  <text x="570" y="95" font-family="Arial, sans-serif" font-size="11" fill="#388E3C">✓ Kombiner ærender</text>
  <text x="570" y="110" font-family="Arial, sans-serif" font-size="11" fill="#388E3C">✓ Effektive ruter</text>
  <text x="570" y="125" font-family="Arial, sans-serif" font-size="11" fill="#388E3C">✓ Unngå rushtid</text>
  <text x="570" y="140" font-family="Arial, sans-serif" font-size="11" fill="#388E3C">✓ Ugentlig handel</text>
  <text x="570" y="155" font-family="Arial, sans-serif" font-size="11" fill="#388E3C">✓ Samkjør aktiviteter</text>
  
  <!-- Environmental impact -->
  <rect x="300" y="520" width="200" height="60" fill="#E8F5E8" stroke="#4CAF50" stroke-width="2" rx="8"/>
  <text x="400" y="540" text-anchor="middle" font-family="Arial, sans-serif" font-size="14" font-weight="bold" fill="#1B5E20">
    Miljøeffekt
  </text>
  <text x="400" y="555" text-anchor="middle" font-family="Arial, sans-serif" font-size="12" fill="#2E7D32">
    Smart planlegging kan redusere
  </text>
  <text x="400" y="570" text-anchor="middle" font-family="Arial, sans-serif" font-size="12" fill="#2E7D32">
    totale miljøpåvirkning drastisk
  </text>
  
  <!-- Time indicators -->
  <circle cx="180" cy="120" r="15" fill="#FF5722" opacity="0.8"/>
  <text x="180" y="125" text-anchor="middle" font-family="Arial, sans-serif" font-size="10" fill="white">08</text>
  
  <circle cx="605" cy="140" r="15" fill="#FF9800" opacity="0.8"/>
  <text x="605" y="145" text-anchor="middle" font-family="Arial, sans-serif" font-size="10" fill="white">09</text>
  
  <circle cx="160" cy="400" r="15" fill="#E91E63" opacity="0.8"/>
  <text x="160" y="405" text-anchor="middle" font-family="Arial, sans-serif" font-size="10" fill="white">10</text>
  
  <circle cx="650" cy="420" r="15" fill="#9C27B0" opacity="0.8"/>
  <text x="650" y="425" text-anchor="middle" font-family="Arial, sans-serif" font-size="10" fill="white">11</text>
  
  <circle cx="270" cy="480" r="15" fill="#4CAF50" opacity="0.8"/>
  <text x="270" y="485" text-anchor="middle" font-family="Arial, sans-serif" font-size="10" fill="white">12</text>
</svg>