<svg width="600" height="400" xmlns="http://www.w3.org/2000/svg">
  <rect width="100%" height="100%" fill="#f0f8ff" />

  <text x="300" y="40" font-family="Arial, sans-serif" font-size="24" text-anchor="middle" fill="#333">Nødutstyr for Vinterkjøring</text>

  <!-- Utstyrs-ikoner -->

  <!-- 1. Snøskuffe -->
  <g transform="translate(50, 80)">
    <rect x="0" y="0" width="120" height="120" fill="#fff" stroke="#ccc" rx="10"/>
    <path d="M60,30 L60,90 L40,90 L40,70 L80,70 L80,90 L60,90" stroke="#333" stroke-width="4" fill="none"/>
    <rect x="35" y="20" width="50" height="20" fill="#d9534f"/>
    <text x="60" y="110" font-family="Arial, sans-serif" font-size="14" text-anchor="middle">Snøskuffe</text>
  </g>

  <!-- 2. Varme Klær/Teppe -->
  <g transform="translate(200, 80)">
    <rect x="0" y="0" width="120" height="120" fill="#fff" stroke="#ccc" rx="10"/>
    <path d="M20,30 C40,10, 80,10, 100,30 L100,90 L20,90 Z" fill="#28a745"/>
    <path d="M20,50 L100,50" stroke="#fff" stroke-width="3" stroke-dasharray="5,5"/>
    <path d="M20,70 L100,70" stroke="#fff" stroke-width="3" stroke-dasharray="5,5"/>
    <text x="60" y="110" font-family="Arial, sans-serif" font-size="14" text-anchor="middle">Teppe/Klær</text>
  </g>

  <!-- 3. Lommelykt -->
  <g transform="translate(350, 80)">
    <rect x="0" y="0" width="120" height="120" fill="#fff" stroke="#ccc" rx="10"/>
    <rect x="30" y="40" width="60" height="30" fill="#f0ad4e"/>
    <rect x="90" y="45" width="10" height="20" fill="#333"/>
    <path d="M20,40 L30,40" stroke="#333" stroke-width="2"/>
    <path d="M20,70 L30,70" stroke="#333" stroke-width="2"/>
    <text x="60" y="110" font-family="Arial, sans-serif" font-size="14" text-anchor="middle">Lommelykt</text>
  </g>

  <!-- 4. Startkabler -->
  <g transform="translate(50, 230)">
    <rect x="0" y="0" width="120" height="120" fill="#fff" stroke="#ccc" rx="10"/>
    <path d="M30,40 C80,20, 40,100, 90,80" stroke="#d9534f" stroke-width="4" fill="none"/>
    <path d="M30,60 C100,60, 20,100, 90,100" stroke="#333" stroke-width="4" fill="none"/>
    <rect x="20" y="35" width="10" height="10" fill="#d9534f"/>
    <rect x="90" y="75" width="10" height="10" fill="#d9534f"/>
    <rect x="20" y="55" width="10" height="10" fill="#333"/>
    <rect x="90" y="95" width="10" height="10" fill="#333"/>
    <text x="60" y="110" font-family="Arial, sans-serif" font-size="14" text-anchor="middle">Startkabler</text>
  </g>

  <!-- 5. Mat & Drikke -->
  <g transform="translate(200, 230)">
    <rect x="0" y="0" width="120" height="120" fill="#fff" stroke="#ccc" rx="10"/>
    <rect x="30" y="30" width="60" height="20" fill="#5bc0de"/>
    <text x="60" y="45" font-family="Arial, sans-serif" font-size="10">VANN</text>
    <rect x="40" y="60" width="40" height="30" fill="#f0ad4e"/>
    <text x="60" y="80" font-family="Arial, sans-serif" font-size="10">ENERGI</text>
    <text x="60" y="110" font-family="Arial, sans-serif" font-size="14" text-anchor="middle">Mat &amp; Drikke</text>
  </g>

  <!-- 6. Kjetting -->
  <g transform="translate(350, 230)">
    <rect x="0" y="0" width="120" height="120" fill="#fff" stroke="#ccc" rx="10"/>
    <circle cx="60" cy="60" r="30" fill="none" stroke="#333" stroke-width="4"/>
    <line x1="30" y1="60" x2="90" y2="60" stroke="#333" stroke-width="3"/>
    <line x1="60" y1="30" x2="60" y2="90" stroke="#333" stroke-width="3"/>
    <line x1="40" y1="40" x2="80" y2="80" stroke="#333" stroke-width="3"/>
    <line x1="80" y1="40" x2="40" y2="80" stroke="#333" stroke-width="3"/>
    <text x="60" y="110" font-family="Arial, sans-serif" font-size="14" text-anchor="middle">Kjetting</text>
  </g>

  <text x="520" y="200" font-family="Arial, sans-serif" font-size="16" text-anchor="middle">+ Førstehjelp, sand/salt</text>

</svg>