<svg width="800" height="600" viewBox="0 0 800 600" xmlns="http://www.w3.org/2000/svg">
  <defs>
    <linearGradient id="carBodyGradient" x1="0%" y1="0%" x2="100%" y2="100%">
      <stop offset="0%" style="stop-color:#607D8B;stop-opacity:1" />
      <stop offset="100%" style="stop-color:#455A64;stop-opacity:1" />
    </linearGradient>
    <linearGradient id="screenGradient" x1="0%" y1="0%" x2="100%" y2="100%">
      <stop offset="0%" style="stop-color:#263238;stop-opacity:1" />
      <stop offset="100%" style="stop-color:#37474F;stop-opacity:1" />
    </linearGradient>
  </defs>
  
  <!-- Background -->
  <rect width="800" height="600" fill="#F8F9FA"/>
  
  <!-- Title -->
  <text x="400" y="40" text-anchor="middle" font-family="Arial, sans-serif" font-size="28" font-weight="bold" fill="#2C3E50">
    Teknologiske hjelpemidler i bykjøring
  </text>
  
  <!-- Modern car illustration -->
  <path d="M150 120 L650 120 L630 150 L170 150 Z" fill="url(#carBodyGradient)" stroke="#37474F" stroke-width="2"/>
  <path d="M200 120 L600 120 L580 100 L220 100 Z" fill="url(#carBodyGradient)" stroke="#37474F" stroke-width="2"/>
  
  <!-- Car windows -->
  <path d="M230 100 L570 100 L560 115 L240 115 Z" fill="#E3F2FD" stroke="#1976D2" stroke-width="1"/>
  
  <!-- Dashboard screen -->
  <rect x="360" y="105" width="80" height="15" rx="2" fill="url(#screenGradient)"/>
  <rect x="365" y="107" width="70" height="11" fill="#4CAF50"/>
  <text x="400" y="115" text-anchor="middle" font-family="Arial, sans-serif" font-size="6" fill="#FFF">GPS READY</text>
  
  <!-- Adaptive Cruise Control section -->
  <rect x="50" y="180" width="340" height="140" rx="10" fill="#E3F2FD" stroke="#1976D2" stroke-width="2"/>
  <text x="220" y="205" text-anchor="middle" font-family="Arial, sans-serif" font-size="16" font-weight="bold" fill="#1976D2">
    Adaptive Cruise Control (ACC)
  </text>
  
  <!-- ACC illustration -->
  <rect x="80" y="220" width="40" height="20" rx="3" fill="#4CAF50" stroke="#2E7D32" stroke-width="1"/>
  <rect x="150" y="220" width="40" height="20" rx="3" fill="#607D8B" stroke="#455A64" stroke-width="1"/>
  <path d="M120 230 L150 230" stroke="#2196F3" stroke-width="3" fill="none"/>
  <text x="135" y="250" text-anchor="middle" font-family="Arial, sans-serif" font-size="8" fill="#1976D2">Auto-avstand</text>
  
  <text x="70" y="270" font-family="Arial, sans-serif" font-size="12" fill="#333">
    • Automatisk avstandsregulering i kø
  </text>
  <text x="70" y="290" font-family="Arial, sans-serif" font-size="12" fill="#333">
    • Følger forankjørende bil trygt
  </text>
  <text x="70" y="310" font-family="Arial, sans-serif" font-size="12" fill="#333">
    • Reduserer stress i stop-start-trafikk
  </text>
  
  <!-- Blind Spot Monitoring section -->
  <rect x="410" y="180" width="340" height="140" rx="10" fill="#FFF3E0" stroke="#F57C00" stroke-width="2"/>
  <text x="580" y="205" text-anchor="middle" font-family="Arial, sans-serif" font-size="16" font-weight="bold" fill="#F57C00">
    Blindsone-overvåking
  </text>
  
  <!-- BSM illustration -->
  <rect x="440" y="220" width="40" height="20" rx="3" fill="#607D8B" stroke="#455A64" stroke-width="1"/>
  <rect x="460" y="200" width="20" height="10" rx="2" fill="#FF5722" stroke="#D84315" stroke-width="1"/>
  <circle cx="470" cy="205" r="3" fill="#FFF"/>
  <text x="470" y="208" text-anchor="middle" font-family="Arial, sans-serif" font-size="4" fill="#FFF">!</text>
  
  <!-- Warning zones -->
  <path d="M480 220 L530 210 L530 250 L480 240 Z" fill="#FFECB3" stroke="#FFC107" stroke-width="1" opacity="0.7"/>
  <text x="505" y="235" text-anchor="middle" font-family="Arial, sans-serif" font-size="8" fill="#F57C00">Blindsone</text>
  
  <text x="430" y="270" font-family="Arial, sans-serif" font-size="12" fill="#333">
    • Varsler om kjøretøy i døde vinkler
  </text>
  <text x="430" y="290" font-family="Arial, sans-serif" font-size="12" fill="#333">
    • Lys i speil eller vibrasjon i ratt
  </text>
  <text x="430" y="310" font-family="Arial, sans-serif" font-size="12" fill="#333">
    • Spesielt viktig ved feltskifte
  </text>
  
  <!-- Parking assistance section -->
  <rect x="50" y="340" width="340" height="140" rx="10" fill="#F3E5F5" stroke="#7B1FA2" stroke-width="2"/>
  <text x="220" y="365" text-anchor="middle" font-family="Arial, sans-serif" font-size="16" font-weight="bold" fill="#7B1FA2">
    Parkeringsassistanse
  </text>
  
  <!-- Parking illustration -->
  <rect x="80" y="380" width="60" height="30" rx="3" fill="#90A4AE" stroke="#607D8B" stroke-width="1"/>
  <rect x="160" y="380" width="60" height="30" rx="3" fill="#607D8B" stroke="#455A64" stroke-width="1"/>
  <rect x="240" y="380" width="60" height="30" rx="3" fill="#90A4AE" stroke="#607D8B" stroke-width="1"/>
  
  <!-- Parking sensors -->
  <circle cx="160" cy="375" r="3" fill="#4CAF50"/>
  <circle cx="200" cy="375" r="3" fill="#4CAF50"/>
  <circle cx="160" cy="415" r="3" fill="#4CAF50"/>
  <circle cx="200" cy="415" r="3" fill="#4CAF50"/>
  
  <text x="70" y="430" font-family="Arial, sans-serif" font-size="12" fill="#333">
    • Automatisk parallellparkering
  </text>
  <text x="70" y="450" font-family="Arial, sans-serif" font-size="12" fill="#333">
    • Sensorer måler avstand til hindringer
  </text>
  <text x="70" y="470" font-family="Arial, sans-serif" font-size="12" fill="#333">
    • Perfekt for trange bykjøring
  </text>
  
  <!-- 360-degree camera section -->
  <rect x="410" y="340" width="340" height="140" rx="10" fill="#E8F5E8" stroke="#388E3C" stroke-width="2"/>
  <text x="580" y="365" text-anchor="middle" font-family="Arial, sans-serif" font-size="16" font-weight="bold" fill="#388E3C">
    360-graders kamera
  </text>
  
  <!-- 360 camera illustration -->
  <circle cx="580" cy="400" r="40" fill="#4CAF50" stroke="#2E7D32" stroke-width="2"/>
  <circle cx="580" cy="400" r="25" fill="#66BB6A"/>
  <circle cx="580" cy="400" r="15" fill="#81C784"/>
  <text x="580" y="405" text-anchor="middle" font-family="Arial, sans-serif" font-size="10" fill="#FFF">360°</text>
  
  <!-- Camera positions -->
  <circle cx="550" cy="380" r="4" fill="#2196F3"/>
  <circle cx="610" cy="380" r="4" fill="#2196F3"/>
  <circle cx="550" cy="420" r="4" fill="#2196F3"/>
  <circle cx="610" cy="420" r="4" fill="#2196F3"/>
  
  <text x="430" y="450" font-family="Arial, sans-serif" font-size="12" fill="#333">
    • Fugleflyperspektiv av hele bilen
  </text>
  <text x="430" y="470" font-family="Arial, sans-serif" font-size="12" fill="#333">
    • Perfekt oversikt ved trang parkering
  </text>
  
  <!-- Smartphone apps section -->
  <rect x="50" y="500" width="700" height="80" rx="10" fill="#FFE0B2" stroke="#FF9800" stroke-width="2"/>
  <text x="400" y="525" text-anchor="middle" font-family="Arial, sans-serif" font-size="18" font-weight="bold" fill="#F57C00">
    Smartphone-apper for bykjøring
  </text>
  
  <!-- App icons -->
  <rect x="100" y="535" width="30" height="30" rx="5" fill="#4CAF50" stroke="#2E7D32" stroke-width="1"/>
  <text x="115" y="555" text-anchor="middle" font-family="Arial, sans-serif" font-size="8" fill="#FFF">P</text>
  <text x="115" y="572" text-anchor="middle" font-family="Arial, sans-serif" font-size="8" fill="#333">Parkering</text>
  
  <rect x="200" y="535" width="30" height="30" rx="5" fill="#2196F3" stroke="#1565C0" stroke-width="1"/>
  <text x="215" y="555" text-anchor="middle" font-family="Arial, sans-serif" font-size="8" fill="#FFF">GPS</text>
  <text x="215" y="572" text-anchor="middle" font-family="Arial, sans-serif" font-size="8" fill="#333">Navigasjon</text>
  
  <rect x="300" y="535" width="30" height="30" rx="5" fill="#FF9800" stroke="#F57C00" stroke-width="1"/>
  <text x="315" y="555" text-anchor="middle" font-family="Arial, sans-serif" font-size="8" fill="#FFF">⚡</text>
  <text x="315" y="572" text-anchor="middle" font-family="Arial, sans-serif" font-size="8" fill="#333">Drivstoff</text>
  
  <rect x="400" y="535" width="30" height="30" rx="5" fill="#9C27B0" stroke="#7B1FA2" stroke-width="1"/>
  <text x="415" y="555" text-anchor="middle" font-family="Arial, sans-serif" font-size="8" fill="#FFF">🚌</text>
  <text x="415" y="572" text-anchor="middle" font-family="Arial, sans-serif" font-size="8" fill="#333">Kollektiv</text>
  
  <text x="480" y="545" font-family="Arial, sans-serif" font-size="12" fill="#333">
    • EasyPark/Parkman: Finn og betal parkering
  </text>
  <text x="480" y="560" font-family="Arial, sans-serif" font-size="12" fill="#333">
    • Waze/Google Maps: Sanntids trafikk og ruter
  </text>
  
  <!-- Emergency braking illustration (top right of car) -->
  <rect x="550" y="85" width="100" height="40" rx="5" fill="#FFEBEE" stroke="#F44336" stroke-width="1"/>
  <text x="600" y="100" text-anchor="middle" font-family="Arial, sans-serif" font-size="10" font-weight="bold" fill="#D32F2F">
    Auto-nødbrems
  </text>
  <text x="600" y="115" text-anchor="middle" font-family="Arial, sans-serif" font-size="8" fill="#D32F2F">
    Stopper ved kollisjon
  </text>
  
  <!-- Connection lines from car to features -->
  <path d="M580 120 L580 85" stroke="#F44336" stroke-width="2" fill="none" stroke-dasharray="3,3"/>
</svg>