<svg width="700" height="300" viewBox="0 0 700 300" xmlns="http://www.w3.org/2000/svg">
  <!-- Background -->
  <rect width="700" height="300" fill="#f8f9fa"/>
  
  <!-- Title -->
  <text x="350" y="25" font-family="Arial, sans-serif" font-size="18" font-weight="bold" fill="#2c3e50" text-anchor="middle">
    Distraksjoner under kjøring
  </text>
  
  <!-- Three types of distraction -->
  <g transform="translate(50, 50)">
    <text x="300" y="15" font-family="Arial, sans-serif" font-size="14" font-weight="bold" fill="#2c3e50" text-anchor="middle">
      Tre typer distraksjoner
    </text>
    
    <!-- Visual -->
    <g transform="translate(0, 30)">
      <circle cx="30" cy="20" r="18" fill="#e74c3c" opacity="0.8"/>
      <circle cx="30" cy="20" r="10" fill="white"/>
      <circle cx="30" cy="20" r="5" fill="#2c3e50"/>
      <text x="30" y="50" font-family="Arial, sans-serif" font-size="12" fill="#2c3e50" text-anchor="middle" font-weight="bold">Visuell</text>
      <text x="30" y="65" font-family="Arial, sans-serif" font-size="10" fill="#2c3e50" text-anchor="middle">Blikket rettes</text>
      <text x="30" y="75" font-family="Arial, sans-serif" font-size="10" fill="#2c3e50" text-anchor="middle">bort fra veien</text>
    </g>
    
    <!-- Cognitive -->
    <g transform="translate(200, 30)">
      <circle cx="30" cy="20" r="18" fill="#f39c12" opacity="0.8"/>
      <path d="M 20 15 Q 30 8 40 15 Q 30 25 20 15" fill="white"/>
      <text x="30" y="50" font-family="Arial, sans-serif" font-size="12" fill="#2c3e50" text-anchor="middle" font-weight="bold">Kognitiv</text>
      <text x="30" y="65" font-family="Arial, sans-serif" font-size="10" fill="#2c3e50" text-anchor="middle">Tankene fokuserer</text>
      <text x="30" y="75" font-family="Arial, sans-serif" font-size="10" fill="#2c3e50" text-anchor="middle">på andre ting</text>
    </g>
    
    <!-- Manual -->
    <g transform="translate(400, 30)">
      <circle cx="30" cy="20" r="18" fill="#9b59b6" opacity="0.8"/>
      <rect x="22" y="12" width="16" height="16" fill="white" rx="2"/>
      <text x="30" y="50" font-family="Arial, sans-serif" font-size="12" fill="#2c3e50" text-anchor="middle" font-weight="bold">Manuell</text>
      <text x="30" y="65" font-family="Arial, sans-serif" font-size="10" fill="#2c3e50" text-anchor="middle">Hendene er opptatt</text>
      <text x="30" y="75" font-family="Arial, sans-serif" font-size="10" fill="#2c3e50" text-anchor="middle">med andre oppgaver</text>
    </g>
  </g>
  
  <!-- Mobile phone - all three -->
  <g transform="translate(50, 150)">
    <text x="250" y="15" font-family="Arial, sans-serif" font-size="14" font-weight="bold" fill="#2c3e50" text-anchor="middle">
      Mobiltelefon - Den perfekte distraksjon
    </text>
    
    <!-- Phone illustration -->
    <g transform="translate(200, 25)">
      <rect x="0" y="0" width="40" height="60" fill="#34495e" rx="8"/>
      <rect x="5" y="8" width="30" height="40" fill="#3498db" opacity="0.3"/>
      <circle cx="20" cy="52" r="3" fill="#bdc3c7"/>
      
      <!-- Warning triangles around phone -->
      <g fill="#e74c3c">
        <polygon points="20,-15 30,-5 10,-5"/>
        <polygon points="60,30 70,40 50,40"/>
        <polygon points="20,85 30,75 10,75"/>
        <polygon points="-20,30 -10,40 -30,40"/>
      </g>
      
      <!-- Warning text -->
      <text x="20" y="-20" font-family="Arial, sans-serif" font-size="8" fill="#e74c3c" text-anchor="middle" font-weight="bold">Visuell</text>
      <text x="75" y="35" font-family="Arial, sans-serif" font-size="8" fill="#e74c3c" text-anchor="middle" font-weight="bold">Manuell</text>
      <text x="20" y="95" font-family="Arial, sans-serif" font-size="8" fill="#e74c3c" text-anchor="middle" font-weight="bold">Kognitiv</text>
      <text x="-35" y="35" font-family="Arial, sans-serif" font-size="8" fill="#e74c3c" text-anchor="middle" font-weight="bold">FARLIG!</text>
    </g>
    
    <!-- Statistics -->
    <g transform="translate(300, 40)">
      <text x="0" y="0" font-family="Arial, sans-serif" font-size="11" fill="#2c3e50" font-weight="bold">Mobilbruk øker ulykkesrisikoen:</text>
      <text x="5" y="15" font-family="Arial, sans-serif" font-size="10" fill="#e74c3c">• 4x høyere ved samtale</text>
      <text x="5" y="28" font-family="Arial, sans-serif" font-size="10" fill="#e74c3c">• 8x høyere ved SMS/e-post</text>
      <text x="5" y="41" font-family="Arial, sans-serif" font-size="10" fill="#e74c3c">• 23x høyere ved sosiale medier</text>
    </g>
  </g>
  
  <!-- Other distractions -->
  <g transform="translate(50, 230)">
    <text x="300" y="15" font-family="Arial, sans-serif" font-size="14" font-weight="bold" fill="#2c3e50" text-anchor="middle">
      Andre vanlige distraksjoner
    </text>
    
    <!-- Passengers -->
    <g transform="translate(0, 25)">
      <circle cx="15" cy="12" r="10" fill="#3498db"/>
      <text x="15" y="16" font-family="Arial, sans-serif" font-size="8" fill="white" text-anchor="middle">👥</text>
      <text x="70" y="16" font-family="Arial, sans-serif" font-size="10" fill="#2c3e50">Passasjerer - spesielt farlig for unge</text>
    </g>
    
    <!-- Food -->
    <g transform="translate(250, 25)">
      <circle cx="15" cy="12" r="10" fill="#f39c12"/>
      <text x="15" y="16" font-family="Arial, sans-serif" font-size="8" fill="white" text-anchor="middle">🍔</text>
      <text x="70" y="16" font-family="Arial, sans-serif" font-size="10" fill="#2c3e50">Spising og drikking</text>
    </g>
    
    <!-- Radio -->
    <g transform="translate(450, 25)">
      <circle cx="15" cy="12" r="10" fill="#9b59b6"/>
      <text x="15" y="16" font-family="Arial, sans-serif" font-size="8" fill="white" text-anchor="middle">📻</text>
      <text x="70" y="16" font-family="Arial, sans-serif" font-size="10" fill="#2c3e50">Høy musikk/radio</text>
    </g>
  </g>
  
  <!-- Prevention tips -->
  <g transform="translate(50, 285)">
    <rect x="0" y="0" width="600" height="20" fill="#27ae60" rx="5"/>
    <text x="300" y="14" font-family="Arial, sans-serif" font-size="11" fill="white" text-anchor="middle" font-weight="bold">
      TIPS: Slå av telefonen, forbered deg før start, fokuser 100% på kjøringen
    </text>
  </g>
</svg>