<svg width="800" height="700" viewBox="0 0 800 700" xmlns="http://www.w3.org/2000/svg">
  <!-- Background -->
  <rect width="800" height="700" fill="#f8f9fa"/>
  
  <!-- Title -->
  <text x="400" y="40" text-anchor="middle" font-family="Arial, sans-serif" font-size="24" font-weight="bold" fill="#2c3e50">
    Møteulykker under Ulike Værforhold
  </text>
  
  <!-- Winter conditions -->
  <g id="winter">
    <rect x="50" y="80" width="330" height="180" fill="#e3f2fd" stroke="#2196f3" stroke-width="2" rx="10"/>
    <text x="215" y="110" text-anchor="middle" font-family="Arial, sans-serif" font-size="18" font-weight="bold" fill="#1565c0">
      Vinterforhold ❄️
    </text>
    
    <!-- Winter road -->
    <rect x="70" y="130" width="290" height="60" fill="#b0bec5"/>
    <line x1="70" y1="160" x2="360" y2="160" stroke="#fff" stroke-width="2" stroke-dasharray="15,10"/>
    
    <!-- Car sliding -->
    <rect x="150" y="145" width="60" height="25" fill="#2196f3" rx="3"/>
    <circle cx="165" cy="175" r="8" fill="#37474f"/>
    <circle cx="195" cy="175" r="8" fill="#37474f"/>
    <!-- Skid marks -->
    <path d="M120 155 Q140 150 150 155" stroke="#37474f" stroke-width="2" fill="none"/>
    <path d="M120 165 Q140 160 150 165" stroke="#37474f" stroke-width="2" fill="none"/>
    
    <text x="70" y="210" font-family="Arial, sans-serif" font-size="12" fill="#1565c0" font-weight="bold">
      Risikofaktorer:
    </text>
    <text x="70" y="225" font-family="Arial, sans-serif" font-size="11" fill="#37474f">
      • Redusert friksjon (is/snø)
    </text>
    <text x="70" y="240" font-family="Arial, sans-serif" font-size="11" fill="#37474f">
      • 5x lengre bremselengde
    </text>
    <text x="70" y="255" font-family="Arial, sans-serif" font-size="11" fill="#37474f">
      • Dårlig sikt ved snøfall
    </text>
  </g>
  
  <!-- Rain conditions -->
  <g id="rain">
    <rect x="420" y="80" width="330" height="180" fill="#e8f5e8" stroke="#4caf50" stroke-width="2" rx="10"/>
    <text x="585" y="110" text-anchor="middle" font-family="Arial, sans-serif" font-size="18" font-weight="bold" fill="#2e7d32">
      Regnvær 🌧️
    </text>
    
    <!-- Wet road -->
    <rect x="440" y="130" width="290" height="60" fill="#455a64"/>
    <line x1="440" y1="160" x2="730" y2="160" stroke="#fff" stroke-width="2" stroke-dasharray="15,10"/>
    <!-- Water puddles -->
    <ellipse cx="500" cy="175" rx="20" ry="5" fill="#0277bd" opacity="0.7"/>
    <ellipse cx="650" cy="175" rx="30" ry="8" fill="#0277bd" opacity="0.7"/>
    
    <!-- Car with aquaplaning -->
    <rect x="570" y="145" width="60" height="25" fill="#4caf50" rx="3"/>
    <circle cx="585" cy="175" r="8" fill="#37474f"/>
    <circle cx="615" cy="175" r="8" fill="#37474f"/>
    <!-- Water spray -->
    <path d="M630 155 Q640 150 650 155" stroke="#0277bd" stroke-width="2" fill="none" opacity="0.7"/>
    <path d="M630 165 Q645 160 655 165" stroke="#0277bd" stroke-width="2" fill="none" opacity="0.7"/>
    
    <text x="440" y="210" font-family="Arial, sans-serif" font-size="12" fill="#2e7d32" font-weight="bold">
      Risikofaktorer:
    </text>
    <text x="440" y="225" font-family="Arial, sans-serif" font-size="11" fill="#37474f">
      • Aquaplaning på varme veier
    </text>
    <text x="440" y="240" font-family="Arial, sans-serif" font-size="11" fill="#37474f">
      • Redusert sikt ved kraftig regn
    </text>
    <text x="440" y="255" font-family="Arial, sans-serif" font-size="11" fill="#37474f">
      • Økt bremselengde
    </text>
  </g>
  
  <!-- Fog conditions -->
  <g id="fog">
    <rect x="50" y="280" width="330" height="180" fill="#f3e5f5" stroke="#9c27b0" stroke-width="2" rx="10"/>
    <text x="215" y="310" text-anchor="middle" font-family="Arial, sans-serif" font-size="18" font-weight="bold" fill="#7b1fa2">
      Tåke 🌫️
    </text>
    
    <!-- Foggy road -->
    <rect x="70" y="330" width="290" height="60" fill="#90a4ae"/>
    <line x1="70" y1="360" x2="360" y2="360" stroke="#fff" stroke-width="2" stroke-dasharray="15,10"/>
    <!-- Fog effect -->
    <rect x="70" y="330" width="290" height="60" fill="#fff" opacity="0.6"/>
    
    <!-- Car with poor visibility -->
    <rect x="150" y="345" width="60" height="25" fill="#9c27b0" rx="3"/>
    <circle cx="165" cy="375" r="8" fill="#37474f"/>
    <circle cx="195" cy="375" r="8" fill="#37474f"/>
    <!-- Headlight beams -->
    <path d="M150 355 L120 350 Q110 355 120 360 L150 365" fill="#fff" opacity="0.8"/>
    
    <text x="70" y="410" font-family="Arial, sans-serif" font-size="12" fill="#7b1fa2" font-weight="bold">
      Risikofaktorer:
    </text>
    <text x="70" y="425" font-family="Arial, sans-serif" font-size="11" fill="#37474f">
      • Drastisk redusert sikt (&lt;50m)
    </text>
    <text x="70" y="440" font-family="Arial, sans-serif" font-size="11" fill="#37474f">
      • Sen oppdagelse av motgående
    </text>
    <text x="70" y="455" font-family="Arial, sans-serif" font-size="11" fill="#37474f">
      • Feil lysbruk forverrer sikt
    </text>
  </g>
  
  <!-- Sun glare conditions -->
  <g id="sun">
    <rect x="420" y="280" width="330" height="180" fill="#fff8e1" stroke="#ff9800" stroke-width="2" rx="10"/>
    <text x="585" y="310" text-anchor="middle" font-family="Arial, sans-serif" font-size="18" font-weight="bold" fill="#e65100">
      Sollys/Blending ☀️
    </text>
    
    <!-- Sunny road -->
    <rect x="440" y="330" width="290" height="60" fill="#bfbfbf"/>
    <line x1="440" y1="360" x2="730" y2="360" stroke="#fff" stroke-width="2" stroke-dasharray="15,10"/>
    <!-- Sun rays -->
    <path d="M580 320 L570 340 M590 320 L600 340 M600 320 L610 340" stroke="#ff9800" stroke-width="3" opacity="0.8"/>
    
    <!-- Car with sun glare -->
    <rect x="570" y="345" width="60" height="25" fill="#ff9800" rx="3"/>
    <circle cx="585" cy="375" r="8" fill="#37474f"/>
    <circle cx="615" cy="375" r="8" fill="#37474f"/>
    
    <text x="440" y="410" font-family="Arial, sans-serif" font-size="12" fill="#e65100" font-weight="bold">
      Risikofaktorer:
    </text>
    <text x="440" y="425" font-family="Arial, sans-serif" font-size="11" fill="#37474f">
      • Blendende lav sol
    </text>
    <text x="440" y="440" font-family="Arial, sans-serif" font-size="11" fill="#37474f">
      • Skyggepartier som skjuler biler
    </text>
    <text x="440" y="455" font-family="Arial, sans-serif" font-size="11" fill="#37474f">
      • Reflektion fra våt asfalt
    </text>
  </g>
  
  <!-- Risk level indicator -->
  <rect x="50" y="480" width="700" height="180" fill="#fff" stroke="#6c757d" stroke-width="2" rx="10"/>
  <text x="400" y="510" text-anchor="middle" font-family="Arial, sans-serif" font-size="20" font-weight="bold" fill="#495057">
    Risikonivå og Forebyggende Tiltak
  </text>
  
  <!-- Risk bars -->
  <g id="risk-levels">
    <!-- Winter - Highest risk -->
    <rect x="80" y="530" width="120" height="20" fill="#dc3545"/>
    <text x="140" y="545" text-anchor="middle" font-family="Arial, sans-serif" font-size="12" font-weight="bold" fill="#fff">
      Vinter - Høyest
    </text>
    
    <!-- Fog - High risk -->
    <rect x="220" y="530" width="100" height="20" fill="#fd7e14"/>
    <text x="270" y="545" text-anchor="middle" font-family="Arial, sans-serif" font-size="12" font-weight="bold" fill="#fff">
      Tåke - Høy
    </text>
    
    <!-- Rain - Medium risk -->
    <rect x="340" y="530" width="80" height="20" fill="#ffc107"/>
    <text x="380" y="545" text-anchor="middle" font-family="Arial, sans-serif" font-size="12" font-weight="bold" fill="#212529">
      Regn - Middels
    </text>
    
    <!-- Sun - Lower risk -->
    <rect x="440" y="530" width="60" height="20" fill="#28a745"/>
    <text x="470" y="545" text-anchor="middle" font-family="Arial, sans-serif" font-size="12" font-weight="bold" fill="#fff">
      Sol - Lav
    </text>
  </g>
  
  <!-- Prevention measures -->
  <text x="400" y="580" text-anchor="middle" font-family="Arial, sans-serif" font-size="16" font-weight="bold" fill="#495057">
    Generelle Forebyggende Tiltak
  </text>
  
  <text x="80" y="600" font-family="Arial, sans-serif" font-size="14" fill="#495057" font-weight="bold">
    ✓ Reduser hastighet betydelig
  </text>
  <text x="80" y="615" font-family="Arial, sans-serif" font-size="14" fill="#495057" font-weight="bold">
    ✓ Øk følgeavstand til 6-8 sekunder
  </text>
  <text x="400" y="600" font-family="Arial, sans-serif" font-size="14" fill="#495057" font-weight="bold">
    ✓ Bruk korrekt lys for forholdene
  </text>
  <text x="400" y="615" font-family="Arial, sans-serif" font-size="14" fill="#495057" font-weight="bold">
    ✓ Vurder å utsette turen
  </text>
  
  <text x="80" y="635" font-family="Arial, sans-serif" font-size="14" fill="#495057" font-weight="bold">
    ✓ Sjekk dekk og utstyr før avreise
  </text>
  <text x="400" y="635" font-family="Arial, sans-serif" font-size="14" fill="#495057" font-weight="bold">
    ✓ Vær ekstra oppmerksom på andre
  </text>
</svg>