<svg width="800" height="600" viewBox="0 0 800 600" xmlns="http://www.w3.org/2000/svg">
  <defs>
    <linearGradient id="futureGradient" x1="0%" y1="0%" x2="100%" y2="100%">
      <stop offset="0%" style="stop-color:#7C4DFF;stop-opacity:1" />
      <stop offset="100%" style="stop-color:#3F51B5;stop-opacity:1" />
    </linearGradient>
    <linearGradient id="smartGradient" x1="0%" y1="0%" x2="100%" y2="100%">
      <stop offset="0%" style="stop-color:#00BCD4;stop-opacity:1" />
      <stop offset="100%" style="stop-color:#0097A7;stop-opacity:1" />
    </linearGradient>
    <linearGradient id="greenGradient" x1="0%" y1="0%" x2="100%" y2="100%">
      <stop offset="0%" style="stop-color:#4CAF50;stop-opacity:1" />
      <stop offset="100%" style="stop-color:#2E7D32;stop-opacity:1" />
    </linearGradient>
  </defs>
  
  <!-- Background -->
  <rect width="800" height="600" fill="#F8F9FA"/>
  
  <!-- Title -->
  <text x="400" y="40" text-anchor="middle" font-family="Arial, sans-serif" font-size="28" font-weight="bold" fill="#2C3E50">
    Fremtidens bykjøring
  </text>
  
  <!-- Autonomous vehicles section -->
  <rect x="50" y="70" width="340" height="200" rx="10" fill="#E8EAF6" stroke="#3F51B5" stroke-width="2"/>
  <text x="220" y="95" text-anchor="middle" font-family="Arial, sans-serif" font-size="16" font-weight="bold" fill="#3F51B5">
    Autonome kjøretøy og smart transport
  </text>
  
  <!-- Autonomous car -->
  <rect x="120" y="120" width="60" height="30" rx="5" fill="url(#futureGradient)" stroke="#3F51B5" stroke-width="2"/>
  <circle cx="150" cy="110" r="8" fill="#7C4DFF"/>
  <text x="150" y="115" text-anchor="middle" font-family="Arial, sans-serif" font-size="6" fill="#FFF">AUTO</text>
  
  <!-- Sensors and communication -->
  <circle cx="100" cy="135" r="4" fill="#00BCD4" opacity="0.7"/>
  <circle cx="200" cy="135" r="4" fill="#00BCD4" opacity="0.7"/>
  <circle cx="150" cy="100" r="4" fill="#00BCD4" opacity="0.7"/>
  <circle cx="150" cy="170" r="4" fill="#00BCD4" opacity="0.7"/>
  
  <!-- Communication waves -->
  <path d="M100 130 Q80 120 70 135 Q80 150 100 140" stroke="#00BCD4" stroke-width="2" fill="none" opacity="0.5"/>
  <path d="M200 130 Q220 120 230 135 Q220 150 200 140" stroke="#00BCD4" stroke-width="2" fill="none" opacity="0.5"/>
  
  <!-- Smart traffic light -->
  <rect x="280" y="115" width="15" height="40" rx="3" fill="#263238"/>
  <circle cx="287" cy="125" r="4" fill="#4CAF50"/>
  <circle cx="287" cy="135" r="4" fill="#FF9800"/>
  <circle cx="287" cy="145" r="4" fill="#424242"/>
  <rect x="285" y="110" width="5" height="5" fill="#00BCD4"/>
  <text x="287" y="170" text-anchor="middle" font-family="Arial, sans-serif" font-size="8" fill="#00BCD4">Smart</text>
  
  <text x="70" y="175" font-family="Arial, sans-serif" font-size="12" fill="#333">
    • Semi-autonome systemer for kø og parkering
  </text>
  <text x="70" y="195" font-family="Arial, sans-serif" font-size="12" fill="#333">
    • V2X-kommunikasjon mellom bil og infrastruktur
  </text>
  <text x="70" y="215" font-family="Arial, sans-serif" font-size="12" fill="#333">
    • Smart trafikklys basert på trafikkflyt
  </text>
  <text x="70" y="235" font-family="Arial, sans-serif" font-size="12" fill="#333">
    • Integrerte transportløsninger
  </text>
  <text x="70" y="255" font-family="Arial, sans-serif" font-size="12" fill="#333">
    • Sømløs overgang mellom transportmidler
  </text>
  
  <!-- Smart infrastructure section -->
  <rect x="410" y="70" width="340" height="200" rx="10" fill="#E0F2F1" stroke="#4CAF50" stroke-width="2"/>
  <text x="580" y="95" text-anchor="middle" font-family="Arial, sans-serif" font-size="16" font-weight="bold" fill="#4CAF50">
    Smart infrastruktur og byplanlegging
  </text>
  
  <!-- Car-free zone -->
  <rect x="440" y="120" width="100" height="60" rx="5" fill="url(#greenGradient)" stroke="#2E7D32" stroke-width="1"/>
  <circle cx="465" cy="140" r="8" fill="#FFC107"/>
  <rect x="460" y="150" width="10" height="15" fill="#2196F3"/>
  <circle cx="490" cy="145" r="6" fill="#4CAF50" stroke="#2E7D32" stroke-width="1"/>
  <circle cx="490" cy="145" r="4" fill="none" stroke="#FFF" stroke-width="1"/>
  <path d="M520 130 L520 170 M500 150 L540 150" stroke="#FFF" stroke-width="3"/>
  <path d="M510 140 L530 160 M510 160 L530 140" stroke="#F44336" stroke-width="3"/>
  <text x="490" y="190" text-anchor="middle" font-family="Arial, sans-serif" font-size="8" fill="#2E7D32">Bilfri sone</text>
  
  <!-- Electric charging station -->
  <rect x="580" y="120" width="20" height="40" rx="3" fill="#00BCD4" stroke="#0097A7" stroke-width="1"/>
  <circle cx="590" cy="135" r="4" fill="#FFF"/>
  <text x="590" y="138" text-anchor="middle" font-family="Arial, sans-serif" font-size="6" fill="#00BCD4">⚡</text>
  <path d="M600 140 L650 140" stroke="#00BCD4" stroke-width="2" stroke-dasharray="3,3"/>
  <rect x="650" y="130" width="30" height="20" rx="3" fill="#4CAF50" stroke="#2E7D32" stroke-width="1"/>
  <text x="590" y="175" text-anchor="middle" font-family="Arial, sans-serif" font-size="8" fill="#00BCD4">Lading</text>
  
  <text x="430" y="205" font-family="Arial, sans-serif" font-size="12" fill="#333">
    • Utvidede bilfrie soner og gågater
  </text>
  <text x="430" y="225" font-family="Arial, sans-serif" font-size="12" fill="#333">
    • Elektrisk infrastruktur integrert i bybildet
  </text>
  <text x="430" y="245" font-family="Arial, sans-serif" font-size="12" fill="#333">
    • Automatiserte parkeringssystemer
  </text>
  <text x="430" y="265" font-family="Arial, sans-serif" font-size="12" fill="#333">
    • Multimodal transport - lett overgang
  </text>
  
  <!-- Timeline section -->
  <rect x="50" y="290" width="700" height="180" rx="10" fill="#FFF3E0" stroke="#FF9800" stroke-width="2"/>
  <text x="400" y="315" text-anchor="middle" font-family="Arial, sans-serif" font-size="18" font-weight="bold" fill="#FF9800">
    Teknologi-tidslinje for bykjøring
  </text>
  
  <!-- Timeline line -->
  <line x1="100" y1="360" x2="700" y2="360" stroke="#FF9800" stroke-width="4"/>
  
  <!-- 2025 -->
  <circle cx="150" cy="360" r="8" fill="#4CAF50" stroke="#2E7D32" stroke-width="2"/>
  <text x="150" y="340" text-anchor="middle" font-family="Arial, sans-serif" font-size="12" font-weight="bold" fill="#2E7D32">2025</text>
  <text x="150" y="380" text-anchor="middle" font-family="Arial, sans-serif" font-size="10" fill="#333">Miljøsoner utvidet</text>
  <text x="150" y="395" text-anchor="middle" font-family="Arial, sans-serif" font-size="10" fill="#333">Bedre kollektivtrafikk</text>
  
  <!-- 2030 -->
  <circle cx="300" cy="360" r="8" fill="#2196F3" stroke="#1565C0" stroke-width="2"/>
  <text x="300" y="340" text-anchor="middle" font-family="Arial, sans-serif" font-size="12" font-weight="bold" fill="#1565C0">2030</text>
  <text x="300" y="380" text-anchor="middle" font-family="Arial, sans-serif" font-size="10" fill="#333">Semi-autonome biler</text>
  <text x="300" y="395" text-anchor="middle" font-family="Arial, sans-serif" font-size="10" fill="#333">Smart trafikklys</text>
  
  <!-- 2035 -->
  <circle cx="450" cy="360" r="8" fill="#9C27B0" stroke="#7B1FA2" stroke-width="2"/>
  <text x="450" y="340" text-anchor="middle" font-family="Arial, sans-serif" font-size="12" font-weight="bold" fill="#7B1FA2">2035</text>
  <text x="450" y="380" text-anchor="middle" font-family="Arial, sans-serif" font-size="10" fill="#333">Fullt autonome soner</text>
  <text x="450" y="395" text-anchor="middle" font-family="Arial, sans-serif" font-size="10" fill="#333">V2X utbredt</text>
  
  <!-- 2040+ -->
  <circle cx="600" cy="360" r="8" fill="#FF5722" stroke="#D84315" stroke-width="2"/>
  <text x="600" y="340" text-anchor="middle" font-family="Arial, sans-serif" font-size="12" font-weight="bold" fill="#D84315">2040+</text>
  <text x="600" y="380" text-anchor="middle" font-family="Arial, sans-serif" font-size="10" fill="#333">Bilfrie bykjerner</text>
  <text x="600" y="395" text-anchor="middle" font-family="Arial, sans-serif" font-size="10" fill="#333">Transport som tjeneste</text>
  
  <!-- Current challenges -->
  <text x="80" y="425" font-family="Arial, sans-serif" font-size="12" font-weight="bold" fill="#FF9800">
    Utfordringer som må løses:
  </text>
  <text x="80" y="445" font-family="Arial, sans-serif" font-size="11" fill="#333">
    • Teknisk sikkerhet og pålitelighet av autonome systemer
  </text>
  <text x="80" y="460" font-family="Arial, sans-serif" font-size="11" fill="#333">
    • Juridiske rammeverk for ansvar ved ulykker
  </text>
  
  <!-- Opportunities -->
  <text x="450" y="425" font-family="Arial, sans-serif" font-size="12" font-weight="bold" fill="#4CAF50">
    Muligheter:
  </text>
  <text x="450" y="445" font-family="Arial, sans-serif" font-size="11" fill="#333">
    • Dramatisk reduksjon i trafikkulykker
  </text>
  <text x="450" y="460" font-family="Arial, sans-serif" font-size="11" fill="#333">
    • Mer effektiv bruk av veinettet og mindre kø
  </text>
  
  <!-- Impact on learning section -->
  <rect x="50" y="490" width="700" height="80" rx="10" fill="#E1F5FE" stroke="#0288D1" stroke-width="2"/>
  <text x="400" y="515" text-anchor="middle" font-family="Arial, sans-serif" font-size="16" font-weight="bold" fill="#0277BD">
    Påvirkning på kjøreprøvelse og opplæring
  </text>
  
  <!-- Traditional vs future -->
  <rect x="80" y="530" width="150" height="30" rx="5" fill="#FFE0B2" stroke="#FF9800" stroke-width="1"/>
  <text x="155" y="550" text-anchor="middle" font-family="Arial, sans-serif" font-size="12" font-weight="bold" fill="#E65100">
    I dag: Manuell kontroll
  </text>
  
  <!-- Arrow -->
  <path d="M240 545 L280 545" stroke="#2196F3" stroke-width="4" fill="none" marker-end="url(#blueArrow)"/>
  
  <rect x="290" y="530" width="200" height="30" rx="5" fill="#C8E6C9" stroke="#4CAF50" stroke-width="1"/>
  <text x="390" y="550" text-anchor="middle" font-family="Arial, sans-serif" font-size="12" font-weight="bold" fill="#2E7D32">
    Fremtid: Systemforståelse
  </text>
  
  <!-- Future skills -->
  <text x="520" y="540" font-family="Arial, sans-serif" font-size="11" fill="#333">
    • Teknologiforståelse
  </text>
  <text x="520" y="555" font-family="Arial, sans-serif" font-size="11" fill="#333">
    • Samhandling med autonome systemer
  </text>
  
  <!-- Arrow marker -->
  <defs>
    <marker id="blueArrow" markerWidth="12" markerHeight="8" refX="11" refY="4" orient="auto">
      <polygon points="0 0, 12 4, 0 8" fill="#2196F3"/>
    </marker>
  </defs>
</svg>