<svg width="800" height="600" viewBox="0 0 800 600" xmlns="http://www.w3.org/2000/svg">
  <defs>
    <!-- Gradients -->
    <linearGradient id="cityGrad" x1="0%" y1="0%" x2="100%" y2="100%">
      <stop offset="0%" style="stop-color:#3498DB;stop-opacity:1" />
      <stop offset="100%" style="stop-color:#2980B9;stop-opacity:1" />
    </linearGradient>
    <linearGradient id="countryGrad" x1="0%" y1="0%" x2="100%" y2="100%">
      <stop offset="0%" style="stop-color:#27AE60;stop-opacity:1" />
      <stop offset="100%" style="stop-color:#229954;stop-opacity:1" />
    </linearGradient>
    <linearGradient id="motorwayGrad" x1="0%" y1="0%" x2="100%" y2="100%">
      <stop offset="0%" style="stop-color:#E74C3C;stop-opacity:1" />
      <stop offset="100%" style="stop-color:#C0392B;stop-opacity:1" />
    </linearGradient>
  </defs>
  
  <!-- Background -->
  <rect width="800" height="600" fill="#F8F9FA"/>
  
  <!-- Title -->
  <text x="400" y="30" text-anchor="middle" font-family="Arial, sans-serif" font-size="22" font-weight="bold" fill="#2C3E50">
    Kjøresituasjoner under oppkjøring
  </text>
  
  <!-- City driving section -->
  <g transform="translate(50, 60)">
    <rect x="0" y="0" width="220" height="160" rx="10" fill="url(#cityGrad)" opacity="0.1" stroke="#3498DB" stroke-width="2"/>
    <text x="110" y="20" text-anchor="middle" font-family="Arial, sans-serif" font-size="16" font-weight="bold" fill="#2980B9">
      🏙️ BYKJØRING
    </text>
    
    <!-- City elements -->
    <!-- Buildings -->
    <rect x="20" y="30" width="15" height="40" fill="#95A5A6"/>
    <rect x="40" y="30" width="15" height="50" fill="#95A5A6"/>
    <rect x="60" y="30" width="15" height="35" fill="#95A5A6"/>
    <rect x="140" y="30" width="15" height="45" fill="#95A5A6"/>
    <rect x="160" y="30" width="15" height="38" fill="#95A5A6"/>
    <rect x="180" y="30" width="15" height="52" fill="#95A5A6"/>
    
    <!-- Roundabout -->
    <circle cx="110" cy="100" r="25" fill="none" stroke="#34495E" stroke-width="3"/>
    <circle cx="110" cy="100" r="8" fill="#7ED321"/>
    
    <!-- Traffic lights -->
    <rect x="80" y="80" width="6" height="15" fill="#34495E"/>
    <circle cx="83" cy="85" r="2" fill="#E74C3C"/>
    <circle cx="83" cy="88" r="2" fill="#F39C12"/>
    <circle cx="83" cy="91" r="2" fill="#7ED321"/>
    
    <!-- Pedestrians -->
    <circle cx="150" cy="130" r="3" fill="#E67E22"/>
    <rect x="148" y="133" width="4" height="8" fill="#E67E22"/>
    <circle cx="170" cy="135" r="3" fill="#E67E22"/>
    <rect x="168" y="138" width="4" height="8" fill="#E67E22"/>
    
    <!-- Key points -->
    <text x="10" y="145" font-family="Arial, sans-serif" font-size="11" fill="#2980B9" font-weight="bold">Fokusområder:</text>
    <text x="10" y="155" font-family="Arial, sans-serif" font-size="9" fill="#2980B9">• Rundkjøringer og vikeplikt</text>
  </g>
  
  <!-- Country road section -->
  <g transform="translate(290, 60)">
    <rect x="0" y="0" width="220" height="160" rx="10" fill="url(#countryGrad)" opacity="0.1" stroke="#27AE60" stroke-width="2"/>
    <text x="110" y="20" text-anchor="middle" font-family="Arial, sans-serif" font-size="16" font-weight="bold" fill="#229954">
      🌲 LANDEVEI
    </text>
    
    <!-- Trees -->
    <circle cx="25" cy="45" r="8" fill="#27AE60"/>
    <rect x="23" y="45" width="4" height="12" fill="#8B4513"/>
    <circle cx="45" cy="40" r="10" fill="#27AE60"/>
    <rect x="43" y="40" width="4" height="15" fill="#8B4513"/>
    <circle cx="175" cy="50" r="9" fill="#27AE60"/>
    <rect x="173" y="50" width="4" height="13" fill="#8B4513"/>
    <circle cx="195" cy="45" r="7" fill="#27AE60"/>
    <rect x="193" y="45" width="4" height="10" fill="#8B4513"/>
    
    <!-- Winding road -->
    <path d="M 20 120 Q 60 100 100 110 Q 140 120 180 100 Q 200 95 220 105" 
          stroke="#7F8C8D" stroke-width="8" fill="none"/>
    <path d="M 20 120 Q 60 100 100 110 Q 140 120 180 100 Q 200 95 220 105" 
          stroke="#FFFFFF" stroke-width="2" fill="none" stroke-dasharray="5,5"/>
    
    <!-- Oncoming car -->
    <g transform="translate(130, 110)">
      <rect x="0" y="0" width="20" height="10" rx="2" fill="#E74C3C"/>
      <circle cx="3" cy="12" r="2" fill="#34495E"/>
      <circle cx="17" cy="12" r="2" fill="#34495E"/>
    </g>
    
    <!-- Animals -->
    <ellipse cx="80" cy="80" rx="8" ry="5" fill="#8B4513"/>
    <circle cx="75" cy="78" r="3" fill="#8B4513"/>
    
    <!-- Key points -->
    <text x="10" y="145" font-family="Arial, sans-serif" font-size="11" fill="#229954" font-weight="bold">Fokusområder:</text>
    <text x="10" y="155" font-family="Arial, sans-serif" font-size="9" fill="#229954">• Møtende trafikk og kurver</text>
  </g>
  
  <!-- Motorway section -->
  <g transform="translate(530, 60)">
    <rect x="0" y="0" width="220" height="160" rx="10" fill="url(#motorwayGrad)" opacity="0.1" stroke="#E74C3C" stroke-width="2"/>
    <text x="110" y="20" text-anchor="middle" font-family="Arial, sans-serif" font-size="16" font-weight="bold" fill="#C0392B">
      🛣️ MOTORVEI
    </text>
    
    <!-- Motorway layout -->
    <rect x="20" y="70" width="180" height="50" fill="#7F8C8D"/>
    <!-- Lane dividers -->
    <line x1="20" y1="85" x2="200" y2="85" stroke="#FFFFFF" stroke-width="2" stroke-dasharray="8,4"/>
    <line x1="20" y1="105" x2="200" y2="105" stroke="#FFFFFF" stroke-width="2" stroke-dasharray="8,4"/>
    
    <!-- Cars in different lanes -->
    <g transform="translate(40, 75)">
      <rect x="0" y="0" width="25" height="12" rx="2" fill="#3498DB"/>
      <circle cx="4" cy="14" r="2" fill="#34495E"/>
      <circle cx="21" cy="14" r="2" fill="#34495E"/>
    </g>
    
    <g transform="translate(80, 90)">
      <rect x="0" y="0" width="25" height="12" rx="2" fill="#27AE60"/>
      <circle cx="4" cy="14" r="2" fill="#34495E"/>
      <circle cx="21" cy="14" r="2" fill="#34495E"/>
    </g>
    
    <g transform="translate(130, 108)">
      <rect x="0" y="0" width="25" height="12" rx="2" fill="#F39C12"/>
      <circle cx="4" cy="14" r="2" fill="#34495E"/>
      <circle cx="21" cy="14" r="2" fill="#34495E"/>
    </g>
    
    <!-- Speed limit sign -->
    <circle cx="160" cy="45" r="12" fill="#FFFFFF" stroke="#E74C3C" stroke-width="2"/>
    <text x="160" y="50" text-anchor="middle" font-family="Arial, sans-serif" font-size="8" font-weight="bold" fill="#E74C3C">110</text>
    
    <!-- Entry/exit ramps -->
    <path d="M 15 95 Q 25 85 35 75" stroke="#7F8C8D" stroke-width="6" fill="none"/>
    <path d="M 165 105 Q 175 115 185 125" stroke="#7F8C8D" stroke-width="6" fill="none"/>
    
    <!-- Key points -->
    <text x="10" y="145" font-family="Arial, sans-serif" font-size="11" fill="#C0392B" font-weight="bold">Fokusområder:</text>
    <text x="10" y="155" font-family="Arial, sans-serif" font-size="9" fill="#C0392B">• Påkjøring og avkjøring</text>
  </g>
  
  <!-- Evaluation criteria -->
  <g transform="translate(50, 250)">
    <rect x="0" y="0" width="700" height="320" rx="10" fill="#FFFFFF" stroke="#BDC3C7" stroke-width="2"/>
    <text x="350" y="25" text-anchor="middle" font-family="Arial, sans-serif" font-size="18" font-weight="bold" fill="#2C3E50">
      Hva vurderer sensor under selvstendig kjøring?
    </text>
    
    <!-- Technical driving -->
    <g transform="translate(20, 40)">
      <rect x="0" y="0" width="320" height="120" rx="5" fill="#EBF5FB" stroke="#3498DB" stroke-width="1"/>
      <text x="160" y="20" text-anchor="middle" font-family="Arial, sans-serif" font-size="14" font-weight="bold" fill="#2980B9">
        🔧 TEKNISK KJØRING
      </text>
      
      <text x="10" y="40" font-family="Arial, sans-serif" font-size="12" font-weight="bold" fill="#2C3E50">Girkskifte og kobling:</text>
      <text x="10" y="52" font-family="Arial, sans-serif" font-size="10" fill="#7F8C8D">• Myke overganger uten rykkete bevegelser</text>
      <text x="10" y="63" font-family="Arial, sans-serif" font-size="10" fill="#7F8C8D">• Riktig girvalg for hastighet og situasjon</text>
      
      <text x="10" y="80" font-family="Arial, sans-serif" font-size="12" font-weight="bold" fill="#2C3E50">Styring og plassering:</text>
      <text x="10" y="92" font-family="Arial, sans-serif" font-size="10" fill="#7F8C8D">• Jevn kurs uten unødig korreksjon</text>
      <text x="10" y="103" font-family="Arial, sans-serif" font-size="10" fill="#7F8C8D">• Optimal posisjon i kjørebanen</text>
    </g>
    
    <!-- Traffic adaptation -->
    <g transform="translate(360, 40)">
      <rect x="0" y="0" width="320" height="120" rx="5" fill="#E8F6F3" stroke="#27AE60" stroke-width="1"/>
      <text x="160" y="20" text-anchor="middle" font-family="Arial, sans-serif" font-size="14" font-weight="bold" fill="#229954">
        🚦 TRAFIKKTILPASNING
      </text>
      
      <text x="10" y="40" font-family="Arial, sans-serif" font-size="12" font-weight="bold" fill="#2C3E50">Fart og avstand:</text>
      <text x="10" y="52" font-family="Arial, sans-serif" font-size="10" fill="#7F8C8D">• Tilpasset fartsgrenser og forhold</text>
      <text x="10" y="63" font-family="Arial, sans-serif" font-size="10" fill="#7F8C8D">• Sikre følgeavstander til andre biler</text>
      
      <text x="10" y="80" font-family="Arial, sans-serif" font-size="12" font-weight="bold" fill="#2C3E50">Vikeplikt og kommunikasjon:</text>
      <text x="10" y="92" font-family="Arial, sans-serif" font-size="10" fill="#7F8C8D">• Korrekt forståelse av vikepliktsregler</text>
      <text x="10" y="103" font-family="Arial, sans-serif" font-size="10" fill="#7F8C8D">• Tydelig signalisering og kommunikasjon</text>
    </g>
    
    <!-- Safety awareness -->
    <g transform="translate(20, 180)">
      <rect x="0" y="0" width="320" height="120" rx="5" fill="#FFF3CD" stroke="#856404" stroke-width="1"/>
      <text x="160" y="20" text-anchor="middle" font-family="Arial, sans-serif" font-size="14" font-weight="bold" fill="#856404">
        🛡️ SIKKERHETSBEVISSHET
      </text>
      
      <text x="10" y="40" font-family="Arial, sans-serif" font-size="12" font-weight="bold" fill="#2C3E50">Observasjon og oppmerksomhet:</text>
      <text x="10" y="52" font-family="Arial, sans-serif" font-size="10" fill="#7F8C8D">• Konstant skanning av trafikkbildet</text>
      <text x="10" y="63" font-family="Arial, sans-serif" font-size="10" fill="#7F8C8D">• Tidlig reaksjon på endringer</text>
      
      <text x="10" y="80" font-family="Arial, sans-serif" font-size="12" font-weight="bold" fill="#2C3E50">Risikovurdering:</text>
      <text x="10" y="92" font-family="Arial, sans-serif" font-size="10" fill="#7F8C8D">• Identifisere potensielle farer</text>
      <text x="10" y="103" font-family="Arial, sans-serif" font-size="10" fill="#7F8C8D">• Riktige sikkerhetsmarginer</text>
    </g>
    
    <!-- Decision making -->
    <g transform="translate(360, 180)">
      <rect x="0" y="0" width="320" height="120" rx="5" fill="#FDEDEC" stroke="#E74C3C" stroke-width="1"/>
      <text x="160" y="20" text-anchor="middle" font-family="Arial, sans-serif" font-size="14" font-weight="bold" fill="#C0392B">
        🧠 BESLUTNINGSEVNE
      </text>
      
      <text x="10" y="40" font-family="Arial, sans-serif" font-size="12" font-weight="bold" fill="#2C3E50">Selvstendighet:</text>
      <text x="10" y="52" font-family="Arial, sans-serif" font-size="10" fill="#7F8C8D">• Ta egne avgjørelser uten instruksjon</text>
      <text x="10" y="63" font-family="Arial, sans-serif" font-size="10" fill="#7F8C8D">• Vise initiativ i komplekse situasjoner</text>
      
      <text x="10" y="80" font-family="Arial, sans-serif" font-size="12" font-weight="bold" fill="#2C3E50">Problemløsning:</text>
      <text x="10" y="92" font-family="Arial, sans-serif" font-size="10" fill="#7F8C8D">• Håndtere uventede situasjoner</text>
      <text x="10" y="103" font-family="Arial, sans-serif" font-size="10" fill="#7F8C8D">• Velge sikre løsninger fremfor risikable</text>
    </g>
  </g>
  
  <!-- Bottom tip -->
  <g transform="translate(100, 580)">
    <text x="300" y="15" text-anchor="middle" font-family="Arial, sans-serif" font-size="12" fill="#7F8C8D" font-style="italic">
      💡 Sensor følger deg vanligvis 15-20 minutter og vurderer din totale kjøreutføring i alle situasjoner
    </text>
  </g>
</svg>