<svg width="800" height="600" viewBox="0 0 800 600" xmlns="http://www.w3.org/2000/svg">
  <defs>
    <linearGradient id="practiceGradient" x1="0%" y1="0%" x2="100%" y2="100%">
      <stop offset="0%" style="stop-color:#4CAF50;stop-opacity:1" />
      <stop offset="100%" style="stop-color:#2E7D32;stop-opacity:1" />
    </linearGradient>
    <linearGradient id="roadGradient" x1="0%" y1="0%" x2="0%" y2="100%">
      <stop offset="0%" style="stop-color:#616161;stop-opacity:1" />
      <stop offset="100%" style="stop-color:#424242;stop-opacity:1" />
    </linearGradient>
  </defs>
  
  <!-- Background -->
  <rect width="800" height="600" fill="#F8F9FA"/>
  
  <!-- Title -->
  <text x="400" y="40" text-anchor="middle" font-family="Arial, sans-serif" font-size="28" font-weight="bold" fill="#2C3E50">
    Praktiske øvelser for bykjøring
  </text>
  
  <!-- Basic skills section -->
  <rect x="50" y="70" width="340" height="200" rx="10" fill="#E3F2FD" stroke="#2196F3" stroke-width="2"/>
  <text x="220" y="95" text-anchor="middle" font-family="Arial, sans-serif" font-size="16" font-weight="bold" fill="#2196F3">
    Grunnleggende ferdigheter
  </text>
  
  <!-- Parallel parking illustration -->
  <rect x="70" y="110" width="300" height="60" fill="url(#roadGradient)"/>
  <rect x="80" y="115" width="40" height="20" rx="3" fill="#90A4AE"/>
  <rect x="140" y="115" width="80" height="20" rx="3" fill="url(#practiceGradient)" stroke="#2E7D32" stroke-width="2"/>
  <rect x="240" y="115" width="40" height="20" rx="3" fill="#90A4AE"/>
  <path d="M120 125 Q130 105 140 125" stroke="#FF9800" stroke-width="2" fill="none" stroke-dasharray="3,3"/>
  <text x="160" y="150" text-anchor="middle" font-family="Arial, sans-serif" font-size="10" fill="#2E7D32">Parallellparkering</text>
  
  <!-- Intersection navigation -->
  <rect x="90" y="180" width="60" height="5" fill="#757575"/>
  <rect x="117" y="160" width="5" height="60" fill="#757575"/>
  <circle cx="120" cy="182" r="8" fill="#FF9800" opacity="0.7"/>
  <text x="160" y="187" font-family="Arial, sans-serif" font-size="10" fill="#333">Kryss-navigering</text>
  
  <text x="70" y="210" font-family="Arial, sans-serif" font-size="12" fill="#333">
    • Parallellparkering - øv i rolige områder først
  </text>
  <text x="70" y="230" font-family="Arial, sans-serif" font-size="12" fill="#333">
    • Kryss-navigering - forstå vikeplikt
  </text>
  <text x="70" y="250" font-family="Arial, sans-serif" font-size="12" fill="#333">
    • Avstandsbedømming i kø-situasjoner
  </text>
  
  <!-- Advanced exercises section -->
  <rect x="410" y="70" width="340" height="200" rx="10" fill="#FFF3E0" stroke="#F57C00" stroke-width="2"/>
  <text x="580" y="95" text-anchor="middle" font-family="Arial, sans-serif" font-size="16" font-weight="bold" fill="#F57C00">
    Avanserte øvelser
  </text>
  
  <!-- Emergency maneuver -->
  <rect x="430" y="110" width="300" height="40" fill="#FFCDD2" stroke="#F44336" stroke-width="1"/>
  <rect x="450" y="120" width="30" height="15" rx="3" fill="#2196F3"/>
  <path d="M480 127 Q500 115 520 127" stroke="#F44336" stroke-width="3" fill="none"/>
  <rect x="540" y="125" width="20" height="10" rx="2" fill="#FF5722"/>
  <text x="580" y="135" text-anchor="middle" font-family="Arial, sans-serif" font-size="10" fill="#F44336">Nødmanøver</text>
  
  <!-- Stress training -->
  <rect x="450" y="160" width="15" height="10" rx="2" fill="#FF9800"/>
  <rect x="470" y="160" width="15" height="10" rx="2" fill="#FF9800"/>
  <rect x="490" y="165" width="15" height="10" rx="2" fill="#FF9800"/>
  <rect x="510" y="160" width="15" height="10" rx="2" fill="#FF9800"/>
  <rect x="530" y="165" width="15" height="10" rx="2" fill="#FF9800"/>
  <text x="490" y="185" text-anchor="middle" font-family="Arial, sans-serif" font-size="10" fill="#FF9800">Rush-trafikk</text>
  
  <text x="430" y="210" font-family="Arial, sans-serif" font-size="12" fill="#333">
    • Nødmanøvre - unnamanøvre i trang trafikk
  </text>
  <text x="430" y="230" font-family="Arial, sans-serif" font-size="12" fill="#333">
    • Stressmestring - kjøring i rush med instruksjon
  </text>
  <text x="430" y="250" font-family="Arial, sans-serif" font-size="12" fill="#333">
    • Teknologi-integrering - moderne bilsystemer
  </text>
  
  <!-- Practice areas section -->
  <rect x="50" y="290" width="700" height="180" rx="10" fill="#E8F5E8" stroke="#4CAF50" stroke-width="2"/>
  <text x="400" y="315" text-anchor="middle" font-family="Arial, sans-serif" font-size="18" font-weight="bold" fill="#4CAF50">
    Anbefalte øvelsesområder
  </text>
  
  <!-- Small cities -->
  <rect x="80" y="340" width="150" height="100" rx="5" fill="#C8E6C9" stroke="#4CAF50" stroke-width="1"/>
  <text x="155" y="360" text-anchor="middle" font-family="Arial, sans-serif" font-size="14" font-weight="bold" fill="#2E7D32">
    Mindre byer
  </text>
  <!-- Small buildings -->
  <rect x="100" y="370" width="20" height="15" fill="#90A4AE"/>
  <rect x="130" y="370" width="20" height="15" fill="#90A4AE"/>
  <rect x="160" y="370" width="20" height="15" fill="#90A4AE"/>
  <rect x="115" y="390" width="30" height="4" fill="#757575"/>
  <text x="155" y="405" text-anchor="middle" font-family="Arial, sans-serif" font-size="10" fill="#2E7D32">
    Roligere miljø
  </text>
  <text x="155" y="420" text-anchor="middle" font-family="Arial, sans-serif" font-size="10" fill="#2E7D32">
    Mindre trafikk
  </text>
  
  <!-- Shopping centers -->
  <rect x="250" y="340" width="150" height="100" rx="5" fill="#E1F5FE" stroke="#2196F3" stroke-width="1"/>
  <text x="325" y="360" text-anchor="middle" font-family="Arial, sans-serif" font-size="14" font-weight="bold" fill="#1976D2">
    Handelssentre
  </text>
  <!-- Parking lot -->
  <rect x="270" y="370" width="110" height="40" fill="#BDBDBD"/>
  <rect x="280" y="375" width="15" height="10" rx="2" fill="#4CAF50"/>
  <rect x="300" y="375" width="15" height="10" rx="2" fill="#4CAF50"/>
  <rect x="320" y="375" width="15" height="10" rx="2" fill="#4CAF50"/>
  <rect x="340" y="375" width="15" height="10" rx="2" fill="#4CAF50"/>
  <rect x="280" y="395" width="15" height="10" rx="2" fill="#4CAF50"/>
  <rect x="300" y="395" width="15" height="10" rx="2" fill="#4CAF50"/>
  <text x="325" y="425" text-anchor="middle" font-family="Arial, sans-serif" font-size="10" fill="#1976D2">
    Parkering på kveld
  </text>
  
  <!-- Industrial areas -->
  <rect x="420" y="340" width="150" height="100" rx="5" fill="#F3E5F5" stroke="#7B1FA2" stroke-width="1"/>
  <text x="495" y="360" text-anchor="middle" font-family="Arial, sans-serif" font-size="14" font-weight="bold" fill="#6A1B9A">
    Industriområder
  </text>
  <!-- Industrial buildings -->
  <rect x="440" y="370" width="30" height="25" fill="#78909C"/>
  <rect x="480" y="370" width="30" height="25" fill="#78909C"/>
  <rect x="520" y="370" width="30" height="25" fill="#78909C"/>
  <rect x="460" y="400" width="50" height="4" fill="#424242"/>
  <text x="495" y="420" text-anchor="middle" font-family="Arial, sans-serif" font-size="10" fill="#6A1B9A">
    Trygg øving helger
  </text>
  
  <!-- Driving school areas -->
  <rect x="590" y="340" width="130" height="100" rx="5" fill="#FFECB3" stroke="#FFC107" stroke-width="1"/>
  <text x="655" y="360" text-anchor="middle" font-family="Arial, sans-serif" font-size="14" font-weight="bold" fill="#F57C00">
    Kjøreskole
  </text>
  <!-- Instructor -->
  <circle cx="630" cy="385" r="8" fill="#FFC107"/>
  <rect x="625" y="395" width="10" height="15" fill="#2196F3"/>
  <rect x="650" y="385" width="25" height="15" rx="3" fill="#4CAF50"/>
  <text x="662" y="394" text-anchor="middle" font-family="Arial, sans-serif" font-size="6" fill="#FFF">AUTO</text>
  <text x="655" y="420" text-anchor="middle" font-family="Arial, sans-serif" font-size="10" fill="#F57C00">
    Med instruktør
  </text>
  
  <!-- Training progression -->
  <rect x="50" y="490" width="700" height="80" rx="10" fill="#FFE0B2" stroke="#FF9800" stroke-width="2"/>
  <text x="400" y="515" text-anchor="middle" font-family="Arial, sans-serif" font-size="16" font-weight="bold" fill="#F57C00">
    Progressiv opplæring
  </text>
  
  <!-- Step 1 -->
  <circle cx="120" cy="540" r="15" fill="#4CAF50" stroke="#2E7D32" stroke-width="2"/>
  <text x="120" y="545" text-anchor="middle" font-family="Arial, sans-serif" font-size="12" font-weight="bold" fill="#FFF">1</text>
  <text x="120" y="560" text-anchor="middle" font-family="Arial, sans-serif" font-size="10" fill="#333">Tom parkeringsplass</text>
  
  <!-- Arrow -->
  <path d="M135 540 L175 540" stroke="#FF9800" stroke-width="3" fill="none" marker-end="url(#arrow)"/>
  
  <!-- Step 2 -->
  <circle cx="200" cy="540" r="15" fill="#FF9800" stroke="#F57C00" stroke-width="2"/>
  <text x="200" y="545" text-anchor="middle" font-family="Arial, sans-serif" font-size="12" font-weight="bold" fill="#FFF">2</text>
  <text x="200" y="560" text-anchor="middle" font-family="Arial, sans-serif" font-size="10" fill="#333">Mindre byer</text>
  
  <!-- Arrow -->
  <path d="M215 540 L255 540" stroke="#FF9800" stroke-width="3" fill="none" marker-end="url(#arrow)"/>
  
  <!-- Step 3 -->
  <circle cx="280" cy="540" r="15" fill="#FF5722" stroke="#D84315" stroke-width="2"/>
  <text x="280" y="545" text-anchor="middle" font-family="Arial, sans-serif" font-size="12" font-weight="bold" fill="#FFF">3</text>
  <text x="280" y="560" text-anchor="middle" font-family="Arial, sans-serif" font-size="10" fill="#333">Bysentrum</text>
  
  <!-- Arrow -->
  <path d="M295 540 L335 540" stroke="#FF9800" stroke-width="3" fill="none" marker-end="url(#arrow)"/>
  
  <!-- Step 4 -->
  <circle cx="360" cy="540" r="15" fill="#9C27B0" stroke="#7B1FA2" stroke-width="2"/>
  <text x="360" y="545" text-anchor="middle" font-family="Arial, sans-serif" font-size="12" font-weight="bold" fill="#FFF">4</text>
  <text x="360" y="560" text-anchor="middle" font-family="Arial, sans-serif" font-size="10" fill="#333">Rush-trafikk</text>
  
  <!-- Tips -->
  <text x="450" y="535" font-family="Arial, sans-serif" font-size="12" fill="#333">
    💡 Start enkelt og øk gradvis vanskelighetsgrad
  </text>
  <text x="450" y="555" font-family="Arial, sans-serif" font-size="12" fill="#333">
    💡 Øv samme manøver mange ganger til det blir automatisk
  </text>
  
  <!-- Arrow marker -->
  <defs>
    <marker id="arrow" markerWidth="10" markerHeight="7" refX="9" refY="3.5" orient="auto">
      <polygon points="0 0, 10 3.5, 0 7" fill="#FF9800"/>
    </marker>
  </defs>
</svg>